HikasamiBold.glyphspackage
<glyph name="exclam" format="2">
  <advance width="321"/>
  <unicode hex="0021"/>
  <outline>
    <contour>
      <point x="94" y="188" type="line"/>
      <point x="227" y="188" type="line"/>
      <point x="227" y="739" type="line"/>
      <point x="94" y="739" type="line"/>
    </contour>
    <contour>
      <point x="94" y="0" type="line"/>
      <point x="227" y="0" type="line"/>
      <point x="227" y="128" type="line"/>
      <point x="94" y="128" type="line"/>
    </contour>
  </outline>
</glyph>
<glyph name="quotedbl" format="2">
  <advance width="337"/>
  <unicode hex="0022"/>
  <outline>
    <contour>
      <point x="197" y="513" type="line"/>
      <point x="273" y="513" type="line"/>
      <point x="273" y="739" type="line"/>
      <point x="197" y="739" type="line"/>
    </contour>
    <contour>
      <point x="64" y="513" type="line"/>
      <point x="140" y="513" type="line"/>
      <point x="140" y="739" type="line"/>
      <point x="64" y="739" type="line"/>
    </contour>
  </outline>
</glyph>
<glyph name="dollar" format="2">
  <advance width="560"/>
  <unicode hex="0024"/>
  <outline>
    <contour>
      <point x="223" y="-86" type="line"/>
      <point x="350" y="-86" type="line"/>
      <point x="350" y="46" type="line"/>
      <point x="385" y="56"/>
      <point x="439" y="93"/>
      <point x="477" y="146"/>
      <point x="497" y="212"/>
      <point x="497" y="251" type="qcurve"/>
      <point x="497" y="291"/>
      <point x="481" y="350"/>
      <point x="444" y="396"/>
      <point x="383" y="432"/>
      <point x="338" y="449" type="qcurve"/>
      <point x="304" y="462"/>
      <point x="260" y="483"/>
      <point x="234" y="506"/>
      <point x="224" y="532"/>
      <point x="224" y="549" type="qcurve"/>
      <point x="224" y="578"/>
      <point x="257" y="613"/>
      <point x="283" y="613" type="qcurve"/>
      <point x="309" y="613"/>
      <point x="342" y="581"/>
      <point x="348" y="551" type="qcurve"/>
      <point x="474" y="551" type="line"/>
      <point x="473" y="583"/>
      <point x="453" y="641"/>
      <point x="420" y="687"/>
      <point x="375" y="718"/>
      <point x="350" y="723" type="qcurve"/>
      <point x="350" y="856" type="line"/>
      <point x="223" y="856" type="line"/>
      <point x="223" y="723" type="line"/>
      <point x="161" y="709"/>
      <point x="91" y="613"/>
      <point x="91" y="541" type="qcurve"/>
      <point x="91" y="474"/>
      <point x="157" y="382"/>
      <point x="220" y="361" type="qcurve"/>
      <point x="299" y="335"/>
      <point x="364" y="276"/>
      <point x="364" y="232" type="qcurve"/>
      <point x="364" y="201"/>
      <point x="318" y="163"/>
      <point x="280" y="163" type="qcurve"/>
      <point x="243" y="163"/>
      <point x="198" y="209"/>
      <point x="196" y="249" type="qcurve"/>
      <point x="62" y="249" type="line"/>
      <point x="62" y="172"/>
      <point x="144" y="68"/>
      <point x="223" y="46" type="qcurve"/>
    </contour>
  </outline>
</glyph>
<glyph name="percent" format="2">
  <advance width="860"/>
  <unicode hex="0025"/>
  <outline>
    <contour>
      <point x="225" y="0" type="line"/>
      <point x="327" y="0" type="line"/>
      <point x="633" y="739" type="line"/>
      <point x="530" y="739" type="line"/>
    </contour>
    <contour>
      <point x="475" y="167" type="qcurve"/>
      <point x="475" y="130"/>
      <point x="504" y="64"/>
      <point x="553" y="15"/>
      <point x="619" y="-13"/>
      <point x="656" y="-13" type="qcurve"/>
      <point x="694" y="-13"/>
      <point x="759" y="15"/>
      <point x="809" y="65"/>
      <point x="837" y="131"/>
      <point x="837" y="168" type="qcurve"/>
      <point x="837" y="205"/>
      <point x="808" y="270"/>
      <point x="759" y="319"/>
      <point x="694" y="348"/>
      <point x="657" y="348" type="qcurve"/>
      <point x="619" y="348"/>
      <point x="552" y="320"/>
      <point x="503" y="271"/>
      <point x="475" y="205"/>
    </contour>
    <contour>
      <point x="656" y="94" type="qcurve"/>
      <point x="641" y="94"/>
      <point x="614" y="106"/>
      <point x="594" y="126"/>
      <point x="583" y="153"/>
      <point x="583" y="168" type="qcurve"/>
      <point x="583" y="183"/>
      <point x="594" y="210"/>
      <point x="614" y="230"/>
      <point x="640" y="242"/>
      <point x="655" y="242" type="qcurve"/>
      <point x="671" y="242"/>
      <point x="698" y="230"/>
      <point x="718" y="210"/>
      <point x="730" y="183"/>
      <point x="730" y="168" type="qcurve"/>
      <point x="730" y="153"/>
      <point x="718" y="126"/>
      <point x="698" y="106"/>
      <point x="671" y="94"/>
    </contour>
    <contour>
      <point x="23" y="571" type="qcurve"/>
      <point x="23" y="534"/>
      <point x="52" y="468"/>
      <point x="101" y="419"/>
      <point x="167" y="391"/>
      <point x="204" y="391" type="qcurve"/>
      <point x="242" y="391"/>
      <point x="307" y="419"/>
      <point x="357" y="469"/>
      <point x="385" y="535"/>
      <point x="385" y="572" type="qcurve"/>
      <point x="385" y="609"/>
      <point x="356" y="674"/>
      <point x="307" y="723"/>
      <point x="242" y="752"/>
      <point x="205" y="752" type="qcurve"/>
      <point x="167" y="752"/>
      <point x="100" y="724"/>
      <point x="51" y="675"/>
      <point x="23" y="609"/>
    </contour>
    <contour>
      <point x="204" y="498" type="qcurve"/>
      <point x="189" y="498"/>
      <point x="162" y="510"/>
      <point x="142" y="530"/>
      <point x="131" y="557"/>
      <point x="131" y="572" type="qcurve"/>
      <point x="131" y="587"/>
      <point x="142" y="614"/>
      <point x="162" y="634"/>
      <point x="188" y="646"/>
      <point x="203" y="646" type="qcurve"/>
      <point x="235" y="646"/>
      <point x="278" y="603"/>
      <point x="278" y="572" type="qcurve"/>
      <point x="278" y="557"/>
      <point x="266" y="530"/>
      <point x="246" y="510"/>
      <point x="219" y="498"/>
    </contour>
  </outline>
</glyph>
<glyph name="ampersand" format="2">
  <advance width="680"/>
  <unicode hex="0026"/>
  <outline>
    <contour>
      <point x="34" y="223" type="qcurve"/>
      <point x="34" y="173"/>
      <point x="71" y="87"/>
      <point x="136" y="23"/>
      <point x="224" y="-13"/>
      <point x="275" y="-13" type="qcurve"/>
      <point x="305" y="-13"/>
      <point x="353" y="-2"/>
      <point x="397" y="24"/>
      <point x="439" y="67"/>
      <point x="463" y="98" type="qcurve"/>
      <point x="568" y="-13" type="line"/>
      <point x="663" y="73" type="line"/>
      <point x="531" y="214" type="line"/>
      <point x="659" y="433" type="line"/>
      <point x="510" y="433" type="line"/>
      <point x="438" y="314" type="line"/>
      <point x="371" y="389" type="line"/>
      <point x="403" y="409"/>
      <point x="447" y="449"/>
      <point x="475" y="491"/>
      <point x="487" y="540"/>
      <point x="487" y="570" type="qcurve"/>
      <point x="487" y="609"/>
      <point x="458" y="676"/>
      <point x="407" y="724"/>
      <point x="337" y="752"/>
      <point x="296" y="752" type="qcurve"/>
      <point x="257" y="752"/>
      <point x="189" y="724"/>
      <point x="139" y="675"/>
      <point x="110" y="608"/>
      <point x="110" y="569" type="qcurve"/>
      <point x="110" y="549"/>
      <point x="116" y="517"/>
      <point x="130" y="486"/>
      <point x="154" y="453"/>
      <point x="172" y="433" type="qcurve"/>
      <point x="99" y="390"/>
      <point x="34" y="291"/>
    </contour>
    <contour>
      <point x="288" y="481" type="qcurve"/>
      <point x="259" y="509"/>
      <point x="237" y="546"/>
      <point x="237" y="566" type="qcurve"/>
      <point x="237" y="593"/>
      <point x="272" y="627"/>
      <point x="299" y="627" type="qcurve"/>
      <point x="326" y="627"/>
      <point x="360" y="593"/>
      <point x="360" y="566" type="qcurve"/>
      <point x="360" y="538"/>
      <point x="329" y="502"/>
    </contour>
    <contour>
      <point x="167" y="215" type="qcurve"/>
      <point x="167" y="250"/>
      <point x="209" y="300"/>
      <point x="256" y="322" type="qcurve"/>
      <point x="371" y="198" type="line"/>
      <point x="344" y="152"/>
      <point x="300" y="119"/>
      <point x="267" y="119" type="qcurve"/>
      <point x="245" y="119"/>
      <point x="208" y="133"/>
      <point x="182" y="159"/>
      <point x="167" y="194"/>
    </contour>
  </outline>
</glyph>
<glyph name="quotesingle" format="2">
  <advance width="204"/>
  <unicode hex="0027"/>
  <outline>
    <contour>
      <point x="64" y="513" type="line"/>
      <point x="140" y="513" type="line"/>
      <point x="140" y="739" type="line"/>
      <point x="64" y="739" type="line"/>
    </contour>
  </outline>
</glyph>
<glyph name="parenleft" format="2">
  <advance width="357"/>
  <unicode hex="0028"/>
  <outline>
    <contour>
      <point x="311" y="8" type="line"/>
      <point x="280" y="28"/>
      <point x="229" y="91"/>
      <point x="192" y="169"/>
      <point x="171" y="256"/>
      <point x="171" y="300" type="qcurve"/>
      <point x="171" y="346"/>
      <point x="189" y="429"/>
      <point x="225" y="504"/>
      <point x="277" y="569"/>
      <point x="311" y="595" type="qcurve"/>
      <point x="311" y="739" type="line"/>
      <point x="247" y="711"/>
      <point x="145" y="623"/>
      <point x="74" y="510"/>
      <point x="36" y="375"/>
      <point x="36" y="300" type="qcurve"/>
      <point x="36" y="226"/>
      <point x="77" y="86"/>
      <point x="151" y="-31"/>
      <point x="252" y="-117"/>
      <point x="311" y="-137" type="qcurve"/>
    </contour>
  </outline>
</glyph>
<glyph name="parenright" format="2">
  <advance width="357"/>
  <unicode hex="0029"/>
  <outline>
    <contour>
      <point x="46" y="-137" type="line"/>
      <point x="110" y="-109"/>
      <point x="212" y="-21"/>
      <point x="283" y="92"/>
      <point x="321" y="227"/>
      <point x="321" y="302" type="qcurve"/>
      <point x="321" y="376"/>
      <point x="280" y="516"/>
      <point x="206" y="633"/>
      <point x="105" y="719"/>
      <point x="46" y="739" type="qcurve"/>
      <point x="46" y="594" type="line"/>
      <point x="77" y="574"/>
      <point x="128" y="511"/>
      <point x="165" y="433"/>
      <point x="186" y="346"/>
      <point x="186" y="302" type="qcurve"/>
      <point x="186" y="256"/>
      <point x="168" y="173"/>
      <point x="132" y="98"/>
      <point x="80" y="33"/>
      <point x="46" y="7" type="qcurve"/>
    </contour>
  </outline>
</glyph>
<glyph name="asterisk" format="2">
  <advance width="409"/>
  <unicode hex="002A"/>
  <outline>
    <contour>
      <point x="100" y="472" type="line"/>
      <point x="164" y="441" type="line"/>
      <point x="207" y="529" type="line"/>
      <point x="254" y="441" type="line"/>
      <point x="311" y="479" type="line"/>
      <point x="258" y="559" type="line"/>
      <point x="355" y="554" type="line"/>
      <point x="355" y="626" type="line"/>
      <point x="258" y="620" type="line"/>
      <point x="312" y="703" type="line"/>
      <point x="253" y="739" type="line"/>
      <point x="207" y="652" type="line"/>
      <point x="163" y="738" type="line"/>
      <point x="100" y="706" type="line"/>
      <point x="153" y="620" type="line"/>
      <point x="54" y="625" type="line"/>
      <point x="54" y="554" type="line"/>
      <point x="152" y="561" type="line"/>
    </contour>
  </outline>
</glyph>
<glyph name="plus" format="2">
  <advance width="600"/>
  <unicode hex="002B"/>
  <outline>
    <contour>
      <point x="240" y="117" type="line"/>
      <point x="360" y="117" type="line"/>
      <point x="360" y="312" type="line"/>
      <point x="552" y="312" type="line"/>
      <point x="552" y="430" type="line"/>
      <point x="360" y="430" type="line"/>
      <point x="360" y="625" type="line"/>
      <point x="240" y="625" type="line"/>
      <point x="240" y="430" type="line"/>
      <point x="48" y="430" type="line"/>
      <point x="48" y="312" type="line"/>
      <point x="240" y="312" type="line"/>
    </contour>
  </outline>
</glyph>
<glyph name="comma" format="2">
  <advance width="233"/>
  <unicode hex="002C"/>
  <outline>
    <contour>
      <point x="50" y="0" type="line"/>
      <point x="109" y="0" type="line"/>
      <point x="109" y="-18" type="line"/>
      <point x="109" y="-42"/>
      <point x="81" y="-67"/>
      <point x="50" y="-73" type="qcurve"/>
      <point x="50" y="-140" type="line"/>
      <point x="81" y="-140"/>
      <point x="130" y="-122"/>
      <point x="165" y="-87"/>
      <point x="183" y="-38"/>
      <point x="183" y="-7" type="qcurve"/>
      <point x="183" y="128" type="line"/>
      <point x="50" y="128" type="line"/>
    </contour>
  </outline>
</glyph>
<glyph name="hyphenminus" format="2">
  <advance width="337"/>
  <unicode hex="002D"/>
  <outline>
    <contour>
      <point x="30" y="229" type="line"/>
      <point x="307" y="229" type="line"/>
      <point x="307" y="347" type="line"/>
      <point x="30" y="347" type="line"/>
    </contour>
  </outline>
</glyph>
<glyph name="slash" format="2">
  <advance width="460"/>
  <unicode hex="002F"/>
  <outline>
    <contour>
      <point x="12" y="-128" type="line"/>
      <point x="106" y="-128" type="line"/>
      <point x="429" y="739" type="line"/>
      <point x="335" y="739" type="line"/>
    </contour>
  </outline>
</glyph>
<glyph name="zero" format="2">
  <advance width="560"/>
  <unicode hex="0030"/>
  <outline>
    <contour>
      <point x="36" y="247" type="line"/>
      <point x="36" y="125"/>
      <point x="171" y="-13"/>
      <point x="290" y="-13" type="qcurve"/>
      <point x="405" y="-13"/>
      <point x="531" y="123"/>
      <point x="531" y="247" type="qcurve"/>
      <point x="531" y="505" type="line"/>
      <point x="531" y="561"/>
      <point x="496" y="653"/>
      <point x="432" y="717"/>
      <point x="340" y="752"/>
      <point x="284" y="752" type="qcurve"/>
      <point x="227" y="752"/>
      <point x="135" y="716"/>
      <point x="71" y="650"/>
      <point x="36" y="556"/>
      <point x="36" y="498" type="qcurve"/>
    </contour>
    <contour>
      <point x="169" y="251" type="qcurve"/>
      <point x="169" y="498" type="line"/>
      <point x="169" y="560"/>
      <point x="231" y="630"/>
      <point x="285" y="630" type="qcurve"/>
      <point x="340" y="630"/>
      <point x="398" y="562"/>
      <point x="398" y="498" type="qcurve"/>
      <point x="398" y="248" type="line"/>
      <point x="398" y="178"/>
      <point x="343" y="109"/>
      <point x="286" y="109" type="qcurve"/>
      <point x="229" y="109"/>
      <point x="169" y="181"/>
    </contour>
  </outline>
</glyph>
<glyph name="one" format="2">
  <advance width="560"/>
  <unicode hex="0031"/>
  <outline>
    <contour>
      <point x="238" y="0" type="line"/>
      <point x="371" y="0" type="line"/>
      <point x="371" y="739" type="line"/>
      <point x="145" y="739" type="line"/>
      <point x="145" y="614" type="line"/>
      <point x="238" y="614" type="line"/>
    </contour>
  </outline>
</glyph>
<glyph name="two" format="2">
  <advance width="560"/>
  <unicode hex="0032"/>
  <outline>
    <contour>
      <point x="41" y="0" type="line"/>
      <point x="519" y="0" type="line"/>
      <point x="519" y="125" type="line"/>
      <point x="228" y="125" type="line"/>
      <point x="379" y="262" type="line"/>
      <point x="420" y="299"/>
      <point x="474" y="361"/>
      <point x="508" y="419"/>
      <point x="522" y="478"/>
      <point x="522" y="512" type="qcurve"/>
      <point x="522" y="563"/>
      <point x="485" y="651"/>
      <point x="421" y="716"/>
      <point x="333" y="752"/>
      <point x="281" y="752" type="qcurve"/>
      <point x="225" y="752"/>
      <point x="134" y="714"/>
      <point x="70" y="645"/>
      <point x="36" y="546"/>
      <point x="36" y="484" type="qcurve"/>
      <point x="167" y="484" type="line"/>
      <point x="167" y="550"/>
      <point x="230" y="630"/>
      <point x="282" y="630" type="qcurve"/>
      <point x="305" y="630"/>
      <point x="344" y="612"/>
      <point x="373" y="581"/>
      <point x="389" y="539"/>
      <point x="389" y="514" type="qcurve"/>
      <point x="389" y="496"/>
      <point x="379" y="461"/>
      <point x="359" y="426"/>
      <point x="327" y="387"/>
      <point x="304" y="366" type="qcurve"/>
      <point x="41" y="117" type="line"/>
    </contour>
  </outline>
</glyph>
<glyph name="three" format="2">
  <advance width="560"/>
  <unicode hex="0033"/>
  <outline>
    <contour>
      <point x="22" y="224" type="line"/>
      <point x="25" y="172"/>
      <point x="66" y="85"/>
      <point x="133" y="22"/>
      <point x="224" y="-13"/>
      <point x="277" y="-13" type="qcurve"/>
      <point x="331" y="-13"/>
      <point x="422" y="24"/>
      <point x="488" y="90"/>
      <point x="525" y="181"/>
      <point x="525" y="235" type="qcurve"/>
      <point x="525" y="305"/>
      <point x="468" y="400"/>
      <point x="410" y="426" type="qcurve"/>
      <point x="442" y="449"/>
      <point x="472" y="510"/>
      <point x="472" y="553" type="qcurve"/>
      <point x="472" y="596"/>
      <point x="442" y="669"/>
      <point x="389" y="722"/>
      <point x="316" y="752"/>
      <point x="273" y="752" type="qcurve"/>
      <point x="189" y="752"/>
      <point x="84" y="651"/>
      <point x="77" y="563" type="qcurve"/>
      <point x="212" y="563" type="line"/>
      <point x="217" y="598"/>
      <point x="246" y="630"/>
      <point x="274" y="630" type="qcurve"/>
      <point x="303" y="630"/>
      <point x="339" y="591"/>
      <point x="339" y="560" type="qcurve"/>
      <point x="339" y="523"/>
      <point x="286" y="484"/>
      <point x="236" y="484" type="qcurve"/>
      <point x="225" y="484" type="line"/>
      <point x="225" y="356" type="line"/>
      <point x="247" y="356" type="line"/>
      <point x="314" y="356"/>
      <point x="392" y="289"/>
      <point x="392" y="232" type="qcurve"/>
      <point x="392" y="205"/>
      <point x="375" y="160"/>
      <point x="344" y="127"/>
      <point x="301" y="109"/>
      <point x="276" y="109" type="qcurve"/>
      <point x="227" y="109"/>
      <point x="163" y="171"/>
      <point x="156" y="224" type="qcurve"/>
    </contour>
  </outline>
</glyph>
<glyph name="four" format="2">
  <advance width="560"/>
  <unicode hex="0034"/>
  <outline>
    <contour>
      <point x="10" y="111" type="line"/>
      <point x="329" y="111" type="line"/>
      <point x="329" y="0" type="line"/>
      <point x="462" y="0" type="line"/>
      <point x="462" y="111" type="line"/>
      <point x="540" y="111" type="line"/>
      <point x="540" y="230" type="line"/>
      <point x="462" y="230" type="line"/>
      <point x="462" y="739" type="line"/>
      <point x="350" y="739" type="line"/>
      <point x="10" y="219" type="line"/>
    </contour>
    <contour>
      <point x="145" y="230" type="line"/>
      <point x="329" y="515" type="line"/>
      <point x="329" y="230" type="line"/>
    </contour>
  </outline>
</glyph>
<glyph name="five" format="2">
  <advance width="560"/>
  <unicode hex="0035"/>
  <outline>
    <contour>
      <point x="21" y="221" type="line"/>
      <point x="24" y="171"/>
      <point x="66" y="86"/>
      <point x="135" y="23"/>
      <point x="226" y="-13"/>
      <point x="278" y="-13" type="qcurve"/>
      <point x="332" y="-13"/>
      <point x="424" y="26"/>
      <point x="491" y="96"/>
      <point x="529" y="191"/>
      <point x="529" y="247" type="qcurve"/>
      <point x="529" y="301"/>
      <point x="494" y="394"/>
      <point x="431" y="461"/>
      <point x="346" y="499"/>
      <point x="295" y="499" type="qcurve"/>
      <point x="269" y="499"/>
      <point x="229" y="490"/>
      <point x="200" y="478" type="qcurve"/>
      <point x="224" y="614" type="line"/>
      <point x="458" y="614" type="line"/>
      <point x="458" y="739" type="line"/>
      <point x="124" y="739" type="line"/>
      <point x="55" y="353" type="line"/>
      <point x="173" y="321" type="line"/>
      <point x="198" y="352"/>
      <point x="244" y="377"/>
      <point x="276" y="377" type="qcurve"/>
      <point x="302" y="377"/>
      <point x="346" y="357"/>
      <point x="378" y="322"/>
      <point x="396" y="273"/>
      <point x="396" y="245" type="qcurve"/>
      <point x="396" y="215"/>
      <point x="378" y="165"/>
      <point x="346" y="129"/>
      <point x="301" y="109"/>
      <point x="274" y="109" type="qcurve"/>
      <point x="250" y="109"/>
      <point x="211" y="124"/>
      <point x="180" y="152"/>
      <point x="159" y="194"/>
      <point x="154" y="221" type="qcurve"/>
    </contour>
  </outline>
</glyph>
<glyph name="six" format="2">
  <advance width="560"/>
  <unicode hex="0036"/>
  <outline>
    <contour>
      <point x="290" y="739" type="line"/>
      <point x="97" y="449" type="line"/>
      <point x="77" y="419"/>
      <point x="49" y="367"/>
      <point x="32" y="318"/>
      <point x="24" y="269"/>
      <point x="24" y="242" type="qcurve"/>
      <point x="24" y="187"/>
      <point x="63" y="93"/>
      <point x="132" y="25"/>
      <point x="227" y="-13"/>
      <point x="283" y="-13" type="qcurve"/>
      <point x="338" y="-13"/>
      <point x="431" y="26"/>
      <point x="499" y="97"/>
      <point x="536" y="194"/>
      <point x="536" y="252" type="qcurve"/>
      <point x="536" y="303"/>
      <point x="506" y="389"/>
      <point x="451" y="451"/>
      <point x="376" y="486"/>
      <point x="332" y="486" type="qcurve"/>
      <point x="314" y="486"/>
      <point x="289" y="482"/>
      <point x="272" y="476" type="qcurve"/>
      <point x="449" y="739" type="line"/>
    </contour>
    <contour>
      <point x="284" y="109" type="qcurve"/>
      <point x="256" y="109"/>
      <point x="209" y="128"/>
      <point x="176" y="163"/>
      <point x="157" y="210"/>
      <point x="157" y="239" type="qcurve"/>
      <point x="157" y="268"/>
      <point x="175" y="316"/>
      <point x="207" y="350"/>
      <point x="251" y="370"/>
      <point x="277" y="370" type="qcurve"/>
      <point x="305" y="370"/>
      <point x="351" y="351"/>
      <point x="385" y="316"/>
      <point x="403" y="268"/>
      <point x="403" y="239" type="qcurve"/>
      <point x="403" y="210"/>
      <point x="386" y="162"/>
      <point x="354" y="128"/>
      <point x="310" y="109"/>
    </contour>
  </outline>
</glyph>
<glyph name="eight" format="2">
  <advance width="560"/>
  <unicode hex="0038"/>
  <outline>
    <contour>
      <point x="34" y="231" type="qcurve"/>
      <point x="34" y="179"/>
      <point x="72" y="90"/>
      <point x="138" y="24"/>
      <point x="229" y="-13"/>
      <point x="281" y="-13" type="qcurve"/>
      <point x="334" y="-13"/>
      <point x="423" y="24"/>
      <point x="489" y="90"/>
      <point x="526" y="180"/>
      <point x="526" y="232" type="qcurve"/>
      <point x="526" y="295"/>
      <point x="478" y="377"/>
      <point x="422" y="411" type="qcurve"/>
      <point x="454" y="436"/>
      <point x="484" y="504"/>
      <point x="484" y="551" type="qcurve"/>
      <point x="484" y="594"/>
      <point x="453" y="668"/>
      <point x="399" y="722"/>
      <point x="325" y="752"/>
      <point x="282" y="752" type="qcurve"/>
      <point x="240" y="752"/>
      <point x="166" y="720"/>
      <point x="111" y="665"/>
      <point x="79" y="591"/>
      <point x="79" y="549" type="qcurve"/>
      <point x="79" y="507"/>
      <point x="105" y="448"/>
      <point x="140" y="411" type="qcurve"/>
      <point x="86" y="381"/>
      <point x="34" y="293"/>
    </contour>
    <contour>
      <point x="282" y="469" type="qcurve"/>
      <point x="266" y="469"/>
      <point x="238" y="481"/>
      <point x="218" y="503"/>
      <point x="206" y="532"/>
      <point x="206" y="549" type="qcurve"/>
      <point x="206" y="583"/>
      <point x="249" y="630"/>
      <point x="281" y="630" type="qcurve"/>
      <point x="314" y="630"/>
      <point x="357" y="585"/>
      <point x="357" y="551" type="qcurve"/>
      <point x="357" y="534"/>
      <point x="345" y="504"/>
      <point x="325" y="482"/>
      <point x="298" y="469"/>
    </contour>
    <contour>
      <point x="167" y="225" type="qcurve"/>
      <point x="167" y="249"/>
      <point x="185" y="291"/>
      <point x="215" y="323"/>
      <point x="256" y="341"/>
      <point x="279" y="341" type="qcurve"/>
      <point x="303" y="341"/>
      <point x="345" y="323"/>
      <point x="375" y="292"/>
      <point x="393" y="250"/>
      <point x="393" y="226" type="qcurve"/>
      <point x="393" y="201"/>
      <point x="376" y="158"/>
      <point x="346" y="127"/>
      <point x="306" y="109"/>
      <point x="282" y="109" type="qcurve"/>
      <point x="258" y="109"/>
      <point x="216" y="127"/>
      <point x="185" y="158"/>
      <point x="167" y="201"/>
    </contour>
  </outline>
</glyph>
<glyph name="nine" format="2">
  <advance width="560"/>
  <unicode hex="0039"/>
  <outline>
    <contour>
      <point x="110" y="0" type="line"/>
      <point x="269" y="0" type="line"/>
      <point x="462" y="290" type="line"/>
      <point x="482" y="320"/>
      <point x="510" y="372"/>
      <point x="527" y="421"/>
      <point x="535" y="470"/>
      <point x="535" y="496" type="qcurve"/>
      <point x="535" y="551"/>
      <point x="496" y="645"/>
      <point x="427" y="713"/>
      <point x="332" y="752"/>
      <point x="276" y="752" type="qcurve"/>
      <point x="221" y="752"/>
      <point x="129" y="713"/>
      <point x="62" y="643"/>
      <point x="25" y="545"/>
      <point x="25" y="487" type="qcurve"/>
      <point x="25" y="437"/>
      <point x="56" y="350"/>
      <point x="110" y="287"/>
      <point x="185" y="251"/>
      <point x="228" y="251" type="qcurve"/>
      <point x="245" y="251"/>
      <point x="269" y="256"/>
      <point x="288" y="263" type="qcurve"/>
    </contour>
    <contour>
      <point x="281" y="369" type="qcurve"/>
      <point x="254" y="369"/>
      <point x="209" y="388"/>
      <point x="176" y="423"/>
      <point x="158" y="471"/>
      <point x="158" y="500" type="qcurve"/>
      <point x="158" y="529"/>
      <point x="175" y="576"/>
      <point x="206" y="611"/>
      <point x="249" y="630"/>
      <point x="274" y="630" type="qcurve"/>
      <point x="302" y="630"/>
      <point x="350" y="611"/>
      <point x="383" y="577"/>
      <point x="402" y="529"/>
      <point x="402" y="500" type="qcurve"/>
      <point x="402" y="471"/>
      <point x="384" y="423"/>
      <point x="352" y="388"/>
      <point x="307" y="369"/>
    </contour>
  </outline>
</glyph>
<glyph name="colon" format="2">
  <advance width="281"/>
  <unicode hex="003A"/>
  <outline>
    <contour>
      <point x="74" y="0" type="line"/>
      <point x="207" y="0" type="line"/>
      <point x="207" y="128" type="line"/>
      <point x="74" y="128" type="line"/>
    </contour>
    <contour>
      <point x="74" y="369" type="line"/>
      <point x="207" y="369" type="line"/>
      <point x="207" y="502" type="line"/>
      <point x="74" y="502" type="line"/>
    </contour>
  </outline>
</glyph>
<glyph name="semicolon" format="2">
  <advance width="281"/>
  <unicode hex="003B"/>
  <outline>
    <contour>
      <point x="74" y="0" type="line"/>
      <point x="133" y="0" type="line"/>
      <point x="133" y="-15" type="line"/>
      <point x="133" y="-41"/>
      <point x="106" y="-67"/>
      <point x="74" y="-73" type="qcurve"/>
      <point x="74" y="-140" type="line"/>
      <point x="105" y="-140"/>
      <point x="154" y="-122"/>
      <point x="189" y="-87"/>
      <point x="207" y="-38"/>
      <point x="207" y="-7" type="qcurve"/>
      <point x="207" y="128" type="line"/>
      <point x="74" y="128" type="line"/>
    </contour>
    <contour>
      <point x="74" y="369" type="line"/>
      <point x="207" y="369" type="line"/>
      <point x="207" y="502" type="line"/>
      <point x="74" y="502" type="line"/>
    </contour>
  </outline>
</glyph>
<glyph name="equal" format="2">
  <advance width="600"/>
  <unicode hex="003D"/>
  <outline>
    <contour>
      <point x="48" y="405" type="line"/>
      <point x="552" y="405" type="line"/>
      <point x="552" y="523" type="line"/>
      <point x="48" y="523" type="line"/>
    </contour>
    <contour>
      <point x="48" y="210" type="line"/>
      <point x="552" y="210" type="line"/>
      <point x="552" y="328" type="line"/>
      <point x="48" y="328" type="line"/>
    </contour>
  </outline>
</glyph>
<glyph name="question" format="2">
  <advance width="519"/>
  <unicode hex="003F"/>
  <outline>
    <contour>
      <point x="317" y="187" type="line"/>
      <point x="317" y="219"/>
      <point x="322" y="262"/>
      <point x="336" y="296"/>
      <point x="361" y="326"/>
      <point x="382" y="344" type="qcurve"/>
      <point x="411" y="370"/>
      <point x="450" y="413"/>
      <point x="474" y="455"/>
      <point x="484" y="498"/>
      <point x="484" y="523" type="qcurve"/>
      <point x="484" y="572"/>
      <point x="450" y="656"/>
      <point x="390" y="717"/>
      <point x="307" y="752"/>
      <point x="259" y="752" type="qcurve"/>
      <point x="210" y="752"/>
      <point x="130" y="720"/>
      <point x="71" y="659"/>
      <point x="35" y="574"/>
      <point x="31" y="520" type="qcurve"/>
      <point x="164" y="520" type="line"/>
      <point x="171" y="572"/>
      <point x="215" y="620"/>
      <point x="256" y="620" type="qcurve"/>
      <point x="277" y="620"/>
      <point x="312" y="606"/>
      <point x="337" y="581"/>
      <point x="351" y="547"/>
      <point x="351" y="527" type="qcurve"/>
      <point x="351" y="515"/>
      <point x="345" y="493"/>
      <point x="334" y="471"/>
      <point x="317" y="451"/>
      <point x="306" y="442" type="qcurve"/>
      <point x="269" y="412"/>
      <point x="222" y="360"/>
      <point x="194" y="303"/>
      <point x="184" y="234"/>
      <point x="184" y="187" type="qcurve"/>
    </contour>
    <contour>
      <point x="184" y="0" type="line"/>
      <point x="317" y="0" type="line"/>
      <point x="317" y="128" type="line"/>
      <point x="184" y="128" type="line"/>
    </contour>
  </outline>
</glyph>
<glyph name="at" format="2">
  <advance width="878"/>
  <unicode hex="0040"/>
  <outline>
    <contour>
      <point x="615" y="107" type="line"/>
      <point x="581" y="82"/>
      <point x="511" y="60"/>
      <point x="466" y="60" type="qcurve"/>
      <point x="394" y="60"/>
      <point x="274" y="107"/>
      <point x="187" y="190"/>
      <point x="139" y="306"/>
      <point x="139" y="375" type="qcurve"/>
      <point x="139" y="444"/>
      <point x="187" y="561"/>
      <point x="271" y="646"/>
      <point x="387" y="694"/>
      <point x="455" y="694" type="qcurve"/>
      <point x="518" y="694"/>
      <point x="622" y="653"/>
      <point x="696" y="579"/>
      <point x="737" y="476"/>
      <point x="737" y="413" type="qcurve"/>
      <point x="737" y="380"/>
      <point x="723" y="324"/>
      <point x="697" y="283"/>
      <point x="661" y="261"/>
      <point x="640" y="261" type="qcurve"/>
      <point x="624" y="261"/>
      <point x="608" y="275"/>
      <point x="608" y="289" type="qcurve"/>
      <point x="608" y="302"/>
      <point x="609" y="326"/>
      <point x="611" y="334" type="qcurve"/>
      <point x="645" y="573" type="line"/>
      <point x="540" y="573" type="line"/>
      <point x="533" y="519" type="line"/>
      <point x="508" y="551"/>
      <point x="456" y="577"/>
      <point x="415" y="577" type="qcurve"/>
      <point x="372" y="577"/>
      <point x="298" y="542"/>
      <point x="244" y="479"/>
      <point x="213" y="394"/>
      <point x="213" y="344" type="qcurve"/>
      <point x="213" y="256"/>
      <point x="302" y="154"/>
      <point x="378" y="154" type="qcurve"/>
      <point x="419" y="154"/>
      <point x="489" y="186"/>
      <point x="507" y="213" type="qcurve"/>
      <point x="517" y="186"/>
      <point x="578" y="154"/>
      <point x="618" y="154" type="qcurve"/>
      <point x="673" y="154"/>
      <point x="759" y="187"/>
      <point x="818" y="251"/>
      <point x="850" y="342"/>
      <point x="850" y="399" type="qcurve"/>
      <point x="850" y="491"/>
      <point x="795" y="639"/>
      <point x="692" y="742"/>
      <point x="545" y="798"/>
      <point x="453" y="798" type="qcurve"/>
      <point x="362" y="798"/>
      <point x="206" y="734"/>
      <point x="92" y="622"/>
      <point x="28" y="468"/>
      <point x="28" y="377" type="qcurve"/>
      <point x="28" y="285"/>
      <point x="93" y="130"/>
      <point x="209" y="18"/>
      <point x="370" y="-44"/>
      <point x="467" y="-44" type="qcurve"/>
      <point x="535" y="-44"/>
      <point x="642" y="-11"/>
      <point x="680" y="21" type="qcurve"/>
    </contour>
    <contour>
      <point x="412" y="260" type="qcurve"/>
      <point x="375" y="260"/>
      <point x="333" y="311"/>
      <point x="333" y="355" type="qcurve"/>
      <point x="333" y="377"/>
      <point x="349" y="417"/>
      <point x="377" y="447"/>
      <point x="413" y="465"/>
      <point x="434" y="465" type="qcurve"/>
      <point x="471" y="465"/>
      <point x="511" y="418"/>
      <point x="511" y="374" type="qcurve"/>
      <point x="511" y="349"/>
      <point x="496" y="307"/>
      <point x="470" y="277"/>
      <point x="434" y="260"/>
    </contour>
  </outline>
</glyph>
<glyph name="B" format="2">
  <advance width="587"/>
  <unicode hex="0042"/>
  <outline>
    <contour>
      <point x="71" y="0" type="line"/>
      <point x="268" y="0" type="line"/>
      <point x="404" y="0"/>
      <point x="551" y="114"/>
      <point x="551" y="220" type="qcurve"/>
      <point x="551" y="290"/>
      <point x="492" y="375"/>
      <point x="425" y="403" type="qcurve"/>
      <point x="470" y="427"/>
      <point x="507" y="490"/>
      <point x="507" y="542" type="qcurve"/>
      <point x="507" y="644"/>
      <point x="369" y="739"/>
      <point x="223" y="739" type="qcurve"/>
      <point x="71" y="739" type="line"/>
    </contour>
    <contour>
      <point x="208" y="131" type="line"/>
      <point x="208" y="320" type="line"/>
      <point x="317" y="320" type="line"/>
      <point x="361" y="320"/>
      <point x="413" y="268"/>
      <point x="413" y="224" type="qcurve"/>
      <point x="413" y="175"/>
      <point x="348" y="131"/>
      <point x="276" y="131" type="qcurve"/>
    </contour>
    <contour>
      <point x="208" y="454" type="line"/>
      <point x="208" y="605" type="line"/>
      <point x="264" y="605" type="line"/>
      <point x="318" y="605"/>
      <point x="370" y="568"/>
      <point x="370" y="530" type="qcurve"/>
      <point x="370" y="494"/>
      <point x="331" y="454"/>
      <point x="296" y="454" type="qcurve"/>
    </contour>
  </outline>
</glyph>
<glyph name="C" format="2">
  <advance width="802"/>
  <unicode hex="0043"/>
  <outline>
    <contour>
      <point x="605" y="206" type="line"/>
      <point x="559" y="159"/>
      <point x="476" y="119"/>
      <point x="422" y="119" type="qcurve"/>
      <point x="371" y="119"/>
      <point x="281" y="159"/>
      <point x="213" y="227"/>
      <point x="174" y="319"/>
      <point x="174" y="371" type="qcurve"/>
      <point x="174" y="424"/>
      <point x="211" y="515"/>
      <point x="277" y="582"/>
      <point x="367" y="620"/>
      <point x="419" y="620" type="qcurve"/>
      <point x="484" y="620"/>
      <point x="575" y="576"/>
      <point x="613" y="527" type="qcurve"/>
      <point x="766" y="527" type="line"/>
      <point x="742" y="580"/>
      <point x="671" y="664"/>
      <point x="581" y="722"/>
      <point x="475" y="752"/>
      <point x="416" y="752" type="qcurve"/>
      <point x="338" y="752"/>
      <point x="199" y="692"/>
      <point x="96" y="589"/>
      <point x="36" y="450"/>
      <point x="36" y="372" type="qcurve"/>
      <point x="36" y="292"/>
      <point x="97" y="151"/>
      <point x="202" y="47"/>
      <point x="344" y="-13"/>
      <point x="425" y="-13" type="qcurve"/>
      <point x="482" y="-13"/>
      <point x="587" y="17"/>
      <point x="675" y="74"/>
      <point x="744" y="155"/>
      <point x="766" y="206" type="qcurve"/>
    </contour>
  </outline>
</glyph>
<glyph name="D" format="2">
  <advance width="699"/>
  <unicode hex="0044"/>
  <outline>
    <contour>
      <point x="71" y="0" type="line"/>
      <point x="243" y="0" type="line"/>
      <point x="325" y="0"/>
      <point x="432" y="17"/>
      <point x="476" y="38" type="qcurve"/>
      <point x="565" y="80"/>
      <point x="663" y="253"/>
      <point x="663" y="368" type="qcurve"/>
      <point x="663" y="471"/>
      <point x="584" y="633"/>
      <point x="510" y="681" type="qcurve"/>
      <point x="488" y="696"/>
      <point x="432" y="717"/>
      <point x="364" y="732"/>
      <point x="285" y="739"/>
      <point x="240" y="739" type="qcurve"/>
      <point x="71" y="739" type="line"/>
    </contour>
    <contour>
      <point x="208" y="131" type="line"/>
      <point x="208" y="608" type="line"/>
      <point x="235" y="608" type="line"/>
      <point x="300" y="608"/>
      <point x="376" y="596"/>
      <point x="407" y="581" type="qcurve"/>
      <point x="462" y="554"/>
      <point x="525" y="441"/>
      <point x="525" y="368" type="qcurve"/>
      <point x="525" y="300"/>
      <point x="468" y="191"/>
      <point x="418" y="164" type="qcurve"/>
      <point x="387" y="147"/>
      <point x="298" y="131"/>
      <point x="238" y="131" type="qcurve"/>
    </contour>
  </outline>
</glyph>
<glyph name="F" format="2">
  <advance width="495"/>
  <unicode hex="0046"/>
  <outline>
    <contour>
      <point x="71" y="0" type="line"/>
      <point x="208" y="0" type="line"/>
      <point x="208" y="303" type="line"/>
      <point x="436" y="303" type="line"/>
      <point x="436" y="434" type="line"/>
      <point x="208" y="434" type="line"/>
      <point x="208" y="608" type="line"/>
      <point x="447" y="608" type="line"/>
      <point x="447" y="739" type="line"/>
      <point x="71" y="739" type="line"/>
    </contour>
  </outline>
</glyph>
<glyph name="G" format="2">
  <advance width="857"/>
  <unicode hex="0047"/>
  <outline>
    <contour>
      <point x="341" y="249" type="line"/>
      <point x="647" y="249" type="line"/>
      <point x="632" y="218"/>
      <point x="588" y="170"/>
      <point x="532" y="136"/>
      <point x="467" y="119"/>
      <point x="430" y="119" type="qcurve"/>
      <point x="376" y="119"/>
      <point x="282" y="157"/>
      <point x="213" y="224"/>
      <point x="174" y="316"/>
      <point x="174" y="369" type="qcurve"/>
      <point x="174" y="423"/>
      <point x="211" y="515"/>
      <point x="278" y="582"/>
      <point x="368" y="620"/>
      <point x="422" y="620" type="qcurve"/>
      <point x="487" y="620"/>
      <point x="590" y="570"/>
      <point x="625" y="522" type="qcurve"/>
      <point x="786" y="522" type="line"/>
      <point x="768" y="572"/>
      <point x="696" y="656"/>
      <point x="600" y="718"/>
      <point x="486" y="752"/>
      <point x="425" y="752" type="qcurve"/>
      <point x="344" y="752"/>
      <point x="202" y="693"/>
      <point x="96" y="590"/>
      <point x="36" y="451"/>
      <point x="36" y="371" type="qcurve"/>
      <point x="36" y="290"/>
      <point x="98" y="149"/>
      <point x="206" y="46"/>
      <point x="353" y="-13"/>
      <point x="438" y="-13" type="qcurve"/>
      <point x="522" y="-13"/>
      <point x="663" y="45"/>
      <point x="766" y="149"/>
      <point x="824" y="292"/>
      <point x="824" y="377" type="qcurve"/>
      <point x="341" y="377" type="line"/>
    </contour>
  </outline>
</glyph>
<glyph name="H" format="2">
  <advance width="680"/>
  <unicode hex="0048"/>
  <outline>
    <contour>
      <point x="71" y="0" type="line"/>
      <point x="208" y="0" type="line"/>
      <point x="208" y="310" type="line"/>
      <point x="472" y="310" type="line"/>
      <point x="472" y="0" type="line"/>
      <point x="609" y="0" type="line"/>
      <point x="609" y="739" type="line"/>
      <point x="472" y="739" type="line"/>
      <point x="472" y="441" type="line"/>
      <point x="208" y="441" type="line"/>
      <point x="208" y="739" type="line"/>
      <point x="71" y="739" type="line"/>
    </contour>
  </outline>
</glyph>
<glyph name="I" format="2">
  <advance width="279"/>
  <unicode hex="0049"/>
  <outline>
    <contour>
      <point x="71" y="0" type="line"/>
      <point x="208" y="0" type="line"/>
      <point x="208" y="739" type="line"/>
      <point x="71" y="739" type="line"/>
    </contour>
  </outline>
</glyph>
<glyph name="J" format="2">
  <advance width="494"/>
  <unicode hex="004A"/>
  <outline>
    <contour>
      <point x="18" y="175" type="line"/>
      <point x="26" y="87"/>
      <point x="135" y="-13"/>
      <point x="223" y="-13" type="qcurve"/>
      <point x="316" y="-13"/>
      <point x="423" y="107"/>
      <point x="423" y="212" type="qcurve"/>
      <point x="423" y="739" type="line"/>
      <point x="286" y="739" type="line"/>
      <point x="286" y="216" type="line"/>
      <point x="286" y="167"/>
      <point x="253" y="119"/>
      <point x="220" y="119" type="qcurve"/>
      <point x="194" y="119"/>
      <point x="162" y="147"/>
      <point x="155" y="175" type="qcurve"/>
    </contour>
  </outline>
</glyph>
<glyph name="K" format="2">
  <advance width="614"/>
  <unicode hex="004B"/>
  <outline>
    <contour>
      <point x="71" y="0" type="line"/>
      <point x="208" y="0" type="line"/>
      <point x="208" y="236" type="line"/>
      <point x="241" y="279" type="line"/>
      <point x="437" y="0" type="line"/>
      <point x="602" y="0" type="line"/>
      <point x="324" y="376" type="line"/>
      <point x="602" y="739" type="line"/>
      <point x="437" y="739" type="line"/>
      <point x="208" y="420" type="line"/>
      <point x="208" y="739" type="line"/>
      <point x="71" y="739" type="line"/>
    </contour>
  </outline>
</glyph>
<glyph name="L" format="2">
  <advance width="454"/>
  <unicode hex="004C"/>
  <outline>
    <contour>
      <point x="71" y="0" type="line"/>
      <point x="434" y="0" type="line"/>
      <point x="434" y="131" type="line"/>
      <point x="208" y="131" type="line"/>
      <point x="208" y="739" type="line"/>
      <point x="71" y="739" type="line"/>
    </contour>
  </outline>
</glyph>
<glyph name="N" format="2">
  <advance width="741"/>
  <unicode hex="004E"/>
  <outline>
    <contour>
      <point x="71" y="0" type="line"/>
      <point x="208" y="0" type="line"/>
      <point x="208" y="537" type="line"/>
      <point x="517" y="0" type="line"/>
      <point x="670" y="0" type="line"/>
      <point x="670" y="739" type="line"/>
      <point x="533" y="739" type="line"/>
      <point x="533" y="201" type="line"/>
      <point x="227" y="739" type="line"/>
      <point x="71" y="739" type="line"/>
    </contour>
  </outline>
</glyph>
<glyph name="P" format="2">
  <advance width="573"/>
  <unicode hex="0050"/>
  <outline>
    <contour>
      <point x="71" y="0" type="line"/>
      <point x="208" y="0" type="line"/>
      <point x="208" y="281" type="line"/>
      <point x="252" y="281" type="line"/>
      <point x="290" y="281"/>
      <point x="347" y="284"/>
      <point x="391" y="291"/>
      <point x="425" y="303"/>
      <point x="440" y="311" type="qcurve"/>
      <point x="488" y="338"/>
      <point x="543" y="444"/>
      <point x="543" y="511" type="qcurve"/>
      <point x="543" y="574"/>
      <point x="494" y="672"/>
      <point x="449" y="701" type="qcurve"/>
      <point x="416" y="722"/>
      <point x="329" y="739"/>
      <point x="254" y="739" type="qcurve"/>
      <point x="71" y="739" type="line"/>
    </contour>
    <contour>
      <point x="208" y="412" type="line"/>
      <point x="208" y="608" type="line"/>
      <point x="254" y="608" type="line"/>
      <point x="287" y="608"/>
      <point x="324" y="605"/>
      <point x="341" y="601" type="qcurve"/>
      <point x="371" y="593"/>
      <point x="405" y="544"/>
      <point x="405" y="508" type="qcurve"/>
      <point x="405" y="476"/>
      <point x="371" y="430"/>
      <point x="342" y="422" type="qcurve"/>
      <point x="326" y="417"/>
      <point x="280" y="412"/>
      <point x="248" y="412" type="qcurve"/>
    </contour>
  </outline>
</glyph>
<glyph name="Q" format="2">
  <advance width="864"/>
  <unicode hex="0051"/>
  <outline>
    <contour>
      <point x="36" y="370" type="qcurve"/>
      <point x="36" y="290"/>
      <point x="98" y="150"/>
      <point x="207" y="47"/>
      <point x="353" y="-13"/>
      <point x="437" y="-13" type="qcurve"/>
      <point x="493" y="-13"/>
      <point x="601" y="18"/>
      <point x="641" y="45" type="qcurve"/>
      <point x="689" y="12"/>
      <point x="768" y="-15"/>
      <point x="815" y="-15" type="qcurve"/>
      <point x="818" y="-15"/>
      <point x="828" y="-15"/>
      <point x="834" y="-14" type="qcurve"/>
      <point x="834" y="110" type="line"/>
      <point x="827" y="108"/>
      <point x="813" y="107"/>
      <point x="806" y="107" type="qcurve"/>
      <point x="788" y="107"/>
      <point x="756" y="117"/>
      <point x="732" y="129" type="qcurve"/>
      <point x="778" y="177"/>
      <point x="821" y="293"/>
      <point x="821" y="366" type="qcurve"/>
      <point x="821" y="449"/>
      <point x="762" y="590"/>
      <point x="657" y="694"/>
      <point x="513" y="752"/>
      <point x="429" y="752" type="qcurve"/>
      <point x="346" y="752"/>
      <point x="203" y="693"/>
      <point x="97" y="590"/>
      <point x="36" y="451"/>
    </contour>
    <contour>
      <point x="217" y="227" type="qcurve"/>
      <point x="242" y="232"/>
      <point x="270" y="235"/>
      <point x="288" y="235" type="qcurve"/>
      <point x="319" y="235"/>
      <point x="376" y="224"/>
      <point x="434" y="200"/>
      <point x="493" y="164"/>
      <point x="525" y="138" type="qcurve"/>
      <point x="502" y="127"/>
      <point x="465" y="119"/>
      <point x="436" y="119" type="qcurve"/>
      <point x="401" y="119"/>
      <point x="340" y="132"/>
      <point x="286" y="159"/>
      <point x="238" y="199"/>
    </contour>
    <contour>
      <point x="175" y="334" type="qcurve"/>
      <point x="174" y="344"/>
      <point x="173" y="358"/>
      <point x="173" y="368" type="qcurve"/>
      <point x="173" y="422"/>
      <point x="212" y="514"/>
      <point x="280" y="582"/>
      <point x="373" y="620"/>
      <point x="428" y="620" type="qcurve"/>
      <point x="483" y="620"/>
      <point x="576" y="581"/>
      <point x="644" y="513"/>
      <point x="683" y="419"/>
      <point x="683" y="364" type="qcurve"/>
      <point x="683" y="314"/>
      <point x="653" y="235"/>
      <point x="623" y="204" type="qcurve"/>
      <point x="589" y="237"/>
      <point x="510" y="290"/>
      <point x="423" y="327"/>
      <point x="333" y="347"/>
      <point x="289" y="347" type="qcurve"/>
      <point x="255" y="347"/>
      <point x="202" y="341"/>
    </contour>
  </outline>
</glyph>
<glyph name="R" format="2">
  <advance width="604"/>
  <unicode hex="0052"/>
  <outline>
    <contour>
      <point x="71" y="0" type="line"/>
      <point x="208" y="0" type="line"/>
      <point x="208" y="608" type="line"/>
      <point x="269" y="608" type="line"/>
      <point x="353" y="608"/>
      <point x="426" y="557"/>
      <point x="426" y="498" type="qcurve"/>
      <point x="426" y="439"/>
      <point x="355" y="386"/>
      <point x="275" y="386" type="qcurve"/>
      <point x="137" y="386" type="line"/>
      <point x="402" y="0" type="line"/>
      <point x="571" y="0" type="line"/>
      <point x="371" y="273" type="line"/>
      <point x="468" y="298"/>
      <point x="564" y="412"/>
      <point x="564" y="502" type="qcurve"/>
      <point x="564" y="619"/>
      <point x="422" y="739"/>
      <point x="284" y="739" type="qcurve"/>
      <point x="71" y="739" type="line"/>
    </contour>
  </outline>
</glyph>
<glyph name="T" format="2">
  <advance width="425"/>
  <unicode hex="0054"/>
  <outline>
    <contour>
      <point x="144" y="0" type="line"/>
      <point x="281" y="0" type="line"/>
      <point x="281" y="608" type="line"/>
      <point x="418" y="608" type="line"/>
      <point x="418" y="739" type="line"/>
      <point x="7" y="739" type="line"/>
      <point x="7" y="608" type="line"/>
      <point x="144" y="608" type="line"/>
    </contour>
  </outline>
</glyph>
<glyph name="U" format="2">
  <advance width="641"/>
  <unicode hex="0055"/>
  <outline>
    <contour>
      <point x="71" y="739" type="line"/>
      <point x="71" y="271" type="line"/>
      <point x="71" y="205"/>
      <point x="105" y="99"/>
      <point x="169" y="26"/>
      <point x="262" y="-13"/>
      <point x="320" y="-13" type="qcurve"/>
      <point x="438" y="-13"/>
      <point x="570" y="137"/>
      <point x="570" y="271" type="qcurve"/>
      <point x="570" y="739" type="line"/>
      <point x="433" y="739" type="line"/>
      <point x="433" y="271" type="line"/>
      <point x="433" y="193"/>
      <point x="378" y="119"/>
      <point x="320" y="119" type="qcurve"/>
      <point x="263" y="119"/>
      <point x="208" y="193"/>
      <point x="208" y="271" type="qcurve"/>
      <point x="208" y="739" type="line"/>
    </contour>
  </outline>
</glyph>
<glyph name="V" format="2">
  <advance width="694"/>
  <unicode hex="0056"/>
  <outline>
    <contour>
      <point x="292" y="0" type="line"/>
      <point x="404" y="0" type="line"/>
      <point x="690" y="739" type="line"/>
      <point x="546" y="739" type="line"/>
      <point x="347" y="177" type="line"/>
      <point x="148" y="739" type="line"/>
      <point x="4" y="739" type="line"/>
    </contour>
  </outline>
</glyph>
<glyph name="W" format="2">
  <advance width="915"/>
  <unicode hex="0057"/>
  <outline>
    <contour>
      <point x="229" y="0" type="line"/>
      <point x="337" y="0" type="line"/>
      <point x="459" y="489" type="line"/>
      <point x="578" y="0" type="line"/>
      <point x="687" y="0" type="line"/>
      <point x="903" y="739" type="line"/>
      <point x="763" y="739" type="line"/>
      <point x="632" y="223" type="line"/>
      <point x="508" y="739" type="line"/>
      <point x="408" y="739" type="line"/>
      <point x="282" y="223" type="line"/>
      <point x="152" y="739" type="line"/>
      <point x="12" y="739" type="line"/>
    </contour>
  </outline>
</glyph>
<glyph name="X" format="2">
  <advance width="685"/>
  <unicode hex="0058"/>
  <outline>
    <contour>
      <point x="7" y="0" type="line"/>
      <point x="170" y="0" type="line"/>
      <point x="342" y="255" type="line"/>
      <point x="519" y="0" type="line"/>
      <point x="678" y="0" type="line"/>
      <point x="422" y="368" type="line"/>
      <point x="678" y="739" type="line"/>
      <point x="519" y="739" type="line"/>
      <point x="342" y="481" type="line"/>
      <point x="170" y="739" type="line"/>
      <point x="7" y="739" type="line"/>
      <point x="261" y="368" type="line"/>
    </contour>
  </outline>
</glyph>
<glyph name="Z" format="2">
  <advance width="522"/>
  <unicode hex="005A"/>
  <outline>
    <contour>
      <point x="30" y="0" type="line"/>
      <point x="492" y="0" type="line"/>
      <point x="492" y="131" type="line"/>
      <point x="195" y="131" type="line"/>
      <point x="473" y="616" type="line"/>
      <point x="473" y="739" type="line"/>
      <point x="45" y="739" type="line"/>
      <point x="45" y="608" type="line"/>
      <point x="310" y="608" type="line"/>
      <point x="30" y="116" type="line"/>
    </contour>
  </outline>
</glyph>
<glyph name="bracketleft" format="2">
  <advance width="313"/>
  <unicode hex="005B"/>
  <outline>
    <contour>
      <point x="276" y="10" type="line"/>
      <point x="254" y="19"/>
      <point x="222" y="45"/>
      <point x="202" y="82"/>
      <point x="193" y="132"/>
      <point x="193" y="164" type="qcurve"/>
      <point x="193" y="419" type="line"/>
      <point x="193" y="457"/>
      <point x="202" y="514"/>
      <point x="221" y="555"/>
      <point x="253" y="582"/>
      <point x="276" y="592" type="qcurve"/>
      <point x="276" y="739" type="line"/>
      <point x="164" y="707"/>
      <point x="58" y="564"/>
      <point x="58" y="446" type="qcurve"/>
      <point x="58" y="187" type="line"/>
      <point x="58" y="48"/>
      <point x="166" y="-113"/>
      <point x="276" y="-137" type="qcurve"/>
    </contour>
  </outline>
</glyph>
<glyph name="backslash" format="2">
  <advance width="481"/>
  <unicode hex="005C"/>
  <outline>
    <contour>
      <point x="356" y="0" type="line"/>
      <point x="450" y="0" type="line"/>
      <point x="125" y="739" type="line"/>
      <point x="31" y="739" type="line"/>
    </contour>
  </outline>
</glyph>
<glyph name="bracketright" format="2">
  <advance width="313"/>
  <unicode hex="005D"/>
  <outline>
    <contour>
      <point x="37" y="-137" type="line"/>
      <point x="150" y="-105"/>
      <point x="255" y="37"/>
      <point x="255" y="156" type="qcurve"/>
      <point x="255" y="415" type="line"/>
      <point x="255" y="554"/>
      <point x="147" y="715"/>
      <point x="37" y="739" type="qcurve"/>
      <point x="37" y="592" type="line"/>
      <point x="59" y="583"/>
      <point x="91" y="557"/>
      <point x="111" y="520"/>
      <point x="120" y="470"/>
      <point x="120" y="438" type="qcurve"/>
      <point x="120" y="183" type="line"/>
      <point x="120" y="145"/>
      <point x="111" y="88"/>
      <point x="92" y="47"/>
      <point x="60" y="20"/>
      <point x="37" y="10" type="qcurve"/>
    </contour>
  </outline>
</glyph>
<glyph name="asciicircum" format="2">
  <advance width="600"/>
  <unicode hex="005E"/>
  <outline>
    <contour>
      <point x="37" y="313" type="line"/>
      <point x="164" y="313" type="line"/>
      <point x="300" y="589" type="line"/>
      <point x="436" y="313" type="line"/>
      <point x="564" y="313" type="line"/>
      <point x="361" y="739" type="line"/>
      <point x="239" y="739" type="line"/>
    </contour>
  </outline>
</glyph>
<glyph name="b" format="2">
  <advance width="666"/>
  <unicode hex="0062"/>
  <outline>
    <contour>
      <point x="54" y="0" type="line"/>
      <point x="176" y="0" type="line"/>
      <point x="176" y="71" type="line"/>
      <point x="219" y="25"/>
      <point x="306" y="-13"/>
      <point x="368" y="-13" type="qcurve"/>
      <point x="427" y="-13"/>
      <point x="526" y="31"/>
      <point x="598" y="109"/>
      <point x="638" y="217"/>
      <point x="638" y="281" type="qcurve"/>
      <point x="638" y="344"/>
      <point x="596" y="451"/>
      <point x="521" y="530"/>
      <point x="419" y="574"/>
      <point x="359" y="574" type="qcurve"/>
      <point x="304" y="574"/>
      <point x="227" y="542"/>
      <point x="187" y="503" type="qcurve"/>
      <point x="187" y="739" type="line"/>
      <point x="54" y="739" type="line"/>
    </contour>
    <contour>
      <point x="343" y="109" type="qcurve"/>
      <point x="307" y="109"/>
      <point x="247" y="134"/>
      <point x="203" y="179"/>
      <point x="179" y="242"/>
      <point x="179" y="279" type="qcurve"/>
      <point x="179" y="317"/>
      <point x="203" y="380"/>
      <point x="245" y="426"/>
      <point x="303" y="452"/>
      <point x="338" y="452" type="qcurve"/>
      <point x="375" y="452"/>
      <point x="436" y="427"/>
      <point x="480" y="381"/>
      <point x="504" y="317"/>
      <point x="504" y="279" type="qcurve"/>
      <point x="504" y="241"/>
      <point x="480" y="179"/>
      <point x="438" y="134"/>
      <point x="379" y="109"/>
    </contour>
  </outline>
</glyph>
<glyph name="c" format="2">
  <advance width="625"/>
  <unicode hex="0063"/>
  <outline>
    <contour>
      <point x="449" y="182" type="line"/>
      <point x="424" y="144"/>
      <point x="365" y="109"/>
      <point x="323" y="109" type="qcurve"/>
      <point x="288" y="109"/>
      <point x="229" y="135"/>
      <point x="186" y="180"/>
      <point x="162" y="242"/>
      <point x="162" y="278" type="qcurve"/>
      <point x="162" y="315"/>
      <point x="185" y="376"/>
      <point x="227" y="420"/>
      <point x="285" y="445"/>
      <point x="320" y="445" type="qcurve"/>
      <point x="366" y="445"/>
      <point x="429" y="408"/>
      <point x="449" y="369" type="qcurve"/>
      <point x="599" y="369" type="line"/>
      <point x="566" y="463"/>
      <point x="420" y="567"/>
      <point x="320" y="567" type="qcurve"/>
      <point x="258" y="567"/>
      <point x="152" y="522"/>
      <point x="73" y="444"/>
      <point x="28" y="338"/>
      <point x="28" y="277" type="qcurve"/>
      <point x="28" y="217"/>
      <point x="74" y="111"/>
      <point x="155" y="32"/>
      <point x="262" y="-13"/>
      <point x="324" y="-13" type="qcurve"/>
      <point x="422" y="-13"/>
      <point x="564" y="88"/>
      <point x="599" y="182" type="qcurve"/>
    </contour>
  </outline>
</glyph>
<glyph name="d" format="2">
  <advance width="665"/>
  <unicode hex="0064"/>
  <outline>
    <contour>
      <point x="28" y="278" type="qcurve"/>
      <point x="28" y="216"/>
      <point x="71" y="110"/>
      <point x="145" y="32"/>
      <point x="247" y="-13"/>
      <point x="306" y="-13" type="qcurve"/>
      <point x="363" y="-13"/>
      <point x="448" y="27"/>
      <point x="489" y="72" type="qcurve"/>
      <point x="489" y="0" type="line"/>
      <point x="611" y="0" type="line"/>
      <point x="611" y="739" type="line"/>
      <point x="478" y="739" type="line"/>
      <point x="478" y="505" type="line"/>
      <point x="448" y="538"/>
      <point x="357" y="574"/>
      <point x="305" y="574" type="qcurve"/>
      <point x="247" y="574"/>
      <point x="146" y="528"/>
      <point x="71" y="448"/>
      <point x="28" y="340"/>
    </contour>
    <contour>
      <point x="162" y="282" type="qcurve"/>
      <point x="162" y="318"/>
      <point x="187" y="380"/>
      <point x="230" y="426"/>
      <point x="288" y="452"/>
      <point x="322" y="452" type="qcurve"/>
      <point x="358" y="452"/>
      <point x="419" y="426"/>
      <point x="463" y="380"/>
      <point x="488" y="317"/>
      <point x="488" y="279" type="qcurve"/>
      <point x="488" y="243"/>
      <point x="463" y="181"/>
      <point x="419" y="135"/>
      <point x="361" y="109"/>
      <point x="327" y="109" type="qcurve"/>
      <point x="292" y="109"/>
      <point x="232" y="136"/>
      <point x="188" y="183"/>
      <point x="162" y="246"/>
    </contour>
  </outline>
</glyph>
<glyph name="f" format="2">
  <advance width="294"/>
  <unicode hex="0066"/>
  <outline>
    <contour>
      <point x="68" y="0" type="line"/>
      <point x="201" y="0" type="line"/>
      <point x="201" y="433" type="line"/>
      <point x="276" y="433" type="line"/>
      <point x="276" y="544" type="line"/>
      <point x="201" y="544" type="line"/>
      <point x="202" y="582"/>
      <point x="232" y="611"/>
      <point x="270" y="611" type="qcurve"/>
      <point x="284" y="611" type="line"/>
      <point x="284" y="737" type="line"/>
      <point x="272" y="739"/>
      <point x="258" y="739"/>
      <point x="251" y="739" type="qcurve"/>
      <point x="169" y="739"/>
      <point x="77" y="641"/>
      <point x="68" y="544" type="qcurve"/>
      <point x="20" y="544" type="line"/>
      <point x="20" y="433" type="line"/>
      <point x="68" y="433" type="line"/>
    </contour>
  </outline>
</glyph>
<glyph name="g" format="2">
  <advance width="663"/>
  <unicode hex="0067"/>
  <outline>
    <contour>
      <point x="37" y="-45" type="line"/>
      <point x="71" y="-129"/>
      <point x="220" y="-221"/>
      <point x="322" y="-221" type="qcurve"/>
      <point x="465" y="-221"/>
      <point x="609" y="-57"/>
      <point x="609" y="105" type="qcurve"/>
      <point x="609" y="554" type="line"/>
      <point x="482" y="554" type="line"/>
      <point x="482" y="484" type="line"/>
      <point x="450" y="526"/>
      <point x="361" y="567"/>
      <point x="301" y="567" type="qcurve"/>
      <point x="242" y="567"/>
      <point x="142" y="524"/>
      <point x="69" y="447"/>
      <point x="28" y="343"/>
      <point x="28" y="281" type="qcurve"/>
      <point x="28" y="217"/>
      <point x="69" y="109"/>
      <point x="141" y="31"/>
      <point x="241" y="-13"/>
      <point x="300" y="-13" type="qcurve"/>
      <point x="358" y="-13"/>
      <point x="442" y="27"/>
      <point x="482" y="73" type="qcurve"/>
      <point x="482" y="55" type="line"/>
      <point x="482" y="-22"/>
      <point x="402" y="-104"/>
      <point x="327" y="-104" type="qcurve"/>
      <point x="280" y="-104"/>
      <point x="217" y="-77"/>
      <point x="188" y="-45" type="qcurve"/>
    </contour>
    <contour>
      <point x="318" y="109" type="qcurve"/>
      <point x="282" y="109"/>
      <point x="225" y="132"/>
      <point x="184" y="176"/>
      <point x="162" y="237"/>
      <point x="162" y="275" type="qcurve"/>
      <point x="162" y="313"/>
      <point x="184" y="376"/>
      <point x="224" y="421"/>
      <point x="280" y="445"/>
      <point x="314" y="445" type="qcurve"/>
      <point x="350" y="445"/>
      <point x="410" y="421"/>
      <point x="453" y="377"/>
      <point x="476" y="315"/>
      <point x="476" y="277" type="qcurve"/>
      <point x="476" y="239"/>
      <point x="454" y="177"/>
      <point x="412" y="133"/>
      <point x="354" y="109"/>
    </contour>
  </outline>
</glyph>
<glyph name="h" format="2">
  <advance width="597"/>
  <unicode hex="0068"/>
  <outline>
    <contour>
      <point x="54" y="0" type="line"/>
      <point x="187" y="0" type="line"/>
      <point x="187" y="281" type="line"/>
      <point x="187" y="365"/>
      <point x="244" y="445"/>
      <point x="304" y="445" type="qcurve"/>
      <point x="363" y="445"/>
      <point x="412" y="371"/>
      <point x="412" y="283" type="qcurve"/>
      <point x="412" y="0" type="line"/>
      <point x="545" y="0" type="line"/>
      <point x="545" y="313" type="line"/>
      <point x="545" y="440"/>
      <point x="436" y="568"/>
      <point x="328" y="568" type="qcurve"/>
      <point x="284" y="568"/>
      <point x="217" y="543"/>
      <point x="187" y="516" type="qcurve"/>
      <point x="187" y="739" type="line"/>
      <point x="54" y="739" type="line"/>
    </contour>
  </outline>
</glyph>
<glyph name="i" format="2">
  <advance width="241"/>
  <unicode hex="0069"/>
  <outline>
    <contour>
      <point x="54" y="0" type="line"/>
      <point x="187" y="0" type="line"/>
      <point x="187" y="554" type="line"/>
      <point x="54" y="554" type="line"/>
    </contour>
    <contour>
      <point x="54" y="614" type="line"/>
      <point x="187" y="614" type="line"/>
      <point x="187" y="739" type="line"/>
      <point x="54" y="739" type="line"/>
    </contour>
  </outline>
</glyph>
<glyph name="j" format="2">
  <advance width="255"/>
  <unicode hex="006A"/>
  <outline>
    <contour>
      <point x="13" y="-185" type="line"/>
      <point x="51" y="-185"/>
      <point x="117" y="-161"/>
      <point x="142" y="-137" type="qcurve"/>
      <point x="157" y="-123"/>
      <point x="180" y="-88"/>
      <point x="194" y="-46"/>
      <point x="201" y="6"/>
      <point x="201" y="37" type="qcurve"/>
      <point x="201" y="554" type="line"/>
      <point x="68" y="554" type="line"/>
      <point x="68" y="40" type="line"/>
      <point x="68" y="11"/>
      <point x="65" y="-24"/>
      <point x="54" y="-44"/>
      <point x="32" y="-53"/>
      <point x="13" y="-56" type="qcurve"/>
    </contour>
    <contour>
      <point x="68" y="614" type="line"/>
      <point x="201" y="614" type="line"/>
      <point x="201" y="739" type="line"/>
      <point x="68" y="739" type="line"/>
    </contour>
  </outline>
</glyph>
<glyph name="l" format="2">
  <advance width="241"/>
  <unicode hex="006C"/>
  <outline>
    <contour>
      <point x="54" y="0" type="line"/>
      <point x="187" y="0" type="line"/>
      <point x="187" y="739" type="line"/>
      <point x="54" y="739" type="line"/>
    </contour>
  </outline>
</glyph>
<glyph name="m" format="2">
  <advance width="937"/>
  <unicode hex="006D"/>
  <outline>
    <contour>
      <point x="54" y="0" type="line"/>
      <point x="187" y="0" type="line"/>
      <point x="187" y="273" type="line"/>
      <point x="187" y="365"/>
      <point x="237" y="445"/>
      <point x="296" y="445" type="qcurve"/>
      <point x="352" y="445"/>
      <point x="403" y="378"/>
      <point x="403" y="304" type="qcurve"/>
      <point x="403" y="0" type="line"/>
      <point x="536" y="0" type="line"/>
      <point x="536" y="273" type="line"/>
      <point x="536" y="362"/>
      <point x="590" y="445"/>
      <point x="648" y="445" type="qcurve"/>
      <point x="701" y="445"/>
      <point x="752" y="376"/>
      <point x="752" y="304" type="qcurve"/>
      <point x="752" y="0" type="line"/>
      <point x="885" y="0" type="line"/>
      <point x="885" y="320" type="line"/>
      <point x="885" y="443"/>
      <point x="772" y="567"/>
      <point x="660" y="567" type="qcurve"/>
      <point x="601" y="567"/>
      <point x="517" y="526"/>
      <point x="483" y="481" type="qcurve"/>
      <point x="454" y="527"/>
      <point x="378" y="567"/>
      <point x="320" y="567" type="qcurve"/>
      <point x="271" y="567"/>
      <point x="205" y="537"/>
      <point x="176" y="502" type="qcurve"/>
      <point x="176" y="554" type="line"/>
      <point x="54" y="554" type="line"/>
    </contour>
  </outline>
</glyph>
<glyph name="n" format="2">
  <advance width="598"/>
  <unicode hex="006E"/>
  <outline>
    <contour>
      <point x="54" y="0" type="line"/>
      <point x="187" y="0" type="line"/>
      <point x="187" y="261" type="line"/>
      <point x="187" y="358"/>
      <point x="244" y="445"/>
      <point x="307" y="445" type="qcurve"/>
      <point x="364" y="445"/>
      <point x="413" y="365"/>
      <point x="413" y="271" type="qcurve"/>
      <point x="413" y="0" type="line"/>
      <point x="546" y="0" type="line"/>
      <point x="546" y="297" type="line"/>
      <point x="546" y="438"/>
      <point x="444" y="567"/>
      <point x="333" y="567" type="qcurve"/>
      <point x="285" y="567"/>
      <point x="214" y="537"/>
      <point x="177" y="501" type="qcurve"/>
      <point x="177" y="554" type="line"/>
      <point x="54" y="554" type="line"/>
    </contour>
  </outline>
</glyph>
<glyph name="p" format="2">
  <advance width="662"/>
  <unicode hex="0070"/>
  <outline>
    <contour>
      <point x="54" y="-185" type="line"/>
      <point x="187" y="-185" type="line"/>
      <point x="187" y="52" type="line"/>
      <point x="226" y="18"/>
      <point x="306" y="-13"/>
      <point x="357" y="-13" type="qcurve"/>
      <point x="417" y="-13"/>
      <point x="518" y="31"/>
      <point x="592" y="109"/>
      <point x="634" y="216"/>
      <point x="634" y="279" type="qcurve"/>
      <point x="634" y="342"/>
      <point x="593" y="447"/>
      <point x="519" y="524"/>
      <point x="418" y="567"/>
      <point x="358" y="567" type="qcurve"/>
      <point x="301" y="567"/>
      <point x="208" y="527"/>
      <point x="176" y="489" type="qcurve"/>
      <point x="176" y="554" type="line"/>
      <point x="54" y="554" type="line"/>
    </contour>
    <contour>
      <point x="342" y="109" type="qcurve"/>
      <point x="307" y="109"/>
      <point x="248" y="134"/>
      <point x="204" y="179"/>
      <point x="179" y="240"/>
      <point x="179" y="275" type="qcurve"/>
      <point x="179" y="311"/>
      <point x="203" y="373"/>
      <point x="246" y="419"/>
      <point x="304" y="445"/>
      <point x="338" y="445" type="qcurve"/>
      <point x="373" y="445"/>
      <point x="432" y="420"/>
      <point x="476" y="375"/>
      <point x="500" y="313"/>
      <point x="500" y="276" type="qcurve"/>
      <point x="500" y="241"/>
      <point x="476" y="180"/>
      <point x="433" y="135"/>
      <point x="375" y="109"/>
    </contour>
  </outline>
</glyph>
<glyph name="q" format="2">
  <advance width="663"/>
  <unicode hex="0071"/>
  <outline>
    <contour>
      <point x="476" y="-185" type="line"/>
      <point x="609" y="-185" type="line"/>
      <point x="609" y="554" type="line"/>
      <point x="487" y="554" type="line"/>
      <point x="487" y="483" type="line"/>
      <point x="454" y="527"/>
      <point x="368" y="567"/>
      <point x="307" y="567" type="qcurve"/>
      <point x="249" y="567"/>
      <point x="147" y="522"/>
      <point x="71" y="444"/>
      <point x="28" y="339"/>
      <point x="28" y="279" type="qcurve"/>
      <point x="28" y="217"/>
      <point x="71" y="110"/>
      <point x="147" y="32"/>
      <point x="249" y="-13"/>
      <point x="309" y="-13" type="qcurve"/>
      <point x="360" y="-13"/>
      <point x="443" y="20"/>
      <point x="476" y="53" type="qcurve"/>
    </contour>
    <contour>
      <point x="325" y="109" type="qcurve"/>
      <point x="290" y="109"/>
      <point x="230" y="134"/>
      <point x="187" y="179"/>
      <point x="162" y="240"/>
      <point x="162" y="276" type="qcurve"/>
      <point x="162" y="312"/>
      <point x="187" y="373"/>
      <point x="230" y="419"/>
      <point x="288" y="445"/>
      <point x="322" y="445" type="qcurve"/>
      <point x="358" y="445"/>
      <point x="417" y="420"/>
      <point x="460" y="375"/>
      <point x="484" y="312"/>
      <point x="484" y="275" type="qcurve"/>
      <point x="484" y="239"/>
      <point x="460" y="178"/>
      <point x="418" y="134"/>
      <point x="359" y="109"/>
    </contour>
  </outline>
</glyph>
<glyph name="r" format="2">
  <advance width="330"/>
  <unicode hex="0072"/>
  <outline>
    <contour>
      <point x="54" y="0" type="line"/>
      <point x="187" y="0" type="line"/>
      <point x="187" y="308" type="line"/>
      <point x="187" y="374"/>
      <point x="246" y="439"/>
      <point x="306" y="439" type="qcurve"/>
      <point x="306" y="567" type="line"/>
      <point x="280" y="567"/>
      <point x="244" y="561"/>
      <point x="214" y="546"/>
      <point x="190" y="520"/>
      <point x="176" y="500" type="qcurve"/>
      <point x="176" y="554" type="line"/>
      <point x="54" y="554" type="line"/>
    </contour>
  </outline>
</glyph>
<glyph name="t" format="2">
  <advance width="303"/>
  <unicode hex="0074"/>
  <outline>
    <contour>
      <point x="78" y="0" type="line"/>
      <point x="211" y="0" type="line"/>
      <point x="211" y="433" type="line"/>
      <point x="291" y="433" type="line"/>
      <point x="291" y="554" type="line"/>
      <point x="211" y="554" type="line"/>
      <point x="211" y="739" type="line"/>
      <point x="78" y="739" type="line"/>
      <point x="78" y="554" type="line"/>
      <point x="13" y="554" type="line"/>
      <point x="13" y="433" type="line"/>
      <point x="78" y="433" type="line"/>
    </contour>
  </outline>
</glyph>
<glyph name="v" format="2">
  <advance width="558"/>
  <unicode hex="0076"/>
  <outline>
    <contour>
      <point x="226" y="0" type="line"/>
      <point x="332" y="0" type="line"/>
      <point x="555" y="554" type="line"/>
      <point x="405" y="554" type="line"/>
      <point x="279" y="187" type="line"/>
      <point x="151" y="554" type="line"/>
      <point x="3" y="554" type="line"/>
    </contour>
  </outline>
</glyph>
<glyph name="w" format="2">
  <advance width="781"/>
  <unicode hex="0077"/>
  <outline>
    <contour>
      <point x="201" y="0" type="line"/>
      <point x="283" y="0" type="line"/>
      <point x="390" y="359" type="line"/>
      <point x="495" y="0" type="line"/>
      <point x="578" y="0" type="line"/>
      <point x="778" y="554" type="line"/>
      <point x="636" y="554" type="line"/>
      <point x="535" y="216" type="line"/>
      <point x="444" y="554" type="line"/>
      <point x="338" y="554" type="line"/>
      <point x="245" y="216" type="line"/>
      <point x="146" y="554" type="line"/>
      <point x="3" y="554" type="line"/>
    </contour>
  </outline>
</glyph>
<glyph name="x" format="2">
  <advance width="558"/>
  <unicode hex="0078"/>
  <outline>
    <contour>
      <point x="3" y="0" type="line"/>
      <point x="163" y="0" type="line"/>
      <point x="279" y="190" type="line"/>
      <point x="395" y="0" type="line"/>
      <point x="555" y="0" type="line"/>
      <point x="358" y="286" type="line"/>
      <point x="527" y="554" type="line"/>
      <point x="377" y="554" type="line"/>
      <point x="279" y="387" type="line"/>
      <point x="179" y="554" type="line"/>
      <point x="29" y="554" type="line"/>
      <point x="199" y="286" type="line"/>
    </contour>
  </outline>
</glyph>
<glyph name="z" format="2">
  <advance width="482"/>
  <unicode hex="007A"/>
  <outline>
    <contour>
      <point x="30" y="0" type="line"/>
      <point x="452" y="0" type="line"/>
      <point x="452" y="119" type="line"/>
      <point x="189" y="119" type="line"/>
      <point x="433" y="435" type="line"/>
      <point x="433" y="554" type="line"/>
      <point x="58" y="554" type="line"/>
      <point x="58" y="435" type="line"/>
      <point x="274" y="435" type="line"/>
      <point x="30" y="119" type="line"/>
    </contour>
  </outline>
</glyph>
<glyph name="braceleft" format="2">
  <advance width="335"/>
  <unicode hex="007B"/>
  <outline>
    <contour>
      <point x="305" y="-48" type="line"/>
      <point x="278" y="-46"/>
      <point x="247" y="-37"/>
      <point x="231" y="-16"/>
      <point x="226" y="22"/>
      <point x="226" y="54" type="qcurve"/>
      <point x="226" y="177" type="line"/>
      <point x="226" y="206"/>
      <point x="216" y="249"/>
      <point x="195" y="279"/>
      <point x="161" y="299"/>
      <point x="136" y="305" type="qcurve"/>
      <point x="161" y="312"/>
      <point x="196" y="332"/>
      <point x="217" y="362"/>
      <point x="226" y="405"/>
      <point x="226" y="434" type="qcurve"/>
      <point x="226" y="557" type="line"/>
      <point x="226" y="589"/>
      <point x="231" y="627"/>
      <point x="247" y="648"/>
      <point x="278" y="657"/>
      <point x="305" y="659" type="qcurve"/>
      <point x="305" y="739" type="line"/>
      <point x="256" y="739"/>
      <point x="187" y="723"/>
      <point x="142" y="690"/>
      <point x="121" y="637"/>
      <point x="121" y="601" type="qcurve"/>
      <point x="121" y="444" type="line"/>
      <point x="121" y="421"/>
      <point x="111" y="387"/>
      <point x="91" y="363"/>
      <point x="61" y="349"/>
      <point x="40" y="346" type="qcurve"/>
      <point x="40" y="265" type="line"/>
      <point x="61" y="262"/>
      <point x="91" y="248"/>
      <point x="111" y="224"/>
      <point x="121" y="190"/>
      <point x="121" y="167" type="qcurve"/>
      <point x="121" y="10" type="line"/>
      <point x="121" y="-26"/>
      <point x="142" y="-79"/>
      <point x="187" y="-112"/>
      <point x="256" y="-128"/>
      <point x="305" y="-128" type="qcurve"/>
    </contour>
  </outline>
</glyph>
<glyph name="bar" format="2">
  <advance width="599"/>
  <unicode hex="007C"/>
  <outline>
    <contour>
      <point x="240" y="0" type="line"/>
      <point x="359" y="0" type="line"/>
      <point x="359" y="739" type="line"/>
      <point x="240" y="739" type="line"/>
    </contour>
  </outline>
</glyph>
<glyph name="braceright" format="2">
  <advance width="335"/>
  <unicode hex="007D"/>
  <outline>
    <contour>
      <point x="30" y="659" type="line"/>
      <point x="57" y="657"/>
      <point x="88" y="648"/>
      <point x="104" y="627"/>
      <point x="109" y="589"/>
      <point x="109" y="557" type="qcurve"/>
      <point x="109" y="434" type="line"/>
      <point x="109" y="405"/>
      <point x="119" y="362"/>
      <point x="140" y="332"/>
      <point x="174" y="312"/>
      <point x="199" y="306" type="qcurve"/>
      <point x="174" y="299"/>
      <point x="139" y="279"/>
      <point x="118" y="249"/>
      <point x="109" y="206"/>
      <point x="109" y="177" type="qcurve"/>
      <point x="109" y="54" type="line"/>
      <point x="109" y="22"/>
      <point x="104" y="-16"/>
      <point x="88" y="-37"/>
      <point x="57" y="-46"/>
      <point x="30" y="-48" type="qcurve"/>
      <point x="30" y="-128" type="line"/>
      <point x="79" y="-128"/>
      <point x="148" y="-112"/>
      <point x="193" y="-79"/>
      <point x="214" y="-26"/>
      <point x="214" y="10" type="qcurve"/>
      <point x="214" y="167" type="line"/>
      <point x="214" y="190"/>
      <point x="224" y="224"/>
      <point x="244" y="248"/>
      <point x="274" y="262"/>
      <point x="295" y="265" type="qcurve"/>
      <point x="295" y="346" type="line"/>
      <point x="274" y="349"/>
      <point x="244" y="363"/>
      <point x="224" y="387"/>
      <point x="214" y="421"/>
      <point x="214" y="444" type="qcurve"/>
      <point x="214" y="601" type="line"/>
      <point x="214" y="637"/>
      <point x="193" y="690"/>
      <point x="148" y="723"/>
      <point x="79" y="739"/>
      <point x="30" y="739" type="qcurve"/>
    </contour>
  </outline>
</glyph>
<glyph name="asciitilde" format="2">
  <advance width="600"/>
  <unicode hex="007E"/>
  <outline>
    <contour>
      <point x="111" y="214" type="line"/>
      <point x="119" y="228"/>
      <point x="138" y="257"/>
      <point x="159" y="280"/>
      <point x="183" y="295"/>
      <point x="198" y="295" type="qcurve"/>
      <point x="203" y="295"/>
      <point x="214" y="293"/>
      <point x="228" y="289"/>
      <point x="248" y="282"/>
      <point x="262" y="276" type="qcurve"/>
      <point x="316" y="254" type="line"/>
      <point x="344" y="243"/>
      <point x="392" y="230"/>
      <point x="407" y="230" type="qcurve"/>
      <point x="448" y="230"/>
      <point x="513" y="282"/>
      <point x="552" y="347" type="qcurve"/>
      <point x="488" y="421" type="line"/>
      <point x="469" y="386"/>
      <point x="429" y="347"/>
      <point x="411" y="347" type="qcurve"/>
      <point x="405" y="347"/>
      <point x="394" y="349"/>
      <point x="379" y="354"/>
      <point x="357" y="362"/>
      <point x="340" y="369" type="qcurve"/>
      <point x="273" y="396" type="line"/>
      <point x="254" y="404"/>
      <point x="214" y="412"/>
      <point x="196" y="412" type="qcurve"/>
      <point x="167" y="412"/>
      <point x="123" y="390"/>
      <point x="89" y="354"/>
      <point x="61" y="311"/>
      <point x="48" y="289" type="qcurve"/>
    </contour>
  </outline>
</glyph>
<glyph name="exclamdown" format="2">
  <advance width="321"/>
  <unicode hex="00A1"/>
  <outline>
    <contour>
      <point x="94" y="-185" type="line"/>
      <point x="227" y="-185" type="line"/>
      <point x="227" y="366" type="line"/>
      <point x="94" y="366" type="line"/>
    </contour>
    <contour>
      <point x="94" y="426" type="line"/>
      <point x="227" y="426" type="line"/>
      <point x="227" y="554" type="line"/>
      <point x="94" y="554" type="line"/>
    </contour>
  </outline>
</glyph>
<glyph name="cent" format="2">
  <advance width="560"/>
  <unicode hex="00A2"/>
  <outline>
    <contour>
      <point x="223" y="39" type="line"/>
      <point x="348" y="39" type="line"/>
      <point x="348" y="148" type="line"/>
      <point x="408" y="164"/>
      <point x="490" y="243"/>
      <point x="516" y="310" type="qcurve"/>
      <point x="370" y="310" type="line"/>
      <point x="351" y="289"/>
      <point x="311" y="270"/>
      <point x="285" y="270" type="qcurve"/>
      <point x="262" y="270"/>
      <point x="222" y="286"/>
      <point x="193" y="316"/>
      <point x="177" y="355"/>
      <point x="177" y="379" type="qcurve"/>
      <point x="177" y="403"/>
      <point x="193" y="443"/>
      <point x="220" y="472"/>
      <point x="259" y="489"/>
      <point x="281" y="489" type="qcurve"/>
      <point x="309" y="489"/>
      <point x="359" y="464"/>
      <point x="374" y="443" type="qcurve"/>
      <point x="516" y="443" type="line"/>
      <point x="502" y="505"/>
      <point x="412" y="595"/>
      <point x="348" y="611" type="qcurve"/>
      <point x="348" y="715" type="line"/>
      <point x="223" y="715" type="line"/>
      <point x="223" y="611" type="line"/>
      <point x="182" y="600"/>
      <point x="115" y="557"/>
      <point x="69" y="498"/>
      <point x="44" y="423"/>
      <point x="44" y="381" type="qcurve"/>
      <point x="44" y="338"/>
      <point x="70" y="260"/>
      <point x="117" y="199"/>
      <point x="183" y="157"/>
      <point x="223" y="148" type="qcurve"/>
    </contour>
  </outline>
</glyph>
<glyph name="sterling" format="2">
  <advance width="560"/>
  <unicode hex="00A3"/>
  <outline>
    <contour>
      <point x="41" y="0" type="line"/>
      <point x="301" y="0" type="line"/>
      <point x="425" y="0"/>
      <point x="563" y="117"/>
      <point x="563" y="222" type="qcurve"/>
      <point x="563" y="235"/>
      <point x="558" y="258"/>
      <point x="552" y="274" type="qcurve"/>
      <point x="420" y="274" type="line"/>
      <point x="426" y="256"/>
      <point x="430" y="233"/>
      <point x="430" y="220" type="qcurve"/>
      <point x="430" y="176"/>
      <point x="374" y="125"/>
      <point x="326" y="125" type="qcurve"/>
      <point x="320" y="125" type="line"/>
      <point x="326" y="143"/>
      <point x="333" y="183"/>
      <point x="333" y="200" type="qcurve"/>
      <point x="333" y="227"/>
      <point x="319" y="276"/>
      <point x="301" y="310" type="qcurve"/>
      <point x="408" y="310" type="line"/>
      <point x="408" y="435" type="line"/>
      <point x="201" y="435" type="line"/>
      <point x="187" y="451"/>
      <point x="174" y="488"/>
      <point x="174" y="511" type="qcurve"/>
      <point x="174" y="536"/>
      <point x="191" y="580"/>
      <point x="219" y="612"/>
      <point x="258" y="630"/>
      <point x="281" y="630" type="qcurve"/>
      <point x="318" y="630"/>
      <point x="369" y="584"/>
      <point x="379" y="541" type="qcurve"/>
      <point x="514" y="541" type="line"/>
      <point x="510" y="588"/>
      <point x="472" y="666"/>
      <point x="410" y="721"/>
      <point x="328" y="752"/>
      <point x="280" y="752" type="qcurve"/>
      <point x="230" y="752"/>
      <point x="143" y="715"/>
      <point x="78" y="652"/>
      <point x="41" y="566"/>
      <point x="41" y="516" type="qcurve"/>
      <point x="41" y="493"/>
      <point x="49" y="456"/>
      <point x="58" y="435" type="qcurve"/>
      <point x="0" y="435" type="line"/>
      <point x="0" y="310" type="line"/>
      <point x="142" y="310" type="line"/>
      <point x="158" y="295"/>
      <point x="180" y="268"/>
      <point x="194" y="241"/>
      <point x="200" y="213"/>
      <point x="200" y="197" type="qcurve"/>
      <point x="200" y="178"/>
      <point x="190" y="142"/>
      <point x="180" y="125" type="qcurve"/>
      <point x="41" y="125" type="line"/>
    </contour>
  </outline>
</glyph>
<glyph name="currency" format="2">
  <advance width="560"/>
  <unicode hex="00A4"/>
  <outline>
    <contour>
      <point x="106" y="148" type="line"/>
      <point x="150" y="190" type="line"/>
      <point x="180" y="172"/>
      <point x="247" y="153"/>
      <point x="281" y="153" type="qcurve"/>
      <point x="314" y="153"/>
      <point x="381" y="172"/>
      <point x="412" y="190" type="qcurve"/>
      <point x="456" y="148" type="line"/>
      <point x="533" y="228" type="line"/>
      <point x="491" y="271" type="line"/>
      <point x="513" y="305"/>
      <point x="529" y="360"/>
      <point x="529" y="399" type="qcurve"/>
      <point x="529" y="438"/>
      <point x="514" y="492"/>
      <point x="492" y="529" type="qcurve"/>
      <point x="534" y="572" type="line"/>
      <point x="457" y="653" type="line"/>
      <point x="412" y="610" type="line"/>
      <point x="380" y="629"/>
      <point x="316" y="646"/>
      <point x="280" y="646" type="qcurve"/>
      <point x="245" y="646"/>
      <point x="184" y="629"/>
      <point x="152" y="610" type="qcurve"/>
      <point x="107" y="654" type="line"/>
      <point x="27" y="574" type="line"/>
      <point x="69" y="529" type="line"/>
      <point x="58" y="508"/>
      <point x="44" y="476"/>
      <point x="36" y="447"/>
      <point x="33" y="418"/>
      <point x="33" y="400" type="qcurve"/>
      <point x="33" y="382"/>
      <point x="36" y="353"/>
      <point x="44" y="324"/>
      <point x="58" y="293"/>
      <point x="69" y="272" type="qcurve"/>
      <point x="27" y="229" type="line"/>
    </contour>
    <contour>
      <point x="153" y="401" type="qcurve"/>
      <point x="153" y="427"/>
      <point x="173" y="472"/>
      <point x="208" y="506"/>
      <point x="255" y="526"/>
      <point x="281" y="526" type="qcurve"/>
      <point x="308" y="526"/>
      <point x="354" y="506"/>
      <point x="388" y="472"/>
      <point x="407" y="425"/>
      <point x="407" y="398" type="qcurve"/>
      <point x="407" y="372"/>
      <point x="387" y="326"/>
      <point x="353" y="293"/>
      <point x="307" y="273"/>
      <point x="281" y="273" type="qcurve"/>
      <point x="255" y="273"/>
      <point x="208" y="293"/>
      <point x="173" y="328"/>
      <point x="153" y="375"/>
    </contour>
  </outline>
</glyph>
<glyph name="yen" format="2">
  <advance width="560"/>
  <unicode hex="00A5"/>
  <outline>
    <contour>
      <point x="15" y="187" type="line"/>
      <point x="211" y="187" type="line"/>
      <point x="211" y="0" type="line"/>
      <point x="344" y="0" type="line"/>
      <point x="344" y="187" type="line"/>
      <point x="541" y="187" type="line"/>
      <point x="541" y="275" type="line"/>
      <point x="344" y="275" type="line"/>
      <point x="401" y="380" type="line"/>
      <point x="541" y="380" type="line"/>
      <point x="541" y="468" type="line"/>
      <point x="449" y="468" type="line"/>
      <point x="592" y="739" type="line"/>
      <point x="438" y="739" type="line"/>
      <point x="277" y="398" type="line"/>
      <point x="117" y="739" type="line"/>
      <point x="-32" y="739" type="line"/>
      <point x="109" y="468" type="line"/>
      <point x="15" y="468" type="line"/>
      <point x="15" y="380" type="line"/>
      <point x="155" y="380" type="line"/>
      <point x="211" y="275" type="line"/>
      <point x="15" y="275" type="line"/>
    </contour>
  </outline>
</glyph>
<glyph name="brokenbar" format="2">
  <advance width="600"/>
  <unicode hex="00A6"/>
  <outline>
    <contour>
      <point x="240" y="437" type="line"/>
      <point x="359" y="437" type="line"/>
      <point x="359" y="739" type="line"/>
      <point x="240" y="739" type="line"/>
    </contour>
    <contour>
      <point x="240" y="0" type="line"/>
      <point x="359" y="0" type="line"/>
      <point x="359" y="302" type="line"/>
      <point x="240" y="302" type="line"/>
    </contour>
  </outline>
</glyph>
<glyph name="section" format="2">
  <advance width="560"/>
  <unicode hex="00A7"/>
  <outline>
    <contour>
      <point x="55" y="55" type="line"/>
      <point x="59" y="5"/>
      <point x="95" y="-73"/>
      <point x="154" y="-128"/>
      <point x="235" y="-157"/>
      <point x="284" y="-157" type="qcurve"/>
      <point x="331" y="-157"/>
      <point x="410" y="-129"/>
      <point x="467" y="-79"/>
      <point x="499" y="-10"/>
      <point x="499" y="31" type="qcurve"/>
      <point x="499" y="68"/>
      <point x="476" y="123"/>
      <point x="449" y="150" type="qcurve"/>
      <point x="485" y="177"/>
      <point x="524" y="251"/>
      <point x="524" y="292" type="qcurve"/>
      <point x="524" y="336"/>
      <point x="477" y="411"/>
      <point x="437" y="431" type="qcurve"/>
      <point x="273" y="512" type="line"/>
      <point x="243" y="527"/>
      <point x="212" y="562"/>
      <point x="212" y="581" type="qcurve"/>
      <point x="212" y="604"/>
      <point x="248" y="630"/>
      <point x="280" y="630" type="qcurve"/>
      <point x="319" y="630"/>
      <point x="359" y="598"/>
      <point x="366" y="563" type="qcurve"/>
      <point x="492" y="563" type="line"/>
      <point x="486" y="610"/>
      <point x="454" y="680"/>
      <point x="402" y="728"/>
      <point x="331" y="752"/>
      <point x="286" y="752" type="qcurve"/>
      <point x="241" y="752"/>
      <point x="167" y="728"/>
      <point x="114" y="684"/>
      <point x="85" y="623"/>
      <point x="85" y="586" type="qcurve"/>
      <point x="85" y="559"/>
      <point x="98" y="516"/>
      <point x="113" y="493" type="qcurve"/>
      <point x="71" y="462"/>
      <point x="35" y="394"/>
      <point x="35" y="347" type="qcurve"/>
      <point x="35" y="293"/>
      <point x="85" y="213"/>
      <point x="136" y="187" type="qcurve"/>
      <point x="299" y="103" type="line"/>
      <point x="321" y="92"/>
      <point x="350" y="74"/>
      <point x="366" y="58"/>
      <point x="372" y="41"/>
      <point x="372" y="30" type="qcurve"/>
      <point x="372" y="16"/>
      <point x="359" y="-8"/>
      <point x="336" y="-25"/>
      <point x="304" y="-35"/>
      <point x="285" y="-35" type="qcurve"/>
      <point x="237" y="-35"/>
      <point x="189" y="10"/>
      <point x="189" y="55" type="qcurve"/>
    </contour>
    <contour>
      <point x="363" y="215" type="qcurve"/>
      <point x="212" y="291" type="line"/>
      <point x="180" y="307"/>
      <point x="152" y="336"/>
      <point x="152" y="354" type="qcurve"/>
      <point x="152" y="370"/>
      <point x="170" y="396"/>
      <point x="191" y="413" type="qcurve"/>
      <point x="340" y="339" type="line"/>
      <point x="376" y="321"/>
      <point x="400" y="297"/>
      <point x="400" y="278" type="qcurve"/>
      <point x="400" y="261"/>
      <point x="380" y="227"/>
    </contour>
  </outline>
</glyph>
<glyph name="dieresis" format="2">
  <advance width="471"/>
  <unicode hex="00A8"/>
  <outline>
    <contour>
      <point x="64" y="630" type="line"/>
      <point x="197" y="630" type="line"/>
      <point x="197" y="763" type="line"/>
      <point x="64" y="763" type="line"/>
    </contour>
    <contour>
      <point x="274" y="630" type="line"/>
      <point x="407" y="630" type="line"/>
      <point x="407" y="763" type="line"/>
      <point x="274" y="763" type="line"/>
    </contour>
  </outline>
</glyph>
<glyph name="copyright" format="2">
  <advance width="791"/>
  <unicode hex="00A9"/>
  <outline>
    <contour>
      <point x="183" y="372" type="qcurve"/>
      <point x="183" y="327"/>
      <point x="217" y="248"/>
      <point x="276" y="190"/>
      <point x="355" y="157"/>
      <point x="401" y="157" type="qcurve"/>
      <point x="439" y="157"/>
      <point x="507" y="180"/>
      <point x="562" y="223"/>
      <point x="601" y="283"/>
      <point x="610" y="320" type="qcurve"/>
      <point x="499" y="320" type="line"/>
      <point x="482" y="285"/>
      <point x="432" y="250"/>
      <point x="399" y="250" type="qcurve"/>
      <point x="376" y="250"/>
      <point x="335" y="269"/>
      <point x="305" y="302"/>
      <point x="288" y="347"/>
      <point x="288" y="373" type="qcurve"/>
      <point x="288" y="399"/>
      <point x="305" y="443"/>
      <point x="335" y="476"/>
      <point x="375" y="494"/>
      <point x="399" y="494" type="qcurve"/>
      <point x="433" y="494"/>
      <point x="487" y="455"/>
      <point x="499" y="422" type="qcurve"/>
      <point x="610" y="422" type="line"/>
      <point x="604" y="457"/>
      <point x="566" y="517"/>
      <point x="509" y="562"/>
      <point x="438" y="587"/>
      <point x="400" y="587" type="qcurve"/>
      <point x="354" y="587"/>
      <point x="275" y="554"/>
      <point x="216" y="496"/>
      <point x="183" y="417"/>
    </contour>
    <contour>
      <point x="10" y="369" type="qcurve"/>
      <point x="10" y="290"/>
      <point x="71" y="151"/>
      <point x="175" y="47"/>
      <point x="316" y="-13"/>
      <point x="396" y="-13" type="qcurve"/>
      <point x="476" y="-13"/>
      <point x="616" y="47"/>
      <point x="720" y="151"/>
      <point x="781" y="290"/>
      <point x="781" y="369" type="qcurve"/>
      <point x="781" y="448"/>
      <point x="721" y="587"/>
      <point x="617" y="691"/>
      <point x="478" y="752"/>
      <point x="400" y="752" type="qcurve"/>
      <point x="318" y="752"/>
      <point x="176" y="693"/>
      <point x="71" y="589"/>
      <point x="10" y="449"/>
    </contour>
    <contour>
      <point x="90" y="370" type="qcurve"/>
      <point x="90" y="433"/>
      <point x="138" y="544"/>
      <point x="220" y="627"/>
      <point x="330" y="675"/>
      <point x="392" y="675" type="qcurve"/>
      <point x="457" y="675"/>
      <point x="570" y="628"/>
      <point x="653" y="545"/>
      <point x="701" y="433"/>
      <point x="701" y="369" type="qcurve"/>
      <point x="701" y="307"/>
      <point x="653" y="197"/>
      <point x="570" y="115"/>
      <point x="458" y="67"/>
      <point x="395" y="67" type="qcurve"/>
      <point x="332" y="67"/>
      <point x="221" y="115"/>
      <point x="138" y="197"/>
      <point x="90" y="307"/>
    </contour>
  </outline>
</glyph>
<glyph name="ordfeminine" format="2">
  <advance width="382"/>
  <unicode hex="00AA"/>
  <outline>
    <contour>
      <point x="274" y="441" type="line"/>
      <point x="340" y="441" type="line"/>
      <point x="340" y="739" type="line"/>
      <point x="274" y="739" type="line"/>
      <point x="274" y="700" type="line"/>
      <point x="255" y="725"/>
      <point x="207" y="750"/>
      <point x="177" y="750" type="qcurve"/>
      <point x="146" y="750"/>
      <point x="92" y="726"/>
      <point x="53" y="683"/>
      <point x="30" y="625"/>
      <point x="30" y="592" type="qcurve"/>
      <point x="30" y="558"/>
      <point x="52" y="499"/>
      <point x="90" y="456"/>
      <point x="142" y="431"/>
      <point x="172" y="431" type="qcurve"/>
      <point x="203" y="431"/>
      <point x="255" y="457"/>
      <point x="274" y="482" type="qcurve"/>
    </contour>
    <contour>
      <point x="187" y="505" type="qcurve"/>
      <point x="170" y="505"/>
      <point x="141" y="518"/>
      <point x="119" y="541"/>
      <point x="106" y="571"/>
      <point x="106" y="589" type="qcurve"/>
      <point x="106" y="607"/>
      <point x="119" y="639"/>
      <point x="140" y="662"/>
      <point x="169" y="676"/>
      <point x="186" y="676" type="qcurve"/>
      <point x="204" y="676"/>
      <point x="234" y="663"/>
      <point x="256" y="640"/>
      <point x="268" y="609"/>
      <point x="268" y="591" type="qcurve"/>
      <point x="268" y="573"/>
      <point x="256" y="541"/>
      <point x="234" y="518"/>
      <point x="204" y="505"/>
    </contour>
    <contour>
      <point x="33" y="310" type="line"/>
      <point x="344" y="310" type="line"/>
      <point x="344" y="380" type="line"/>
      <point x="33" y="380" type="line"/>
    </contour>
  </outline>
</glyph>
<glyph name="logicalnot" format="2">
  <advance width="600"/>
  <unicode hex="00AC"/>
  <outline>
    <contour>
      <point x="44" y="359" type="line"/>
      <point x="434" y="359" type="line"/>
      <point x="434" y="182" type="line"/>
      <point x="548" y="182" type="line"/>
      <point x="548" y="473" type="line"/>
      <point x="44" y="473" type="line"/>
    </contour>
  </outline>
</glyph>
<glyph name="softhyphen" format="2">
  <advance width="337"/>
  <unicode hex="00AD"/>
  <outline>
    <contour>
      <point x="30" y="229" type="line"/>
      <point x="307" y="229" type="line"/>
      <point x="307" y="347" type="line"/>
      <point x="30" y="347" type="line"/>
    </contour>
  </outline>
</glyph>
<glyph name="registered" format="2">
  <advance width="791"/>
  <unicode hex="00AE"/>
  <outline>
    <contour>
      <point x="251" y="166" type="line"/>
      <point x="352" y="166" type="line"/>
      <point x="352" y="300" type="line"/>
      <point x="448" y="166" type="line"/>
      <point x="569" y="166" type="line"/>
      <point x="457" y="307" type="line"/>
      <point x="504" y="315"/>
      <point x="559" y="386"/>
      <point x="559" y="437" type="qcurve"/>
      <point x="559" y="508"/>
      <point x="471" y="579"/>
      <point x="382" y="579" type="qcurve"/>
      <point x="251" y="579" type="line"/>
    </contour>
    <contour>
      <point x="352" y="372" type="line"/>
      <point x="352" y="486" type="line"/>
      <point x="390" y="486" type="line"/>
      <point x="423" y="486"/>
      <point x="458" y="457"/>
      <point x="458" y="430" type="qcurve"/>
      <point x="458" y="402"/>
      <point x="422" y="372"/>
      <point x="389" y="372" type="qcurve"/>
    </contour>
    <contour>
      <point x="10" y="369" type="qcurve"/>
      <point x="10" y="290"/>
      <point x="71" y="151"/>
      <point x="175" y="47"/>
      <point x="316" y="-13"/>
      <point x="396" y="-13" type="qcurve"/>
      <point x="476" y="-13"/>
      <point x="616" y="47"/>
      <point x="720" y="151"/>
      <point x="781" y="290"/>
      <point x="781" y="369" type="qcurve"/>
      <point x="781" y="448"/>
      <point x="721" y="587"/>
      <point x="617" y="691"/>
      <point x="478" y="752"/>
      <point x="400" y="752" type="qcurve"/>
      <point x="318" y="752"/>
      <point x="176" y="693"/>
      <point x="71" y="589"/>
      <point x="10" y="449"/>
    </contour>
    <contour>
      <point x="90" y="370" type="qcurve"/>
      <point x="90" y="433"/>
      <point x="138" y="544"/>
      <point x="220" y="627"/>
      <point x="330" y="675"/>
      <point x="392" y="675" type="qcurve"/>
      <point x="457" y="675"/>
      <point x="570" y="628"/>
      <point x="653" y="545"/>
      <point x="701" y="433"/>
      <point x="701" y="369" type="qcurve"/>
      <point x="701" y="307"/>
      <point x="653" y="197"/>
      <point x="570" y="115"/>
      <point x="458" y="67"/>
      <point x="395" y="67" type="qcurve"/>
      <point x="332" y="67"/>
      <point x="221" y="115"/>
      <point x="138" y="197"/>
      <point x="90" y="307"/>
    </contour>
  </outline>
</glyph>
<glyph name="macron" format="2">
  <advance width="405"/>
  <unicode hex="00AF"/>
  <outline>
    <contour>
      <point x="64" y="648" type="line"/>
      <point x="341" y="648" type="line"/>
      <point x="341" y="748" type="line"/>
      <point x="64" y="748" type="line"/>
    </contour>
  </outline>
</glyph>
<glyph name="plusminus" format="2">
  <advance width="600"/>
  <unicode hex="00B1"/>
  <outline>
    <contour>
      <point x="48" y="340" type="line"/>
      <point x="240" y="340" type="line"/>
      <point x="240" y="175" type="line"/>
      <point x="360" y="175" type="line"/>
      <point x="360" y="340" type="line"/>
      <point x="552" y="340" type="line"/>
      <point x="552" y="458" type="line"/>
      <point x="360" y="458" type="line"/>
      <point x="360" y="653" type="line"/>
      <point x="240" y="653" type="line"/>
      <point x="240" y="458" type="line"/>
      <point x="48" y="458" type="line"/>
    </contour>
    <contour>
      <point x="48" y="0" type="line"/>
      <point x="552" y="0" type="line"/>
      <point x="552" y="118" type="line"/>
      <point x="48" y="118" type="line"/>
    </contour>
  </outline>
</glyph>
<glyph name="twosuperior" format="2">
  <advance width="336"/>
  <unicode hex="00B2"/>
  <outline>
    <contour>
      <point x="13" y="296" type="line"/>
      <point x="324" y="296" type="line"/>
      <point x="324" y="376" type="line"/>
      <point x="143" y="376" type="line"/>
      <point x="237" y="451" type="line"/>
      <point x="281" y="486"/>
      <point x="326" y="562"/>
      <point x="326" y="601" type="qcurve"/>
      <point x="326" y="632"/>
      <point x="302" y="686"/>
      <point x="260" y="725"/>
      <point x="203" y="747"/>
      <point x="169" y="747" type="qcurve"/>
      <point x="95" y="747"/>
      <point x="10" y="659"/>
      <point x="10" y="582" type="qcurve"/>
      <point x="97" y="582" type="line"/>
      <point x="98" y="623"/>
      <point x="136" y="668"/>
      <point x="170" y="668" type="qcurve"/>
      <point x="199" y="668"/>
      <point x="238" y="631"/>
      <point x="238" y="603" type="qcurve"/>
      <point x="238" y="593"/>
      <point x="232" y="574"/>
      <point x="219" y="553"/>
      <point x="198" y="531"/>
      <point x="183" y="518" type="qcurve"/>
      <point x="13" y="370" type="line"/>
    </contour>
  </outline>
</glyph>
<glyph name="threesuperior" format="2">
  <advance width="336"/>
  <unicode hex="00B3"/>
  <outline>
    <contour>
      <point x="3" y="435" type="line"/>
      <point x="7" y="369"/>
      <point x="98" y="288"/>
      <point x="169" y="288" type="qcurve"/>
      <point x="204" y="288"/>
      <point x="263" y="311"/>
      <point x="306" y="351"/>
      <point x="330" y="406"/>
      <point x="330" y="439" type="qcurve"/>
      <point x="330" y="478"/>
      <point x="296" y="536"/>
      <point x="264" y="551" type="qcurve"/>
      <point x="281" y="564"/>
      <point x="298" y="601"/>
      <point x="298" y="625" type="qcurve"/>
      <point x="298" y="651"/>
      <point x="278" y="696"/>
      <point x="243" y="728"/>
      <point x="195" y="746"/>
      <point x="166" y="746" type="qcurve"/>
      <point x="110" y="746"/>
      <point x="41" y="684"/>
      <point x="36" y="628" type="qcurve"/>
      <point x="125" y="628" type="line"/>
      <point x="129" y="650"/>
      <point x="148" y="668"/>
      <point x="167" y="668" type="qcurve"/>
      <point x="186" y="668"/>
      <point x="210" y="647"/>
      <point x="210" y="630" type="qcurve"/>
      <point x="210" y="608"/>
      <point x="175" y="588"/>
      <point x="135" y="588" type="qcurve"/>
      <point x="127" y="588" type="line"/>
      <point x="127" y="506" type="line"/>
      <point x="148" y="506" type="line"/>
      <point x="192" y="506"/>
      <point x="243" y="468"/>
      <point x="243" y="436" type="qcurve"/>
      <point x="243" y="421"/>
      <point x="232" y="396"/>
      <point x="212" y="377"/>
      <point x="185" y="367"/>
      <point x="169" y="367" type="qcurve"/>
      <point x="136" y="367"/>
      <point x="96" y="403"/>
      <point x="91" y="435" type="qcurve"/>
    </contour>
  </outline>
</glyph>
<glyph name="acute" format="2">
  <advance width="406"/>
  <unicode hex="00B4"/>
  <outline>
    <contour>
      <point x="115" y="613" type="line"/>
      <point x="342" y="733" type="line"/>
      <point x="288" y="825" type="line"/>
      <point x="64" y="691" type="line"/>
    </contour>
  </outline>
</glyph>
<glyph name="mu" format="2">
  <advance width="601"/>
  <unicode hex="00B5"/>
  <outline>
    <contour>
      <point x="54" y="-185" type="line"/>
      <point x="187" y="-185" type="line"/>
      <point x="187" y="52" type="line"/>
      <point x="212" y="17"/>
      <point x="265" y="-13"/>
      <point x="300" y="-13" type="qcurve"/>
      <point x="338" y="-13"/>
      <point x="394" y="16"/>
      <point x="424" y="53" type="qcurve"/>
      <point x="424" y="0" type="line"/>
      <point x="547" y="0" type="line"/>
      <point x="547" y="554" type="line"/>
      <point x="414" y="554" type="line"/>
      <point x="414" y="293" type="line"/>
      <point x="414" y="241"/>
      <point x="406" y="181"/>
      <point x="397" y="162" type="qcurve"/>
      <point x="384" y="137"/>
      <point x="336" y="109"/>
      <point x="306" y="109" type="qcurve"/>
      <point x="278" y="109"/>
      <point x="229" y="136"/>
      <point x="211" y="162" type="qcurve"/>
      <point x="203" y="173"/>
      <point x="194" y="193"/>
      <point x="189" y="221"/>
      <point x="187" y="262"/>
      <point x="187" y="293" type="qcurve"/>
      <point x="187" y="554" type="line"/>
      <point x="54" y="554" type="line"/>
    </contour>
  </outline>
</glyph>
<glyph name="paragraph" format="2">
  <advance width="600"/>
  <unicode hex="00B6"/>
  <outline>
    <contour>
      <point x="241" y="-128" type="line"/>
      <point x="342" y="-128" type="line"/>
      <point x="342" y="632" type="line"/>
      <point x="426" y="632" type="line"/>
      <point x="426" y="-128" type="line"/>
      <point x="527" y="-128" type="line"/>
      <point x="527" y="739" type="line"/>
      <point x="309" y="739" type="line"/>
      <point x="252" y="739"/>
      <point x="168" y="725"/>
      <point x="140" y="711" type="qcurve"/>
      <point x="91" y="686"/>
      <point x="37" y="593"/>
      <point x="37" y="533" type="qcurve"/>
      <point x="37" y="488"/>
      <point x="66" y="414"/>
      <point x="120" y="361"/>
      <point x="195" y="331"/>
      <point x="241" y="330" type="qcurve"/>
    </contour>
  </outline>
</glyph>
<glyph name="periodcentered" format="2">
  <advance width="281"/>
  <unicode hex="00B7"/>
  <outline>
    <contour>
      <point x="74" y="300" type="line"/>
      <point x="207" y="300" type="line"/>
      <point x="207" y="433" type="line"/>
      <point x="74" y="433" type="line"/>
    </contour>
  </outline>
</glyph>
<glyph name="cedilla" format="2">
  <advance width="324"/>
  <unicode hex="00B8"/>
  <outline>
    <contour>
      <point x="64" y="-166" type="line"/>
      <point x="70" y="-204"/>
      <point x="126" y="-251"/>
      <point x="164" y="-251" type="qcurve"/>
      <point x="207" y="-251"/>
      <point x="260" y="-196"/>
      <point x="260" y="-152" type="qcurve"/>
      <point x="260" y="-131"/>
      <point x="246" y="-95"/>
      <point x="221" y="-67"/>
      <point x="188" y="-51"/>
      <point x="169" y="-51" type="qcurve"/>
      <point x="163" y="-51"/>
      <point x="151" y="-54"/>
      <point x="140" y="-58" type="qcurve"/>
      <point x="161" y="0" type="line"/>
      <point x="109" y="0" type="line"/>
      <point x="73" y="-107" type="line"/>
      <point x="125" y="-133" type="line"/>
      <point x="136" y="-118"/>
      <point x="153" y="-106"/>
      <point x="164" y="-106" type="qcurve"/>
      <point x="180" y="-106"/>
      <point x="202" y="-132"/>
      <point x="202" y="-150" type="qcurve"/>
      <point x="202" y="-169"/>
      <point x="179" y="-196"/>
      <point x="163" y="-196" type="qcurve"/>
      <point x="150" y="-196"/>
      <point x="132" y="-181"/>
      <point x="125" y="-166" type="qcurve"/>
    </contour>
  </outline>
</glyph>
<glyph name="onesuperior" format="2">
  <advance width="336"/>
  <unicode hex="00B9"/>
  <outline>
    <contour>
      <point x="140" y="296" type="line"/>
      <point x="228" y="296" type="line"/>
      <point x="228" y="739" type="line"/>
      <point x="81" y="739" type="line"/>
      <point x="81" y="659" type="line"/>
      <point x="140" y="659" type="line"/>
    </contour>
  </outline>
</glyph>
<glyph name="ordmasculine" format="2">
  <advance width="367"/>
  <unicode hex="00BA"/>
  <outline>
    <contour>
      <point x="184" y="442" type="qcurve"/>
      <point x="216" y="442"/>
      <point x="272" y="466"/>
      <point x="313" y="508"/>
      <point x="337" y="565"/>
      <point x="337" y="597" type="qcurve"/>
      <point x="337" y="629"/>
      <point x="313" y="684"/>
      <point x="272" y="726"/>
      <point x="217" y="750"/>
      <point x="186" y="750" type="qcurve"/>
      <point x="153" y="750"/>
      <point x="96" y="726"/>
      <point x="54" y="685"/>
      <point x="30" y="630"/>
      <point x="30" y="598" type="qcurve"/>
      <point x="30" y="566"/>
      <point x="54" y="509"/>
      <point x="96" y="467"/>
      <point x="152" y="442"/>
    </contour>
    <contour>
      <point x="184" y="516" type="qcurve"/>
      <point x="149" y="516"/>
      <point x="103" y="562"/>
      <point x="103" y="598" type="qcurve"/>
      <point x="103" y="615"/>
      <point x="116" y="645"/>
      <point x="137" y="667"/>
      <point x="166" y="680"/>
      <point x="182" y="680" type="qcurve"/>
      <point x="216" y="680"/>
      <point x="264" y="632"/>
      <point x="264" y="598" type="qcurve"/>
      <point x="264" y="562"/>
      <point x="219" y="516"/>
    </contour>
    <contour>
      <point x="30" y="311" type="line"/>
      <point x="337" y="311" type="line"/>
      <point x="337" y="381" type="line"/>
      <point x="30" y="381" type="line"/>
    </contour>
  </outline>
</glyph>
<glyph name="guillemetright" format="2">
  <advance width="460"/>
  <unicode hex="00BB"/>
  <outline>
    <contour>
      <point x="258" y="469" type="line"/>
      <point x="258" y="346" type="line"/>
      <point x="325" y="288" type="line"/>
      <point x="258" y="231" type="line"/>
      <point x="258" y="108" type="line"/>
      <point x="397" y="238" type="line"/>
      <point x="397" y="338" type="line"/>
    </contour>
    <contour>
      <point x="45" y="469" type="line"/>
      <point x="45" y="346" type="line"/>
      <point x="112" y="288" type="line"/>
      <point x="45" y="231" type="line"/>
      <point x="45" y="108" type="line"/>
      <point x="184" y="238" type="line"/>
      <point x="184" y="338" type="line"/>
    </contour>
  </outline>
</glyph>
<glyph name="onequarter" format="2">
  <advance width="840"/>
  <unicode hex="00BC"/>
  <outline>
    <contour>
      <point x="110" y="296" type="line"/>
      <point x="198" y="296" type="line"/>
      <point x="198" y="739" type="line"/>
      <point x="51" y="739" type="line"/>
      <point x="51" y="659" type="line"/>
      <point x="110" y="659" type="line"/>
    </contour>
    <contour>
      <point x="177" y="0" type="line"/>
      <point x="272" y="0" type="line"/>
      <point x="578" y="739" type="line"/>
      <point x="483" y="739" type="line"/>
    </contour>
    <contour>
      <point x="463" y="66" type="line"/>
      <point x="657" y="66" type="line"/>
      <point x="657" y="0" type="line"/>
      <point x="745" y="0" type="line"/>
      <point x="745" y="66" type="line"/>
      <point x="793" y="66" type="line"/>
      <point x="793" y="142" type="line"/>
      <point x="745" y="142" type="line"/>
      <point x="745" y="443" type="line"/>
      <point x="671" y="443" type="line"/>
      <point x="463" y="133" type="line"/>
    </contour>
    <contour>
      <point x="555" y="142" type="line"/>
      <point x="657" y="296" type="line"/>
      <point x="657" y="142" type="line"/>
    </contour>
  </outline>
</glyph>
<glyph name="onehalf" format="2">
  <advance width="840"/>
  <unicode hex="00BD"/>
  <outline>
    <contour>
      <point x="106" y="296" type="line"/>
      <point x="194" y="296" type="line"/>
      <point x="194" y="739" type="line"/>
      <point x="47" y="739" type="line"/>
      <point x="47" y="659" type="line"/>
      <point x="106" y="659" type="line"/>
    </contour>
    <contour>
      <point x="152" y="0" type="line"/>
      <point x="247" y="0" type="line"/>
      <point x="553" y="739" type="line"/>
      <point x="458" y="739" type="line"/>
    </contour>
    <contour>
      <point x="470" y="0" type="line"/>
      <point x="781" y="0" type="line"/>
      <point x="781" y="80" type="line"/>
      <point x="600" y="80" type="line"/>
      <point x="694" y="155" type="line"/>
      <point x="738" y="190"/>
      <point x="783" y="266"/>
      <point x="783" y="305" type="qcurve"/>
      <point x="783" y="336"/>
      <point x="759" y="390"/>
      <point x="717" y="429"/>
      <point x="660" y="451"/>
      <point x="626" y="451" type="qcurve"/>
      <point x="552" y="451"/>
      <point x="467" y="363"/>
      <point x="467" y="286" type="qcurve"/>
      <point x="554" y="286" type="line"/>
      <point x="555" y="327"/>
      <point x="593" y="372"/>
      <point x="627" y="372" type="qcurve"/>
      <point x="656" y="372"/>
      <point x="695" y="335"/>
      <point x="695" y="307" type="qcurve"/>
      <point x="695" y="297"/>
      <point x="689" y="278"/>
      <point x="676" y="257"/>
      <point x="655" y="235"/>
      <point x="640" y="222" type="qcurve"/>
      <point x="470" y="74" type="line"/>
    </contour>
  </outline>
</glyph>
<glyph name="threequarters" format="2">
  <advance width="840"/>
  <unicode hex="00BE"/>
  <outline>
    <contour>
      <point x="6" y="435" type="line"/>
      <point x="10" y="369"/>
      <point x="101" y="288"/>
      <point x="172" y="288" type="qcurve"/>
      <point x="207" y="288"/>
      <point x="266" y="311"/>
      <point x="309" y="351"/>
      <point x="333" y="406"/>
      <point x="333" y="439" type="qcurve"/>
      <point x="333" y="478"/>
      <point x="299" y="536"/>
      <point x="267" y="551" type="qcurve"/>
      <point x="284" y="564"/>
      <point x="301" y="601"/>
      <point x="301" y="625" type="qcurve"/>
      <point x="301" y="651"/>
      <point x="281" y="696"/>
      <point x="246" y="728"/>
      <point x="198" y="746"/>
      <point x="169" y="746" type="qcurve"/>
      <point x="113" y="746"/>
      <point x="44" y="684"/>
      <point x="39" y="628" type="qcurve"/>
      <point x="128" y="628" type="line"/>
      <point x="132" y="650"/>
      <point x="151" y="668"/>
      <point x="170" y="668" type="qcurve"/>
      <point x="189" y="668"/>
      <point x="213" y="647"/>
      <point x="213" y="630" type="qcurve"/>
      <point x="213" y="608"/>
      <point x="178" y="588"/>
      <point x="137" y="588" type="qcurve"/>
      <point x="130" y="588" type="line"/>
      <point x="130" y="506" type="line"/>
      <point x="151" y="506" type="line"/>
      <point x="195" y="506"/>
      <point x="246" y="468"/>
      <point x="246" y="436" type="qcurve"/>
      <point x="246" y="421"/>
      <point x="235" y="396"/>
      <point x="215" y="377"/>
      <point x="188" y="367"/>
      <point x="172" y="367" type="qcurve"/>
      <point x="139" y="367"/>
      <point x="99" y="403"/>
      <point x="94" y="435" type="qcurve"/>
    </contour>
    <contour>
      <point x="252" y="0" type="line"/>
      <point x="347" y="0" type="line"/>
      <point x="653" y="739" type="line"/>
      <point x="558" y="739" type="line"/>
    </contour>
    <contour>
      <point x="508" y="66" type="line"/>
      <point x="702" y="66" type="line"/>
      <point x="702" y="0" type="line"/>
      <point x="790" y="0" type="line"/>
      <point x="790" y="66" type="line"/>
      <point x="838" y="66" type="line"/>
      <point x="838" y="142" type="line"/>
      <point x="790" y="142" type="line"/>
      <point x="790" y="443" type="line"/>
      <point x="716" y="443" type="line"/>
      <point x="508" y="133" type="line"/>
    </contour>
    <contour>
      <point x="600" y="142" type="line"/>
      <point x="702" y="296" type="line"/>
      <point x="702" y="142" type="line"/>
    </contour>
  </outline>
</glyph>
<glyph name="questiondown" format="2">
  <advance width="519"/>
  <unicode hex="00BF"/>
  <outline>
    <contour>
      <point x="355" y="34" type="line"/>
      <point x="349" y="-17"/>
      <point x="304" y="-66"/>
      <point x="263" y="-66" type="qcurve"/>
      <point x="242" y="-66"/>
      <point x="207" y="-52"/>
      <point x="182" y="-27"/>
      <point x="168" y="7"/>
      <point x="168" y="27" type="qcurve"/>
      <point x="168" y="39"/>
      <point x="174" y="61"/>
      <point x="185" y="82"/>
      <point x="202" y="102"/>
      <point x="213" y="112" type="qcurve"/>
      <point x="250" y="144"/>
      <point x="297" y="196"/>
      <point x="325" y="249"/>
      <point x="335" y="311"/>
      <point x="335" y="352" type="qcurve"/>
      <point x="335" y="367" type="line"/>
      <point x="202" y="367" type="line"/>
      <point x="202" y="354" type="line"/>
      <point x="202" y="327"/>
      <point x="197" y="289"/>
      <point x="182" y="257"/>
      <point x="157" y="228"/>
      <point x="137" y="210" type="qcurve"/>
      <point x="108" y="185"/>
      <point x="69" y="141"/>
      <point x="45" y="99"/>
      <point x="35" y="56"/>
      <point x="35" y="31" type="qcurve"/>
      <point x="35" y="-18"/>
      <point x="69" y="-102"/>
      <point x="129" y="-163"/>
      <point x="212" y="-198"/>
      <point x="260" y="-198" type="qcurve"/>
      <point x="309" y="-198"/>
      <point x="389" y="-166"/>
      <point x="447" y="-106"/>
      <point x="483" y="-20"/>
      <point x="488" y="34" type="qcurve"/>
    </contour>
    <contour>
      <point x="202" y="426" type="line"/>
      <point x="335" y="426" type="line"/>
      <point x="335" y="554" type="line"/>
      <point x="202" y="554" type="line"/>
    </contour>
  </outline>
</glyph>
<glyph name="Atilde" format="2">
  <advance width="740"/>
  <unicode hex="00C3"/>
  <outline>
    <contour>
      <point x="7" y="0" type="line"/>
      <point x="158" y="0" type="line"/>
      <point x="240" y="191" type="line"/>
      <point x="503" y="191" type="line"/>
      <point x="582" y="0" type="line"/>
      <point x="733" y="0" type="line"/>
      <point x="423" y="739" type="line"/>
      <point x="315" y="739" type="line"/>
    </contour>
    <contour>
      <point x="290" y="322" type="line"/>
      <point x="369" y="546" type="line"/>
      <point x="448" y="322" type="line"/>
    </contour>
    <contour>
      <point x="259" y="811" type="line"/>
      <point x="273" y="820"/>
      <point x="291" y="830"/>
      <point x="305" y="835"/>
      <point x="319" y="836"/>
      <point x="329" y="836" type="qcurve"/>
      <point x="341" y="836"/>
      <point x="361" y="832"/>
      <point x="383" y="824" type="qcurve"/>
      <point x="403" y="817"/>
      <point x="431" y="811"/>
      <point x="442" y="811" type="qcurve"/>
      <point x="468" y="811"/>
      <point x="512" y="836"/>
      <point x="536" y="866" type="qcurve"/>
      <point x="482" y="947" type="line"/>
      <point x="466" y="929"/>
      <point x="435" y="913"/>
      <point x="415" y="913" type="qcurve"/>
      <point x="404" y="913"/>
      <point x="382" y="918"/>
      <point x="368" y="924" type="qcurve"/>
      <point x="346" y="933"/>
      <point x="325" y="938"/>
      <point x="308" y="938" type="qcurve"/>
      <point x="276" y="938"/>
      <point x="232" y="918"/>
      <point x="205" y="891" type="qcurve"/>
    </contour>
  </outline>
</glyph>
<glyph name="Aring" format="2">
  <advance width="740"/>
  <unicode hex="00C5"/>
  <outline>
    <contour>
      <point x="7" y="0" type="line"/>
      <point x="158" y="0" type="line"/>
      <point x="240" y="191" type="line"/>
      <point x="503" y="191" type="line"/>
      <point x="582" y="0" type="line"/>
      <point x="733" y="0" type="line"/>
      <point x="423" y="739" type="line"/>
      <point x="315" y="739" type="line"/>
    </contour>
    <contour>
      <point x="290" y="322" type="line"/>
      <point x="369" y="546" type="line"/>
      <point x="448" y="322" type="line"/>
    </contour>
    <contour>
      <point x="370" y="785" type="qcurve"/>
      <point x="391" y="785"/>
      <point x="429" y="801"/>
      <point x="457" y="829"/>
      <point x="473" y="867"/>
      <point x="473" y="888" type="qcurve"/>
      <point x="473" y="909"/>
      <point x="457" y="947"/>
      <point x="429" y="975"/>
      <point x="392" y="991"/>
      <point x="371" y="991" type="qcurve"/>
      <point x="349" y="991"/>
      <point x="311" y="975"/>
      <point x="283" y="947"/>
      <point x="267" y="909"/>
      <point x="267" y="888" type="qcurve"/>
      <point x="267" y="867"/>
      <point x="283" y="829"/>
      <point x="311" y="801"/>
      <point x="349" y="785"/>
    </contour>
    <contour>
      <point x="334" y="888" type="qcurve"/>
      <point x="334" y="903"/>
      <point x="354" y="924"/>
      <point x="369" y="924" type="qcurve"/>
      <point x="385" y="924"/>
      <point x="406" y="903"/>
      <point x="406" y="888" type="qcurve"/>
      <point x="406" y="873"/>
      <point x="385" y="852"/>
      <point x="370" y="852" type="qcurve"/>
      <point x="355" y="852"/>
      <point x="334" y="873"/>
    </contour>
  </outline>
</glyph>
<glyph name="AE" format="2">
  <advance width="884"/>
  <unicode hex="00C6"/>
  <outline>
    <contour>
      <point x="2" y="0" type="line"/>
      <point x="167" y="0" type="line"/>
      <point x="279" y="191" type="line"/>
      <point x="473" y="191" type="line"/>
      <point x="473" y="0" type="line"/>
      <point x="828" y="0" type="line"/>
      <point x="828" y="131" type="line"/>
      <point x="610" y="131" type="line"/>
      <point x="610" y="303" type="line"/>
      <point x="817" y="303" type="line"/>
      <point x="817" y="434" type="line"/>
      <point x="610" y="434" type="line"/>
      <point x="610" y="608" type="line"/>
      <point x="828" y="608" type="line"/>
      <point x="828" y="739" type="line"/>
      <point x="489" y="739" type="line"/>
    </contour>
    <contour>
      <point x="358" y="322" type="line"/>
      <point x="473" y="513" type="line"/>
      <point x="473" y="322" type="line"/>
    </contour>
  </outline>
</glyph>
<glyph name="Ccedilla" format="2">
  <advance width="802"/>
  <unicode hex="00C7"/>
  <outline>
    <contour>
      <point x="313" y="-166" type="line"/>
      <point x="319" y="-204"/>
      <point x="375" y="-251"/>
      <point x="413" y="-251" type="qcurve"/>
      <point x="456" y="-251"/>
      <point x="509" y="-196"/>
      <point x="509" y="-152" type="qcurve"/>
      <point x="509" y="-131"/>
      <point x="495" y="-95"/>
      <point x="470" y="-67"/>
      <point x="437" y="-51"/>
      <point x="418" y="-51" type="qcurve"/>
      <point x="412" y="-51"/>
      <point x="400" y="-54"/>
      <point x="389" y="-58" type="qcurve"/>
      <point x="405" y="-13" type="line"/>
      <point x="534" y="-13"/>
      <point x="719" y="100"/>
      <point x="766" y="206" type="qcurve"/>
      <point x="605" y="206" type="line"/>
      <point x="559" y="159"/>
      <point x="476" y="119"/>
      <point x="422" y="119" type="qcurve"/>
      <point x="371" y="119"/>
      <point x="281" y="159"/>
      <point x="213" y="227"/>
      <point x="174" y="319"/>
      <point x="174" y="371" type="qcurve"/>
      <point x="174" y="424"/>
      <point x="211" y="515"/>
      <point x="277" y="582"/>
      <point x="367" y="620"/>
      <point x="419" y="620" type="qcurve"/>
      <point x="484" y="620"/>
      <point x="575" y="576"/>
      <point x="613" y="527" type="qcurve"/>
      <point x="766" y="527" type="line"/>
      <point x="742" y="580"/>
      <point x="671" y="664"/>
      <point x="581" y="722"/>
      <point x="475" y="752"/>
      <point x="416" y="752" type="qcurve"/>
      <point x="338" y="752"/>
      <point x="199" y="692"/>
      <point x="96" y="589"/>
      <point x="36" y="450"/>
      <point x="36" y="372" type="qcurve"/>
      <point x="36" y="302"/>
      <point x="85" y="174"/>
      <point x="171" y="72"/>
      <point x="288" y="3"/>
      <point x="355" y="-7" type="qcurve"/>
      <point x="322" y="-107" type="line"/>
      <point x="375" y="-133" type="line"/>
      <point x="385" y="-118"/>
      <point x="402" y="-106"/>
      <point x="413" y="-106" type="qcurve"/>
      <point x="429" y="-106"/>
      <point x="451" y="-132"/>
      <point x="451" y="-150" type="qcurve"/>
      <point x="451" y="-170"/>
      <point x="429" y="-196"/>
      <point x="412" y="-196" type="qcurve"/>
      <point x="399" y="-196"/>
      <point x="381" y="-181"/>
      <point x="375" y="-166" type="qcurve"/>
    </contour>
  </outline>
</glyph>
<glyph name="Eacute" format="2">
  <advance width="524"/>
  <unicode hex="00C9"/>
  <outline>
    <contour>
      <point x="71" y="0" type="line"/>
      <point x="468" y="0" type="line"/>
      <point x="468" y="131" type="line"/>
      <point x="208" y="131" type="line"/>
      <point x="208" y="303" type="line"/>
      <point x="457" y="303" type="line"/>
      <point x="457" y="434" type="line"/>
      <point x="208" y="434" type="line"/>
      <point x="208" y="608" type="line"/>
      <point x="468" y="608" type="line"/>
      <point x="468" y="739" type="line"/>
      <point x="71" y="739" type="line"/>
    </contour>
    <contour>
      <point x="228" y="788" type="line"/>
      <point x="455" y="908" type="line"/>
      <point x="401" y="1000" type="line"/>
      <point x="177" y="866" type="line"/>
    </contour>
  </outline>
</glyph>
<glyph name="Ecircumflex" format="2">
  <advance width="524"/>
  <unicode hex="00CA"/>
  <outline>
    <contour>
      <point x="71" y="0" type="line"/>
      <point x="468" y="0" type="line"/>
      <point x="468" y="131" type="line"/>
      <point x="208" y="131" type="line"/>
      <point x="208" y="303" type="line"/>
      <point x="457" y="303" type="line"/>
      <point x="457" y="434" type="line"/>
      <point x="208" y="434" type="line"/>
      <point x="208" y="608" type="line"/>
      <point x="468" y="608" type="line"/>
      <point x="468" y="739" type="line"/>
      <point x="71" y="739" type="line"/>
    </contour>
    <contour>
      <point x="67" y="805" type="line"/>
      <point x="214" y="805" type="line"/>
      <point x="268" y="869" type="line"/>
      <point x="321" y="805" type="line"/>
      <point x="466" y="805" type="line"/>
      <point x="321" y="943" type="line"/>
      <point x="214" y="943" type="line"/>
    </contour>
  </outline>
</glyph>
<glyph name="Igrave" format="2">
  <advance width="279"/>
  <unicode hex="00CC"/>
  <outline>
    <contour>
      <point x="71" y="0" type="line"/>
      <point x="208" y="0" type="line"/>
      <point x="208" y="739" type="line"/>
      <point x="71" y="739" type="line"/>
    </contour>
    <contour>
      <point x="7" y="912" type="line"/>
      <point x="233" y="788" type="line"/>
      <point x="286" y="867" type="line"/>
      <point x="64" y="1000" type="line"/>
    </contour>
  </outline>
</glyph>
<glyph name="Iacute" format="2">
  <advance width="279"/>
  <unicode hex="00CD"/>
  <outline>
    <contour>
      <point x="71" y="0" type="line"/>
      <point x="208" y="0" type="line"/>
      <point x="208" y="739" type="line"/>
      <point x="71" y="739" type="line"/>
    </contour>
    <contour>
      <point x="58" y="788" type="line"/>
      <point x="285" y="908" type="line"/>
      <point x="231" y="1000" type="line"/>
      <point x="7" y="866" type="line"/>
    </contour>
  </outline>
</glyph>
<glyph name="Icircumflex" format="2">
  <advance width="279"/>
  <unicode hex="00CE"/>
  <outline>
    <contour>
      <point x="71" y="0" type="line"/>
      <point x="208" y="0" type="line"/>
      <point x="208" y="739" type="line"/>
      <point x="71" y="739" type="line"/>
    </contour>
    <contour>
      <point x="-60" y="805" type="line"/>
      <point x="87" y="805" type="line"/>
      <point x="141" y="869" type="line"/>
      <point x="194" y="805" type="line"/>
      <point x="339" y="805" type="line"/>
      <point x="194" y="943" type="line"/>
      <point x="87" y="943" type="line"/>
    </contour>
  </outline>
</glyph>
<glyph name="Eth" format="2">
  <advance width="744"/>
  <unicode hex="00D0"/>
  <outline>
    <contour>
      <point x="116" y="0" type="line"/>
      <point x="288" y="0" type="line"/>
      <point x="392" y="0"/>
      <point x="550" y="46"/>
      <point x="655" y="139"/>
      <point x="708" y="277"/>
      <point x="708" y="368" type="qcurve"/>
      <point x="708" y="553"/>
      <point x="495" y="739"/>
      <point x="285" y="739" type="qcurve"/>
      <point x="116" y="739" type="line"/>
      <point x="116" y="422" type="line"/>
      <point x="20" y="422" type="line"/>
      <point x="20" y="315" type="line"/>
      <point x="116" y="315" type="line"/>
    </contour>
    <contour>
      <point x="253" y="131" type="line"/>
      <point x="253" y="315" type="line"/>
      <point x="407" y="315" type="line"/>
      <point x="407" y="422" type="line"/>
      <point x="253" y="422" type="line"/>
      <point x="253" y="608" type="line"/>
      <point x="280" y="608" type="line"/>
      <point x="428" y="608"/>
      <point x="570" y="491"/>
      <point x="570" y="368" type="qcurve"/>
      <point x="570" y="248"/>
      <point x="428" y="131"/>
      <point x="283" y="131" type="qcurve"/>
    </contour>
  </outline>
</glyph>
<glyph name="Ntilde" format="2">
  <advance width="741"/>
  <unicode hex="00D1"/>
  <outline>
    <contour>
      <point x="71" y="0" type="line"/>
      <point x="208" y="0" type="line"/>
      <point x="208" y="537" type="line"/>
      <point x="517" y="0" type="line"/>
      <point x="670" y="0" type="line"/>
      <point x="670" y="739" type="line"/>
      <point x="533" y="739" type="line"/>
      <point x="533" y="201" type="line"/>
      <point x="227" y="739" type="line"/>
      <point x="71" y="739" type="line"/>
    </contour>
    <contour>
      <point x="266" y="811" type="line"/>
      <point x="280" y="820"/>
      <point x="298" y="830"/>
      <point x="312" y="835"/>
      <point x="326" y="836"/>
      <point x="336" y="836" type="qcurve"/>
      <point x="348" y="836"/>
      <point x="368" y="832"/>
      <point x="390" y="824" type="qcurve"/>
      <point x="410" y="817"/>
      <point x="438" y="811"/>
      <point x="449" y="811" type="qcurve"/>
      <point x="475" y="811"/>
      <point x="519" y="836"/>
      <point x="543" y="866" type="qcurve"/>
      <point x="489" y="947" type="line"/>
      <point x="473" y="929"/>
      <point x="442" y="913"/>
      <point x="422" y="913" type="qcurve"/>
      <point x="411" y="913"/>
      <point x="389" y="918"/>
      <point x="375" y="924" type="qcurve"/>
      <point x="353" y="933"/>
      <point x="332" y="938"/>
      <point x="315" y="938" type="qcurve"/>
      <point x="283" y="938"/>
      <point x="239" y="918"/>
      <point x="212" y="891" type="qcurve"/>
    </contour>
  </outline>
</glyph>
<glyph name="Ograve" format="2">
  <advance width="842"/>
  <unicode hex="00D2"/>
  <outline>
    <contour>
      <point x="282" y="912" type="line"/>
      <point x="508" y="788" type="line"/>
      <point x="561" y="867" type="line"/>
      <point x="339" y="1000" type="line"/>
    </contour>
    <contour>
      <point x="36" y="369" type="qcurve"/>
      <point x="36" y="289"/>
      <point x="96" y="150"/>
      <point x="202" y="46"/>
      <point x="343" y="-13"/>
      <point x="425" y="-13" type="qcurve"/>
      <point x="506" y="-13"/>
      <point x="645" y="46"/>
      <point x="747" y="149"/>
      <point x="806" y="289"/>
      <point x="806" y="370" type="qcurve"/>
      <point x="806" y="449"/>
      <point x="747" y="588"/>
      <point x="644" y="692"/>
      <point x="506" y="752"/>
      <point x="427" y="752" type="qcurve"/>
      <point x="344" y="752"/>
      <point x="201" y="693"/>
      <point x="96" y="590"/>
      <point x="36" y="450"/>
    </contour>
    <contour>
      <point x="174" y="370" type="qcurve"/>
      <point x="174" y="422"/>
      <point x="212" y="513"/>
      <point x="278" y="581"/>
      <point x="367" y="620"/>
      <point x="418" y="620" type="qcurve"/>
      <point x="472" y="620"/>
      <point x="564" y="582"/>
      <point x="630" y="515"/>
      <point x="668" y="422"/>
      <point x="668" y="368" type="qcurve"/>
      <point x="668" y="314"/>
      <point x="631" y="223"/>
      <point x="566" y="157"/>
      <point x="477" y="119"/>
      <point x="424" y="119" type="qcurve"/>
      <point x="371" y="119"/>
      <point x="280" y="158"/>
      <point x="213" y="226"/>
      <point x="174" y="317"/>
    </contour>
  </outline>
</glyph>
<glyph name="Oslash" format="2">
  <advance width="845"/>
  <unicode hex="00D8"/>
  <outline>
    <contour>
      <point x="36" y="370" type="qcurve"/>
      <point x="36" y="289"/>
      <point x="102" y="141"/>
      <point x="162" y="87" type="qcurve"/>
      <point x="103" y="0" type="line"/>
      <point x="199" y="-65" type="line"/>
      <point x="259" y="23" type="line"/>
      <point x="299" y="5"/>
      <point x="382" y="-13"/>
      <point x="427" y="-13" type="qcurve"/>
      <point x="508" y="-13"/>
      <point x="647" y="46"/>
      <point x="750" y="149"/>
      <point x="809" y="289"/>
      <point x="809" y="370" type="qcurve"/>
      <point x="809" y="453"/>
      <point x="745" y="597"/>
      <point x="683" y="653" type="qcurve"/>
      <point x="744" y="743" type="line"/>
      <point x="649" y="809" type="line"/>
      <point x="587" y="717" type="line"/>
      <point x="544" y="735"/>
      <point x="465" y="752"/>
      <point x="422" y="752" type="qcurve"/>
      <point x="342" y="752"/>
      <point x="201" y="692"/>
      <point x="96" y="589"/>
      <point x="36" y="450"/>
    </contour>
    <contour>
      <point x="174" y="370" type="qcurve"/>
      <point x="174" y="423"/>
      <point x="212" y="514"/>
      <point x="279" y="581"/>
      <point x="370" y="620"/>
      <point x="422" y="620" type="qcurve"/>
      <point x="446" y="620"/>
      <point x="489" y="613"/>
      <point x="511" y="605" type="qcurve"/>
      <point x="239" y="201" type="line"/>
      <point x="207" y="237"/>
      <point x="174" y="324"/>
    </contour>
    <contour>
      <point x="335" y="135" type="qcurve"/>
      <point x="607" y="540" type="line"/>
      <point x="639" y="503"/>
      <point x="671" y="417"/>
      <point x="671" y="368" type="qcurve"/>
      <point x="671" y="315"/>
      <point x="634" y="224"/>
      <point x="568" y="157"/>
      <point x="478" y="119"/>
      <point x="426" y="119" type="qcurve"/>
      <point x="402" y="119"/>
      <point x="360" y="127"/>
    </contour>
  </outline>
</glyph>
<glyph name="Ugrave" format="2">
  <advance width="641"/>
  <unicode hex="00D9"/>
  <outline>
    <contour>
      <point x="141" y="912" type="line"/>
      <point x="367" y="788" type="line"/>
      <point x="420" y="867" type="line"/>
      <point x="198" y="1000" type="line"/>
    </contour>
    <contour>
      <point x="71" y="739" type="line"/>
      <point x="71" y="271" type="line"/>
      <point x="71" y="205"/>
      <point x="105" y="99"/>
      <point x="169" y="26"/>
      <point x="262" y="-13"/>
      <point x="320" y="-13" type="qcurve"/>
      <point x="438" y="-13"/>
      <point x="570" y="137"/>
      <point x="570" y="271" type="qcurve"/>
      <point x="570" y="739" type="line"/>
      <point x="433" y="739" type="line"/>
      <point x="433" y="271" type="line"/>
      <point x="433" y="193"/>
      <point x="378" y="119"/>
      <point x="320" y="119" type="qcurve"/>
      <point x="263" y="119"/>
      <point x="208" y="193"/>
      <point x="208" y="271" type="qcurve"/>
      <point x="208" y="739" type="line"/>
    </contour>
  </outline>
</glyph>
<glyph name="Ucircumflex" format="2">
  <advance width="641"/>
  <unicode hex="00DB"/>
  <outline>
    <contour>
      <point x="121" y="805" type="line"/>
      <point x="268" y="805" type="line"/>
      <point x="322" y="869" type="line"/>
      <point x="375" y="805" type="line"/>
      <point x="520" y="805" type="line"/>
      <point x="375" y="943" type="line"/>
      <point x="268" y="943" type="line"/>
    </contour>
    <contour>
      <point x="71" y="739" type="line"/>
      <point x="71" y="271" type="line"/>
      <point x="71" y="205"/>
      <point x="105" y="99"/>
      <point x="169" y="26"/>
      <point x="262" y="-13"/>
      <point x="320" y="-13" type="qcurve"/>
      <point x="438" y="-13"/>
      <point x="570" y="137"/>
      <point x="570" y="271" type="qcurve"/>
      <point x="570" y="739" type="line"/>
      <point x="433" y="739" type="line"/>
      <point x="433" y="271" type="line"/>
      <point x="433" y="193"/>
      <point x="378" y="119"/>
      <point x="320" y="119" type="qcurve"/>
      <point x="263" y="119"/>
      <point x="208" y="193"/>
      <point x="208" y="271" type="qcurve"/>
      <point x="208" y="739" type="line"/>
    </contour>
  </outline>
</glyph>
<glyph name="Udieresis" format="2">
  <advance width="641"/>
  <unicode hex="00DC"/>
  <outline>
    <contour>
      <point x="149" y="805" type="line"/>
      <point x="282" y="805" type="line"/>
      <point x="282" y="938" type="line"/>
      <point x="149" y="938" type="line"/>
    </contour>
    <contour>
      <point x="359" y="805" type="line"/>
      <point x="492" y="805" type="line"/>
      <point x="492" y="938" type="line"/>
      <point x="359" y="938" type="line"/>
    </contour>
    <contour>
      <point x="71" y="739" type="line"/>
      <point x="71" y="271" type="line"/>
      <point x="71" y="205"/>
      <point x="105" y="99"/>
      <point x="169" y="26"/>
      <point x="262" y="-13"/>
      <point x="320" y="-13" type="qcurve"/>
      <point x="438" y="-13"/>
      <point x="570" y="137"/>
      <point x="570" y="271" type="qcurve"/>
      <point x="570" y="739" type="line"/>
      <point x="433" y="739" type="line"/>
      <point x="433" y="271" type="line"/>
      <point x="433" y="193"/>
      <point x="378" y="119"/>
      <point x="320" y="119" type="qcurve"/>
      <point x="263" y="119"/>
      <point x="208" y="193"/>
      <point x="208" y="271" type="qcurve"/>
      <point x="208" y="739" type="line"/>
    </contour>
  </outline>
</glyph>
<glyph name="Thorn" format="2">
  <advance width="576"/>
  <unicode hex="00DE"/>
  <outline>
    <contour>
      <point x="71" y="0" type="line"/>
      <point x="208" y="0" type="line"/>
      <point x="208" y="149" type="line"/>
      <point x="252" y="149" type="line"/>
      <point x="290" y="149"/>
      <point x="347" y="152"/>
      <point x="391" y="159"/>
      <point x="425" y="171"/>
      <point x="440" y="179" type="qcurve"/>
      <point x="488" y="206"/>
      <point x="543" y="313"/>
      <point x="543" y="380" type="qcurve"/>
      <point x="543" y="443"/>
      <point x="494" y="541"/>
      <point x="449" y="570" type="qcurve"/>
      <point x="416" y="591"/>
      <point x="329" y="608"/>
      <point x="254" y="608" type="qcurve"/>
      <point x="208" y="608" type="line"/>
      <point x="208" y="739" type="line"/>
      <point x="71" y="739" type="line"/>
    </contour>
    <contour>
      <point x="208" y="280" type="line"/>
      <point x="208" y="477" type="line"/>
      <point x="254" y="477" type="line"/>
      <point x="287" y="477"/>
      <point x="324" y="474"/>
      <point x="341" y="470" type="qcurve"/>
      <point x="371" y="462"/>
      <point x="405" y="413"/>
      <point x="405" y="377" type="qcurve"/>
      <point x="405" y="345"/>
      <point x="371" y="298"/>
      <point x="342" y="290" type="qcurve"/>
      <point x="326" y="285"/>
      <point x="280" y="280"/>
      <point x="248" y="280" type="qcurve"/>
    </contour>
  </outline>
</glyph>
<glyph name="germandbls" format="2">
  <advance width="616"/>
  <unicode hex="00DF"/>
  <outline>
    <contour>
      <point x="54" y="0" type="line"/>
      <point x="176" y="0" type="line"/>
      <point x="176" y="79" type="line"/>
      <point x="204" y="32"/>
      <point x="291" y="-13"/>
      <point x="353" y="-13" type="qcurve"/>
      <point x="404" y="-13"/>
      <point x="490" y="21"/>
      <point x="552" y="82"/>
      <point x="587" y="166"/>
      <point x="587" y="216" type="qcurve"/>
      <point x="587" y="291"/>
      <point x="501" y="389"/>
      <point x="418" y="408" type="qcurve"/>
      <point x="457" y="430"/>
      <point x="493" y="496"/>
      <point x="493" y="546" type="qcurve"/>
      <point x="493" y="590"/>
      <point x="460" y="665"/>
      <point x="401" y="721"/>
      <point x="321" y="752"/>
      <point x="275" y="752" type="qcurve"/>
      <point x="171" y="752"/>
      <point x="54" y="612"/>
      <point x="54" y="487" type="qcurve"/>
    </contour>
    <contour>
      <point x="187" y="189" type="line"/>
      <point x="187" y="503" type="line"/>
      <point x="187" y="567"/>
      <point x="230" y="630"/>
      <point x="274" y="630" type="qcurve"/>
      <point x="293" y="630"/>
      <point x="325" y="617"/>
      <point x="347" y="592"/>
      <point x="359" y="557"/>
      <point x="359" y="536" type="qcurve"/>
      <point x="359" y="491"/>
      <point x="308" y="433"/>
      <point x="269" y="433" type="qcurve"/>
      <point x="258" y="433" type="line"/>
      <point x="258" y="315" type="line"/>
      <point x="260" y="315"/>
      <point x="268" y="315"/>
      <point x="269" y="315" type="qcurve"/>
      <point x="366" y="315"/>
      <point x="453" y="263"/>
      <point x="453" y="205" type="qcurve"/>
      <point x="453" y="184"/>
      <point x="439" y="149"/>
      <point x="415" y="124"/>
      <point x="382" y="109"/>
      <point x="363" y="109" type="qcurve"/>
      <point x="329" y="109"/>
      <point x="276" y="154"/>
      <point x="269" y="189" type="qcurve"/>
    </contour>
  </outline>
</glyph>
<glyph name="atilde" format="2">
  <advance width="667"/>
  <unicode hex="00E3"/>
  <outline>
    <contour>
      <point x="232" y="636" type="line"/>
      <point x="246" y="645"/>
      <point x="264" y="655"/>
      <point x="278" y="660"/>
      <point x="292" y="661"/>
      <point x="302" y="661" type="qcurve"/>
      <point x="314" y="661"/>
      <point x="334" y="657"/>
      <point x="356" y="649" type="qcurve"/>
      <point x="376" y="642"/>
      <point x="404" y="636"/>
      <point x="415" y="636" type="qcurve"/>
      <point x="441" y="636"/>
      <point x="485" y="661"/>
      <point x="509" y="691" type="qcurve"/>
      <point x="455" y="772" type="line"/>
      <point x="439" y="754"/>
      <point x="408" y="738"/>
      <point x="388" y="738" type="qcurve"/>
      <point x="377" y="738"/>
      <point x="355" y="743"/>
      <point x="341" y="749" type="qcurve"/>
      <point x="319" y="758"/>
      <point x="298" y="763"/>
      <point x="281" y="763" type="qcurve"/>
      <point x="249" y="763"/>
      <point x="205" y="743"/>
      <point x="178" y="716" type="qcurve"/>
    </contour>
    <contour>
      <point x="28" y="275" type="qcurve"/>
      <point x="28" y="212"/>
      <point x="70" y="107"/>
      <point x="144" y="30"/>
      <point x="246" y="-13"/>
      <point x="307" y="-13" type="qcurve"/>
      <point x="366" y="-13"/>
      <point x="451" y="26"/>
      <point x="491" y="72" type="qcurve"/>
      <point x="491" y="0" type="line"/>
      <point x="613" y="0" type="line"/>
      <point x="613" y="554" type="line"/>
      <point x="491" y="554" type="line"/>
      <point x="491" y="480" type="line"/>
      <point x="456" y="526"/>
      <point x="371" y="567"/>
      <point x="310" y="567" type="qcurve"/>
      <point x="249" y="567"/>
      <point x="145" y="523"/>
      <point x="70" y="446"/>
      <point x="28" y="339"/>
    </contour>
    <contour>
      <point x="162" y="272" type="qcurve"/>
      <point x="162" y="310"/>
      <point x="186" y="373"/>
      <point x="229" y="419"/>
      <point x="287" y="445"/>
      <point x="322" y="445" type="qcurve"/>
      <point x="358" y="445"/>
      <point x="419" y="420"/>
      <point x="463" y="375"/>
      <point x="487" y="312"/>
      <point x="487" y="275" type="qcurve"/>
      <point x="487" y="238"/>
      <point x="464" y="177"/>
      <point x="421" y="133"/>
      <point x="362" y="109"/>
      <point x="326" y="109" type="qcurve"/>
      <point x="290" y="109"/>
      <point x="229" y="133"/>
      <point x="186" y="176"/>
      <point x="162" y="236"/>
    </contour>
  </outline>
</glyph>
<glyph name="adieresis" format="2">
  <advance width="667"/>
  <unicode hex="00E4"/>
  <outline>
    <contour>
      <point x="172" y="630" type="line"/>
      <point x="305" y="630" type="line"/>
      <point x="305" y="763" type="line"/>
      <point x="172" y="763" type="line"/>
    </contour>
    <contour>
      <point x="382" y="630" type="line"/>
      <point x="515" y="630" type="line"/>
      <point x="515" y="763" type="line"/>
      <point x="382" y="763" type="line"/>
    </contour>
    <contour>
      <point x="28" y="275" type="qcurve"/>
      <point x="28" y="212"/>
      <point x="70" y="107"/>
      <point x="144" y="30"/>
      <point x="246" y="-13"/>
      <point x="307" y="-13" type="qcurve"/>
      <point x="366" y="-13"/>
      <point x="451" y="26"/>
      <point x="491" y="72" type="qcurve"/>
      <point x="491" y="0" type="line"/>
      <point x="613" y="0" type="line"/>
      <point x="613" y="554" type="line"/>
      <point x="491" y="554" type="line"/>
      <point x="491" y="480" type="line"/>
      <point x="456" y="526"/>
      <point x="371" y="567"/>
      <point x="310" y="567" type="qcurve"/>
      <point x="249" y="567"/>
      <point x="145" y="523"/>
      <point x="70" y="446"/>
      <point x="28" y="339"/>
    </contour>
    <contour>
      <point x="162" y="272" type="qcurve"/>
      <point x="162" y="310"/>
      <point x="186" y="373"/>
      <point x="229" y="419"/>
      <point x="287" y="445"/>
      <point x="322" y="445" type="qcurve"/>
      <point x="358" y="445"/>
      <point x="419" y="420"/>
      <point x="463" y="375"/>
      <point x="487" y="312"/>
      <point x="487" y="275" type="qcurve"/>
      <point x="487" y="238"/>
      <point x="464" y="177"/>
      <point x="421" y="133"/>
      <point x="362" y="109"/>
      <point x="326" y="109" type="qcurve"/>
      <point x="290" y="109"/>
      <point x="229" y="133"/>
      <point x="186" y="176"/>
      <point x="162" y="236"/>
    </contour>
  </outline>
</glyph>
<glyph name="aring" format="2">
  <advance width="667"/>
  <unicode hex="00E5"/>
  <outline>
    <contour>
      <point x="344" y="610" type="qcurve"/>
      <point x="365" y="610"/>
      <point x="403" y="626"/>
      <point x="431" y="654"/>
      <point x="447" y="692"/>
      <point x="447" y="713" type="qcurve"/>
      <point x="447" y="734"/>
      <point x="431" y="772"/>
      <point x="403" y="800"/>
      <point x="366" y="816"/>
      <point x="345" y="816" type="qcurve"/>
      <point x="323" y="816"/>
      <point x="285" y="800"/>
      <point x="257" y="772"/>
      <point x="241" y="734"/>
      <point x="241" y="713" type="qcurve"/>
      <point x="241" y="692"/>
      <point x="257" y="654"/>
      <point x="285" y="626"/>
      <point x="323" y="610"/>
    </contour>
    <contour>
      <point x="308" y="713" type="qcurve"/>
      <point x="308" y="728"/>
      <point x="328" y="749"/>
      <point x="343" y="749" type="qcurve"/>
      <point x="359" y="749"/>
      <point x="380" y="728"/>
      <point x="380" y="713" type="qcurve"/>
      <point x="380" y="698"/>
      <point x="359" y="677"/>
      <point x="344" y="677" type="qcurve"/>
      <point x="329" y="677"/>
      <point x="308" y="698"/>
    </contour>
    <contour>
      <point x="28" y="275" type="qcurve"/>
      <point x="28" y="212"/>
      <point x="70" y="107"/>
      <point x="144" y="30"/>
      <point x="246" y="-13"/>
      <point x="307" y="-13" type="qcurve"/>
      <point x="366" y="-13"/>
      <point x="451" y="26"/>
      <point x="491" y="72" type="qcurve"/>
      <point x="491" y="0" type="line"/>
      <point x="613" y="0" type="line"/>
      <point x="613" y="554" type="line"/>
      <point x="491" y="554" type="line"/>
      <point x="491" y="480" type="line"/>
      <point x="456" y="526"/>
      <point x="371" y="567"/>
      <point x="310" y="567" type="qcurve"/>
      <point x="249" y="567"/>
      <point x="145" y="523"/>
      <point x="70" y="446"/>
      <point x="28" y="339"/>
    </contour>
    <contour>
      <point x="162" y="272" type="qcurve"/>
      <point x="162" y="310"/>
      <point x="186" y="373"/>
      <point x="229" y="419"/>
      <point x="287" y="445"/>
      <point x="322" y="445" type="qcurve"/>
      <point x="358" y="445"/>
      <point x="419" y="420"/>
      <point x="463" y="375"/>
      <point x="487" y="312"/>
      <point x="487" y="275" type="qcurve"/>
      <point x="487" y="238"/>
      <point x="464" y="177"/>
      <point x="421" y="133"/>
      <point x="362" y="109"/>
      <point x="326" y="109" type="qcurve"/>
      <point x="290" y="109"/>
      <point x="229" y="133"/>
      <point x="186" y="176"/>
      <point x="162" y="236"/>
    </contour>
  </outline>
</glyph>
<glyph name="ae" format="2">
  <advance width="1077"/>
  <unicode hex="00E6"/>
  <outline>
    <contour>
      <point x="483" y="0" type="line"/>
      <point x="605" y="0" type="line"/>
      <point x="605" y="60" type="line"/>
      <point x="638" y="22"/>
      <point x="718" y="-13"/>
      <point x="774" y="-13" type="qcurve"/>
      <point x="817" y="-13"/>
      <point x="898" y="14"/>
      <point x="966" y="61"/>
      <point x="1018" y="126"/>
      <point x="1030" y="164" type="qcurve"/>
      <point x="885" y="164" type="line"/>
      <point x="861" y="135"/>
      <point x="806" y="109"/>
      <point x="768" y="109" type="qcurve"/>
      <point x="740" y="109"/>
      <point x="691" y="124"/>
      <point x="650" y="152"/>
      <point x="621" y="193"/>
      <point x="612" y="219" type="qcurve"/>
      <point x="1040" y="219" type="line"/>
      <point x="1045" y="241"/>
      <point x="1049" y="270"/>
      <point x="1049" y="288" type="qcurve"/>
      <point x="1049" y="347"/>
      <point x="1006" y="449"/>
      <point x="931" y="524"/>
      <point x="830" y="567"/>
      <point x="772" y="567" type="qcurve"/>
      <point x="718" y="567"/>
      <point x="640" y="535"/>
      <point x="605" y="499" type="qcurve"/>
      <point x="605" y="554" type="line"/>
      <point x="483" y="554" type="line"/>
      <point x="483" y="499" type="line"/>
      <point x="448" y="535"/>
      <point x="370" y="567"/>
      <point x="316" y="567" type="qcurve"/>
      <point x="255" y="567"/>
      <point x="150" y="522"/>
      <point x="72" y="444"/>
      <point x="28" y="337"/>
      <point x="28" y="275" type="qcurve"/>
      <point x="28" y="213"/>
      <point x="72" y="108"/>
      <point x="150" y="31"/>
      <point x="256" y="-13"/>
      <point x="318" y="-13" type="qcurve"/>
      <point x="376" y="-13"/>
      <point x="449" y="20"/>
      <point x="483" y="60" type="qcurve"/>
    </contour>
    <contour>
      <point x="322" y="109" type="qcurve"/>
      <point x="288" y="109"/>
      <point x="229" y="135"/>
      <point x="186" y="180"/>
      <point x="162" y="242"/>
      <point x="162" y="278" type="qcurve"/>
      <point x="162" y="313"/>
      <point x="186" y="374"/>
      <point x="229" y="419"/>
      <point x="286" y="445"/>
      <point x="319" y="445" type="qcurve"/>
      <point x="353" y="445"/>
      <point x="412" y="419"/>
      <point x="455" y="374"/>
      <point x="479" y="312"/>
      <point x="479" y="276" type="qcurve"/>
      <point x="479" y="240"/>
      <point x="455" y="179"/>
      <point x="413" y="134"/>
      <point x="356" y="109"/>
    </contour>
    <contour>
      <point x="605" y="337" type="line"/>
      <point x="615" y="364"/>
      <point x="643" y="405"/>
      <point x="682" y="432"/>
      <point x="730" y="445"/>
      <point x="759" y="445" type="qcurve"/>
      <point x="789" y="445"/>
      <point x="839" y="432"/>
      <point x="876" y="405"/>
      <point x="902" y="364"/>
      <point x="909" y="337" type="qcurve"/>
    </contour>
  </outline>
</glyph>
<glyph name="ccedilla" format="2">
  <advance width="625"/>
  <unicode hex="00E7"/>
  <outline>
    <contour>
      <point x="223" y="-166" type="line"/>
      <point x="228" y="-204"/>
      <point x="283" y="-251"/>
      <point x="322" y="-251" type="qcurve"/>
      <point x="366" y="-251"/>
      <point x="417" y="-197"/>
      <point x="417" y="-151" type="qcurve"/>
      <point x="417" y="-108"/>
      <point x="367" y="-51"/>
      <point x="329" y="-51" type="qcurve"/>
      <point x="320" y="-51"/>
      <point x="307" y="-54"/>
      <point x="298" y="-58" type="qcurve"/>
      <point x="317" y="-13" type="line"/>
      <point x="420" y="-13"/>
      <point x="566" y="88"/>
      <point x="599" y="182" type="qcurve"/>
      <point x="449" y="182" type="line"/>
      <point x="424" y="144"/>
      <point x="365" y="109"/>
      <point x="323" y="109" type="qcurve"/>
      <point x="288" y="109"/>
      <point x="229" y="135"/>
      <point x="186" y="180"/>
      <point x="162" y="242"/>
      <point x="162" y="278" type="qcurve"/>
      <point x="162" y="315"/>
      <point x="185" y="376"/>
      <point x="227" y="420"/>
      <point x="285" y="445"/>
      <point x="320" y="445" type="qcurve"/>
      <point x="366" y="445"/>
      <point x="429" y="408"/>
      <point x="449" y="369" type="qcurve"/>
      <point x="599" y="369" type="line"/>
      <point x="566" y="463"/>
      <point x="420" y="567"/>
      <point x="320" y="567" type="qcurve"/>
      <point x="258" y="567"/>
      <point x="152" y="522"/>
      <point x="73" y="444"/>
      <point x="28" y="338"/>
      <point x="28" y="277" type="qcurve"/>
      <point x="28" y="224"/>
      <point x="64" y="128"/>
      <point x="129" y="52"/>
      <point x="219" y="0"/>
      <point x="273" y="-9" type="qcurve"/>
      <point x="231" y="-107" type="line"/>
      <point x="283" y="-133" type="line"/>
      <point x="292" y="-120"/>
      <point x="310" y="-109"/>
      <point x="321" y="-109" type="qcurve"/>
      <point x="338" y="-109"/>
      <point x="359" y="-134"/>
      <point x="359" y="-153" type="qcurve"/>
      <point x="359" y="-172"/>
      <point x="338" y="-196"/>
      <point x="321" y="-196" type="qcurve"/>
      <point x="308" y="-196"/>
      <point x="289" y="-181"/>
      <point x="283" y="-166" type="qcurve"/>
    </contour>
  </outline>
</glyph>
<glyph name="egrave" format="2">
  <advance width="634"/>
  <unicode hex="00E8"/>
  <outline>
    <contour>
      <point x="141" y="737" type="line"/>
      <point x="367" y="613" type="line"/>
      <point x="420" y="692" type="line"/>
      <point x="198" y="825" type="line"/>
    </contour>
    <contour>
      <point x="447" y="164" type="line"/>
      <point x="421" y="134"/>
      <point x="366" y="109"/>
      <point x="325" y="109" type="qcurve"/>
      <point x="296" y="109"/>
      <point x="245" y="124"/>
      <point x="205" y="152"/>
      <point x="178" y="193"/>
      <point x="172" y="218" type="qcurve"/>
      <point x="601" y="218" type="line"/>
      <point x="604" y="232"/>
      <point x="606" y="253"/>
      <point x="606" y="269" type="qcurve"/>
      <point x="606" y="333"/>
      <point x="563" y="443"/>
      <point x="487" y="522"/>
      <point x="382" y="567"/>
      <point x="320" y="567" type="qcurve"/>
      <point x="259" y="567"/>
      <point x="152" y="522"/>
      <point x="73" y="443"/>
      <point x="28" y="336"/>
      <point x="28" y="275" type="qcurve"/>
      <point x="28" y="214"/>
      <point x="74" y="109"/>
      <point x="155" y="31"/>
      <point x="265" y="-13"/>
      <point x="328" y="-13" type="qcurve"/>
      <point x="374" y="-13"/>
      <point x="458" y="13"/>
      <point x="528" y="60"/>
      <point x="579" y="125"/>
      <point x="592" y="164" type="qcurve"/>
    </contour>
    <contour>
      <point x="168" y="335" type="line"/>
      <point x="176" y="362"/>
      <point x="204" y="403"/>
      <point x="243" y="431"/>
      <point x="292" y="445"/>
      <point x="322" y="445" type="qcurve"/>
      <point x="384" y="445"/>
      <point x="462" y="389"/>
      <point x="475" y="335" type="qcurve"/>
    </contour>
  </outline>
</glyph>
<glyph name="icircumflex" format="2">
  <advance width="241"/>
  <unicode hex="00EE"/>
  <outline>
    <contour>
      <point x="54" y="0" type="line"/>
      <point x="187" y="0" type="line"/>
      <point x="187" y="554" type="line"/>
      <point x="54" y="554" type="line"/>
    </contour>
    <contour>
      <point x="-79" y="630" type="line"/>
      <point x="68" y="630" type="line"/>
      <point x="122" y="694" type="line"/>
      <point x="175" y="630" type="line"/>
      <point x="320" y="630" type="line"/>
      <point x="175" y="768" type="line"/>
      <point x="68" y="768" type="line"/>
    </contour>
  </outline>
</glyph>
<glyph name="idieresis" format="2">
  <advance width="241"/>
  <unicode hex="00EF"/>
  <outline>
    <contour>
      <point x="54" y="0" type="line"/>
      <point x="187" y="0" type="line"/>
      <point x="187" y="554" type="line"/>
      <point x="54" y="554" type="line"/>
    </contour>
    <contour>
      <point x="-51" y="630" type="line"/>
      <point x="82" y="630" type="line"/>
      <point x="82" y="763" type="line"/>
      <point x="-51" y="763" type="line"/>
    </contour>
    <contour>
      <point x="159" y="630" type="line"/>
      <point x="292" y="630" type="line"/>
      <point x="292" y="763" type="line"/>
      <point x="159" y="763" type="line"/>
    </contour>
  </outline>
</glyph>
<glyph name="eth" format="2">
  <advance width="645"/>
  <unicode hex="00F0"/>
  <outline>
    <contour>
      <point x="28" y="278" type="qcurve"/>
      <point x="28" y="218"/>
      <point x="74" y="112"/>
      <point x="155" y="33"/>
      <point x="262" y="-13"/>
      <point x="323" y="-13" type="qcurve"/>
      <point x="385" y="-13"/>
      <point x="492" y="33"/>
      <point x="572" y="113"/>
      <point x="617" y="221"/>
      <point x="617" y="284" type="qcurve"/>
      <point x="617" y="331"/>
      <point x="590" y="423"/>
      <point x="533" y="516"/>
      <point x="445" y="613"/>
      <point x="385" y="665" type="qcurve"/>
      <point x="463" y="700" type="line"/>
      <point x="422" y="749" type="line"/>
      <point x="335" y="709" type="line"/>
      <point x="323" y="719"/>
      <point x="293" y="741"/>
      <point x="270" y="756" type="qcurve"/>
      <point x="167" y="721" type="line"/>
      <point x="185" y="709"/>
      <point x="217" y="683"/>
      <point x="237" y="664" type="qcurve"/>
      <point x="159" y="627" type="line"/>
      <point x="199" y="581" type="line"/>
      <point x="286" y="621" type="line"/>
      <point x="297" y="613"/>
      <point x="317" y="596"/>
      <point x="336" y="577"/>
      <point x="354" y="558"/>
      <point x="363" y="547" type="qcurve"/>
      <point x="342" y="551"/>
      <point x="308" y="556"/>
      <point x="295" y="556" type="qcurve"/>
      <point x="241" y="556"/>
      <point x="144" y="511"/>
      <point x="71" y="435"/>
      <point x="28" y="334"/>
    </contour>
    <contour>
      <point x="162" y="277" type="qcurve"/>
      <point x="162" y="311"/>
      <point x="187" y="372"/>
      <point x="230" y="418"/>
      <point x="288" y="445"/>
      <point x="320" y="445" type="qcurve"/>
      <point x="354" y="445"/>
      <point x="414" y="419"/>
      <point x="458" y="373"/>
      <point x="483" y="312"/>
      <point x="483" y="276" type="qcurve"/>
      <point x="483" y="241"/>
      <point x="458" y="181"/>
      <point x="414" y="135"/>
      <point x="355" y="109"/>
      <point x="322" y="109" type="qcurve"/>
      <point x="289" y="109"/>
      <point x="231" y="135"/>
      <point x="187" y="181"/>
      <point x="162" y="242"/>
    </contour>
  </outline>
</glyph>
<glyph name="ntilde" format="2">
  <advance width="598"/>
  <unicode hex="00F1"/>
  <outline>
    <contour>
      <point x="179" y="636" type="line"/>
      <point x="193" y="645"/>
      <point x="211" y="655"/>
      <point x="225" y="660"/>
      <point x="239" y="661"/>
      <point x="249" y="661" type="qcurve"/>
      <point x="261" y="661"/>
      <point x="281" y="657"/>
      <point x="303" y="649" type="qcurve"/>
      <point x="323" y="642"/>
      <point x="351" y="636"/>
      <point x="362" y="636" type="qcurve"/>
      <point x="388" y="636"/>
      <point x="432" y="661"/>
      <point x="456" y="691" type="qcurve"/>
      <point x="402" y="772" type="line"/>
      <point x="386" y="754"/>
      <point x="355" y="738"/>
      <point x="335" y="738" type="qcurve"/>
      <point x="324" y="738"/>
      <point x="302" y="743"/>
      <point x="288" y="749" type="qcurve"/>
      <point x="266" y="758"/>
      <point x="245" y="763"/>
      <point x="228" y="763" type="qcurve"/>
      <point x="196" y="763"/>
      <point x="152" y="743"/>
      <point x="125" y="716" type="qcurve"/>
    </contour>
    <contour>
      <point x="54" y="0" type="line"/>
      <point x="187" y="0" type="line"/>
      <point x="187" y="261" type="line"/>
      <point x="187" y="358"/>
      <point x="244" y="445"/>
      <point x="307" y="445" type="qcurve"/>
      <point x="364" y="445"/>
      <point x="413" y="365"/>
      <point x="413" y="271" type="qcurve"/>
      <point x="413" y="0" type="line"/>
      <point x="546" y="0" type="line"/>
      <point x="546" y="297" type="line"/>
      <point x="546" y="438"/>
      <point x="444" y="567"/>
      <point x="333" y="567" type="qcurve"/>
      <point x="285" y="567"/>
      <point x="214" y="537"/>
      <point x="177" y="501" type="qcurve"/>
      <point x="177" y="554" type="line"/>
      <point x="54" y="554" type="line"/>
    </contour>
  </outline>
</glyph>
<glyph name="ograve" format="2">
  <advance width="645"/>
  <unicode hex="00F2"/>
  <outline>
    <contour>
      <point x="28" y="276" type="qcurve"/>
      <point x="28" y="216"/>
      <point x="74" y="111"/>
      <point x="155" y="32"/>
      <point x="262" y="-13"/>
      <point x="323" y="-13" type="qcurve"/>
      <point x="384" y="-13"/>
      <point x="491" y="33"/>
      <point x="571" y="111"/>
      <point x="617" y="216"/>
      <point x="617" y="276" type="qcurve"/>
      <point x="617" y="336"/>
      <point x="571" y="442"/>
      <point x="492" y="521"/>
      <point x="385" y="567"/>
      <point x="325" y="567" type="qcurve"/>
      <point x="263" y="567"/>
      <point x="155" y="522"/>
      <point x="74" y="443"/>
      <point x="28" y="337"/>
    </contour>
    <contour>
      <point x="322" y="109" type="qcurve"/>
      <point x="289" y="109"/>
      <point x="231" y="135"/>
      <point x="187" y="181"/>
      <point x="162" y="242"/>
      <point x="162" y="277" type="qcurve"/>
      <point x="162" y="311"/>
      <point x="187" y="372"/>
      <point x="230" y="418"/>
      <point x="288" y="445"/>
      <point x="320" y="445" type="qcurve"/>
      <point x="354" y="445"/>
      <point x="414" y="419"/>
      <point x="458" y="373"/>
      <point x="483" y="312"/>
      <point x="483" y="276" type="qcurve"/>
      <point x="483" y="241"/>
      <point x="458" y="181"/>
      <point x="414" y="135"/>
      <point x="355" y="109"/>
    </contour>
    <contour>
      <point x="150" y="737" type="line"/>
      <point x="376" y="613" type="line"/>
      <point x="429" y="692" type="line"/>
      <point x="207" y="825" type="line"/>
    </contour>
  </outline>
</glyph>
<glyph name="otilde" format="2">
  <advance width="645"/>
  <unicode hex="00F5"/>
  <outline>
    <contour>
      <point x="28" y="276" type="qcurve"/>
      <point x="28" y="216"/>
      <point x="74" y="111"/>
      <point x="155" y="32"/>
      <point x="262" y="-13"/>
      <point x="323" y="-13" type="qcurve"/>
      <point x="384" y="-13"/>
      <point x="491" y="33"/>
      <point x="571" y="111"/>
      <point x="617" y="216"/>
      <point x="617" y="276" type="qcurve"/>
      <point x="617" y="336"/>
      <point x="571" y="442"/>
      <point x="492" y="521"/>
      <point x="385" y="567"/>
      <point x="325" y="567" type="qcurve"/>
      <point x="263" y="567"/>
      <point x="155" y="522"/>
      <point x="74" y="443"/>
      <point x="28" y="337"/>
    </contour>
    <contour>
      <point x="322" y="109" type="qcurve"/>
      <point x="289" y="109"/>
      <point x="231" y="135"/>
      <point x="187" y="181"/>
      <point x="162" y="242"/>
      <point x="162" y="277" type="qcurve"/>
      <point x="162" y="311"/>
      <point x="187" y="372"/>
      <point x="230" y="418"/>
      <point x="288" y="445"/>
      <point x="320" y="445" type="qcurve"/>
      <point x="354" y="445"/>
      <point x="414" y="419"/>
      <point x="458" y="373"/>
      <point x="483" y="312"/>
      <point x="483" y="276" type="qcurve"/>
      <point x="483" y="241"/>
      <point x="458" y="181"/>
      <point x="414" y="135"/>
      <point x="355" y="109"/>
    </contour>
    <contour>
      <point x="214" y="636" type="line"/>
      <point x="228" y="645"/>
      <point x="246" y="655"/>
      <point x="260" y="660"/>
      <point x="274" y="661"/>
      <point x="284" y="661" type="qcurve"/>
      <point x="296" y="661"/>
      <point x="316" y="657"/>
      <point x="338" y="649" type="qcurve"/>
      <point x="358" y="642"/>
      <point x="386" y="636"/>
      <point x="397" y="636" type="qcurve"/>
      <point x="423" y="636"/>
      <point x="467" y="661"/>
      <point x="491" y="691" type="qcurve"/>
      <point x="437" y="772" type="line"/>
      <point x="421" y="754"/>
      <point x="390" y="738"/>
      <point x="370" y="738" type="qcurve"/>
      <point x="359" y="738"/>
      <point x="337" y="743"/>
      <point x="323" y="749" type="qcurve"/>
      <point x="301" y="758"/>
      <point x="280" y="763"/>
      <point x="263" y="763" type="qcurve"/>
      <point x="231" y="763"/>
      <point x="187" y="743"/>
      <point x="160" y="716" type="qcurve"/>
    </contour>
    <contour>
      <point x="28" y="276" type="qcurve"/>
      <point x="28" y="216"/>
      <point x="74" y="111"/>
      <point x="155" y="32"/>
      <point x="262" y="-13"/>
      <point x="323" y="-13" type="qcurve"/>
      <point x="384" y="-13"/>
      <point x="491" y="33"/>
      <point x="571" y="111"/>
      <point x="617" y="216"/>
      <point x="617" y="276" type="qcurve"/>
      <point x="617" y="336"/>
      <point x="571" y="442"/>
      <point x="492" y="521"/>
      <point x="385" y="567"/>
      <point x="325" y="567" type="qcurve"/>
      <point x="263" y="567"/>
      <point x="155" y="522"/>
      <point x="74" y="443"/>
      <point x="28" y="337"/>
    </contour>
    <contour>
      <point x="322" y="109" type="qcurve"/>
      <point x="289" y="109"/>
      <point x="231" y="135"/>
      <point x="187" y="181"/>
      <point x="162" y="242"/>
      <point x="162" y="277" type="qcurve"/>
      <point x="162" y="311"/>
      <point x="187" y="372"/>
      <point x="230" y="418"/>
      <point x="288" y="445"/>
      <point x="320" y="445" type="qcurve"/>
      <point x="354" y="445"/>
      <point x="414" y="419"/>
      <point x="458" y="373"/>
      <point x="483" y="312"/>
      <point x="483" y="276" type="qcurve"/>
      <point x="483" y="241"/>
      <point x="458" y="181"/>
      <point x="414" y="135"/>
      <point x="355" y="109"/>
    </contour>
  </outline>
</glyph>
<glyph name="divide" format="2">
  <advance width="600"/>
  <unicode hex="00F7"/>
  <outline>
    <contour>
      <point x="232" y="538" type="line"/>
      <point x="367" y="538" type="line"/>
      <point x="367" y="669" type="line"/>
      <point x="232" y="669" type="line"/>
    </contour>
    <contour>
      <point x="232" y="73" type="line"/>
      <point x="367" y="73" type="line"/>
      <point x="367" y="204" type="line"/>
      <point x="232" y="204" type="line"/>
    </contour>
    <contour>
      <point x="48" y="312" type="line"/>
      <point x="552" y="312" type="line"/>
      <point x="552" y="430" type="line"/>
      <point x="48" y="430" type="line"/>
    </contour>
  </outline>
</glyph>
<glyph name="oslash" format="2">
  <advance width="646"/>
  <unicode hex="00F8"/>
  <outline>
    <contour>
      <point x="57" y="-10" type="line"/>
      <point x="142" y="-67" type="line"/>
      <point x="198" y="15" type="line"/>
      <point x="229" y="1"/>
      <point x="291" y="-13"/>
      <point x="324" y="-13" type="qcurve"/>
      <point x="385" y="-13"/>
      <point x="492" y="33"/>
      <point x="572" y="111"/>
      <point x="618" y="217"/>
      <point x="618" y="277" type="qcurve"/>
      <point x="618" y="340"/>
      <point x="569" y="447"/>
      <point x="521" y="492" type="qcurve"/>
      <point x="571" y="565" type="line"/>
      <point x="485" y="623" type="line"/>
      <point x="433" y="546" type="line"/>
      <point x="405" y="557"/>
      <point x="353" y="567"/>
      <point x="324" y="567" type="qcurve"/>
      <point x="263" y="567"/>
      <point x="155" y="521"/>
      <point x="74" y="443"/>
      <point x="28" y="337"/>
      <point x="28" y="277" type="qcurve"/>
      <point x="28" y="219"/>
      <point x="73" y="114"/>
      <point x="114" y="74" type="qcurve"/>
    </contour>
    <contour>
      <point x="189" y="185" type="line"/>
      <point x="175" y="208"/>
      <point x="162" y="253"/>
      <point x="162" y="278" type="qcurve"/>
      <point x="162" y="313"/>
      <point x="187" y="373"/>
      <point x="231" y="419"/>
      <point x="290" y="445"/>
      <point x="323" y="445" type="qcurve"/>
      <point x="334" y="445"/>
      <point x="350" y="443"/>
      <point x="361" y="440" type="qcurve"/>
    </contour>
    <contour>
      <point x="448" y="383" type="line"/>
      <point x="466" y="359"/>
      <point x="484" y="306"/>
      <point x="484" y="276" type="qcurve"/>
      <point x="484" y="241"/>
      <point x="459" y="181"/>
      <point x="415" y="135"/>
      <point x="356" y="109"/>
      <point x="323" y="109" type="qcurve"/>
      <point x="309" y="109"/>
      <point x="283" y="114"/>
      <point x="269" y="119" type="qcurve"/>
    </contour>
  </outline>
</glyph>
<glyph name="ugrave" format="2">
  <advance width="599"/>
  <unicode hex="00F9"/>
  <outline>
    <contour>
      <point x="119" y="737" type="line"/>
      <point x="345" y="613" type="line"/>
      <point x="398" y="692" type="line"/>
      <point x="176" y="825" type="line"/>
    </contour>
    <contour>
      <point x="422" y="0" type="line"/>
      <point x="545" y="0" type="line"/>
      <point x="545" y="554" type="line"/>
      <point x="412" y="554" type="line"/>
      <point x="412" y="293" type="line"/>
      <point x="412" y="193"/>
      <point x="356" y="109"/>
      <point x="290" y="109" type="qcurve"/>
      <point x="234" y="109"/>
      <point x="185" y="190"/>
      <point x="185" y="283" type="qcurve"/>
      <point x="185" y="554" type="line"/>
      <point x="52" y="554" type="line"/>
      <point x="52" y="257" type="line"/>
      <point x="52" y="122"/>
      <point x="158" y="-13"/>
      <point x="263" y="-13" type="qcurve"/>
      <point x="314" y="-13"/>
      <point x="384" y="16"/>
      <point x="422" y="53" type="qcurve"/>
    </contour>
  </outline>
</glyph>
<glyph name="ucircumflex" format="2">
  <advance width="599"/>
  <unicode hex="00FB"/>
  <outline>
    <contour>
      <point x="99" y="630" type="line"/>
      <point x="246" y="630" type="line"/>
      <point x="300" y="694" type="line"/>
      <point x="353" y="630" type="line"/>
      <point x="498" y="630" type="line"/>
      <point x="353" y="768" type="line"/>
      <point x="246" y="768" type="line"/>
    </contour>
    <contour>
      <point x="422" y="0" type="line"/>
      <point x="545" y="0" type="line"/>
      <point x="545" y="554" type="line"/>
      <point x="412" y="554" type="line"/>
      <point x="412" y="293" type="line"/>
      <point x="412" y="193"/>
      <point x="356" y="109"/>
      <point x="290" y="109" type="qcurve"/>
      <point x="234" y="109"/>
      <point x="185" y="190"/>
      <point x="185" y="283" type="qcurve"/>
      <point x="185" y="554" type="line"/>
      <point x="52" y="554" type="line"/>
      <point x="52" y="257" type="line"/>
      <point x="52" y="122"/>
      <point x="158" y="-13"/>
      <point x="263" y="-13" type="qcurve"/>
      <point x="314" y="-13"/>
      <point x="384" y="16"/>
      <point x="422" y="53" type="qcurve"/>
    </contour>
  </outline>
</glyph>
<glyph name="yacute" format="2">
  <advance width="568"/>
  <unicode hex="00FD"/>
  <outline>
    <contour>
      <point x="102" y="-185" type="line"/>
      <point x="245" y="-185" type="line"/>
      <point x="565" y="554" type="line"/>
      <point x="412" y="554" type="line"/>
      <point x="278" y="195" type="line"/>
      <point x="155" y="554" type="line"/>
      <point x="3" y="554" type="line"/>
      <point x="206" y="52" type="line"/>
    </contour>
    <contour>
      <point x="202" y="613" type="line"/>
      <point x="429" y="733" type="line"/>
      <point x="375" y="825" type="line"/>
      <point x="151" y="691" type="line"/>
    </contour>
  </outline>
</glyph>
<glyph name="thorn" format="2">
  <advance width="662"/>
  <unicode hex="00FE"/>
  <outline>
    <contour>
      <point x="54" y="-185" type="line"/>
      <point x="187" y="-185" type="line"/>
      <point x="187" y="59" type="line"/>
      <point x="219" y="23"/>
      <point x="306" y="-13"/>
      <point x="359" y="-13" type="qcurve"/>
      <point x="419" y="-13"/>
      <point x="520" y="30"/>
      <point x="593" y="107"/>
      <point x="634" y="214"/>
      <point x="634" y="277" type="qcurve"/>
      <point x="634" y="340"/>
      <point x="593" y="447"/>
      <point x="520" y="524"/>
      <point x="419" y="567"/>
      <point x="359" y="567" type="qcurve"/>
      <point x="306" y="567"/>
      <point x="219" y="531"/>
      <point x="187" y="495" type="qcurve"/>
      <point x="187" y="739" type="line"/>
      <point x="54" y="739" type="line"/>
    </contour>
    <contour>
      <point x="341" y="109" type="qcurve"/>
      <point x="306" y="109"/>
      <point x="247" y="134"/>
      <point x="204" y="179"/>
      <point x="179" y="241"/>
      <point x="179" y="277" type="qcurve"/>
      <point x="179" y="313"/>
      <point x="203" y="374"/>
      <point x="246" y="419"/>
      <point x="304" y="445"/>
      <point x="338" y="445" type="qcurve"/>
      <point x="373" y="445"/>
      <point x="432" y="420"/>
      <point x="475" y="375"/>
      <point x="500" y="313"/>
      <point x="500" y="277" type="qcurve"/>
      <point x="500" y="241"/>
      <point x="476" y="180"/>
      <point x="433" y="135"/>
      <point x="375" y="109"/>
    </contour>
  </outline>
</glyph>
<glyph name="ydieresis" format="2">
  <advance width="568"/>
  <unicode hex="00FF"/>
  <outline>
    <contour>
      <point x="102" y="-185" type="line"/>
      <point x="245" y="-185" type="line"/>
      <point x="565" y="554" type="line"/>
      <point x="412" y="554" type="line"/>
      <point x="278" y="195" type="line"/>
      <point x="155" y="554" type="line"/>
      <point x="3" y="554" type="line"/>
      <point x="206" y="52" type="line"/>
    </contour>
    <contour>
      <point x="113" y="630" type="line"/>
      <point x="246" y="630" type="line"/>
      <point x="246" y="763" type="line"/>
      <point x="113" y="763" type="line"/>
    </contour>
    <contour>
      <point x="323" y="630" type="line"/>
      <point x="456" y="630" type="line"/>
      <point x="456" y="763" type="line"/>
      <point x="323" y="763" type="line"/>
    </contour>
  </outline>
</glyph>
<glyph name="Lmiddledot" format="2">
  <advance width="454"/>
  <unicode hex="013F"/>
  <outline>
    <contour>
      <point x="300" y="309" type="line"/>
      <point x="433" y="309" type="line"/>
      <point x="433" y="442" type="line"/>
      <point x="300" y="442" type="line"/>
    </contour>
    <contour>
      <point x="71" y="0" type="line"/>
      <point x="434" y="0" type="line"/>
      <point x="434" y="131" type="line"/>
      <point x="208" y="131" type="line"/>
      <point x="208" y="739" type="line"/>
      <point x="71" y="739" type="line"/>
    </contour>
  </outline>
</glyph>
<glyph name="lmiddledot" format="2">
  <advance width="438"/>
  <unicode hex="0140"/>
  <outline>
    <contour>
      <point x="54" y="0" type="line"/>
      <point x="187" y="0" type="line"/>
      <point x="187" y="739" type="line"/>
      <point x="54" y="739" type="line"/>
    </contour>
    <contour>
      <point x="265" y="300" type="line"/>
      <point x="398" y="300" type="line"/>
      <point x="398" y="433" type="line"/>
      <point x="265" y="433" type="line"/>
    </contour>
  </outline>
</glyph>
<glyph name="Lslash" format="2">
  <advance width="484"/>
  <unicode hex="0141"/>
  <outline>
    <contour>
      <point x="113" y="0" type="line"/>
      <point x="476" y="0" type="line"/>
      <point x="476" y="128" type="line"/>
      <point x="250" y="128" type="line"/>
      <point x="250" y="350" type="line"/>
      <point x="392" y="461" type="line"/>
      <point x="392" y="584" type="line"/>
      <point x="250" y="474" type="line"/>
      <point x="250" y="739" type="line"/>
      <point x="113" y="739" type="line"/>
      <point x="113" y="397" type="line"/>
      <point x="17" y="318" type="line"/>
      <point x="17" y="194" type="line"/>
      <point x="113" y="273" type="line"/>
    </contour>
  </outline>
</glyph>
<glyph name="lslash" format="2">
  <advance width="343"/>
  <unicode hex="0142"/>
  <outline>
    <contour>
      <point x="109" y="0" type="line"/>
      <point x="242" y="0" type="line"/>
      <point x="242" y="383" type="line"/>
      <point x="323" y="446" type="line"/>
      <point x="323" y="545" type="line"/>
      <point x="242" y="482" type="line"/>
      <point x="242" y="739" type="line"/>
      <point x="109" y="739" type="line"/>
      <point x="109" y="417" type="line"/>
      <point x="28" y="354" type="line"/>
      <point x="28" y="255" type="line"/>
      <point x="109" y="317" type="line"/>
    </contour>
  </outline>
</glyph>
<glyph name="OE" format="2">
  <advance width="1058"/>
  <unicode hex="0152"/>
  <outline>
    <contour>
      <point x="416" y="-13" type="qcurve"/>
      <point x="486" y="-13"/>
      <point x="604" y="35"/>
      <point x="645" y="81" type="qcurve"/>
      <point x="645" y="0" type="line"/>
      <point x="1002" y="0" type="line"/>
      <point x="1002" y="131" type="line"/>
      <point x="784" y="131" type="line"/>
      <point x="784" y="303" type="line"/>
      <point x="991" y="303" type="line"/>
      <point x="991" y="434" type="line"/>
      <point x="784" y="434" type="line"/>
      <point x="784" y="608" type="line"/>
      <point x="1002" y="608" type="line"/>
      <point x="1002" y="739" type="line"/>
      <point x="645" y="739" type="line"/>
      <point x="645" y="657" type="line"/>
      <point x="603" y="705"/>
      <point x="487" y="752"/>
      <point x="411" y="752" type="qcurve"/>
      <point x="330" y="752"/>
      <point x="193" y="694"/>
      <point x="93" y="591"/>
      <point x="36" y="451"/>
      <point x="36" y="368" type="qcurve"/>
      <point x="36" y="287"/>
      <point x="94" y="147"/>
      <point x="196" y="45"/>
      <point x="335" y="-13"/>
    </contour>
    <contour>
      <point x="414" y="119" type="qcurve"/>
      <point x="363" y="119"/>
      <point x="275" y="157"/>
      <point x="211" y="223"/>
      <point x="174" y="313"/>
      <point x="174" y="367" type="qcurve"/>
      <point x="174" y="420"/>
      <point x="210" y="512"/>
      <point x="273" y="581"/>
      <point x="358" y="620"/>
      <point x="407" y="620" type="qcurve"/>
      <point x="461" y="620"/>
      <point x="550" y="583"/>
      <point x="614" y="516"/>
      <point x="650" y="424"/>
      <point x="650" y="368" type="qcurve"/>
      <point x="650" y="314"/>
      <point x="615" y="223"/>
      <point x="552" y="156"/>
      <point x="465" y="119"/>
    </contour>
  </outline>
</glyph>
<glyph name="oe" format="2">
  <advance width="1074"/>
  <unicode hex="0153"/>
  <outline>
    <contour>
      <point x="886" y="163" type="line"/>
      <point x="866" y="139"/>
      <point x="800" y="109"/>
      <point x="765" y="109" type="qcurve"/>
      <point x="738" y="109"/>
      <point x="689" y="124"/>
      <point x="650" y="152"/>
      <point x="620" y="193"/>
      <point x="612" y="218" type="qcurve"/>
      <point x="1041" y="218" type="line"/>
      <point x="1044" y="237"/>
      <point x="1046" y="266"/>
      <point x="1046" y="284" type="qcurve"/>
      <point x="1046" y="346"/>
      <point x="1003" y="449"/>
      <point x="927" y="525"/>
      <point x="822" y="567"/>
      <point x="760" y="567" type="qcurve"/>
      <point x="692" y="567"/>
      <point x="589" y="515"/>
      <point x="541" y="456" type="qcurve"/>
      <point x="492" y="516"/>
      <point x="388" y="567"/>
      <point x="318" y="567" type="qcurve"/>
      <point x="257" y="567"/>
      <point x="151" y="522"/>
      <point x="73" y="444"/>
      <point x="28" y="338"/>
      <point x="28" y="277" type="qcurve"/>
      <point x="28" y="215"/>
      <point x="73" y="109"/>
      <point x="151" y="31"/>
      <point x="259" y="-13"/>
      <point x="322" y="-13" type="qcurve"/>
      <point x="394" y="-13"/>
      <point x="500" y="42"/>
      <point x="541" y="100" type="qcurve"/>
      <point x="579" y="45"/>
      <point x="695" y="-13"/>
      <point x="766" y="-13" type="qcurve"/>
      <point x="811" y="-13"/>
      <point x="893" y="12"/>
      <point x="962" y="58"/>
      <point x="1013" y="123"/>
      <point x="1028" y="163" type="qcurve"/>
    </contour>
    <contour>
      <point x="327" y="109" type="qcurve"/>
      <point x="292" y="109"/>
      <point x="231" y="135"/>
      <point x="187" y="180"/>
      <point x="162" y="242"/>
      <point x="162" y="278" type="qcurve"/>
      <point x="162" y="313"/>
      <point x="187" y="374"/>
      <point x="229" y="419"/>
      <point x="287" y="445"/>
      <point x="320" y="445" type="qcurve"/>
      <point x="355" y="445"/>
      <point x="416" y="420"/>
      <point x="459" y="374"/>
      <point x="484" y="313"/>
      <point x="484" y="276" type="qcurve"/>
      <point x="484" y="240"/>
      <point x="460" y="179"/>
      <point x="418" y="135"/>
      <point x="360" y="109"/>
    </contour>
    <contour>
      <point x="606" y="335" type="line"/>
      <point x="625" y="390"/>
      <point x="701" y="445"/>
      <point x="758" y="445" type="qcurve"/>
      <point x="788" y="445"/>
      <point x="836" y="431"/>
      <point x="873" y="404"/>
      <point x="900" y="362"/>
      <point x="908" y="335" type="qcurve"/>
    </contour>
  </outline>
</glyph>
<glyph name="Scaron" format="2">
  <advance width="524"/>
  <unicode hex="0160"/>
  <outline>
    <contour>
      <point x="62" y="943" type="line"/>
      <point x="209" y="805" type="line"/>
      <point x="316" y="805" type="line"/>
      <point x="461" y="943" type="line"/>
      <point x="316" y="943" type="line"/>
      <point x="263" y="879" type="line"/>
      <point x="209" y="943" type="line"/>
    </contour>
    <contour>
      <point x="19" y="211" type="line"/>
      <point x="23" y="161"/>
      <point x="61" y="78"/>
      <point x="125" y="19"/>
      <point x="211" y="-13"/>
      <point x="262" y="-13" type="qcurve"/>
      <point x="312" y="-13"/>
      <point x="398" y="23"/>
      <point x="462" y="87"/>
      <point x="498" y="174"/>
      <point x="498" y="224" type="qcurve"/>
      <point x="498" y="265"/>
      <point x="476" y="332"/>
      <point x="429" y="386"/>
      <point x="357" y="428"/>
      <point x="307" y="445" type="qcurve"/>
      <point x="271" y="457"/>
      <point x="223" y="479"/>
      <point x="195" y="501"/>
      <point x="184" y="528"/>
      <point x="184" y="545" type="qcurve"/>
      <point x="184" y="578"/>
      <point x="226" y="620"/>
      <point x="260" y="620" type="qcurve"/>
      <point x="295" y="620"/>
      <point x="335" y="580"/>
      <point x="338" y="542" type="qcurve"/>
      <point x="480" y="542" type="line"/>
      <point x="477" y="589"/>
      <point x="443" y="667"/>
      <point x="386" y="722"/>
      <point x="308" y="752"/>
      <point x="261" y="752" type="qcurve"/>
      <point x="216" y="752"/>
      <point x="138" y="719"/>
      <point x="79" y="663"/>
      <point x="46" y="586"/>
      <point x="46" y="542" type="qcurve"/>
      <point x="46" y="507"/>
      <point x="66" y="446"/>
      <point x="105" y="395"/>
      <point x="163" y="355"/>
      <point x="200" y="341" type="qcurve"/>
      <point x="225" y="332"/>
      <point x="281" y="313"/>
      <point x="330" y="285"/>
      <point x="362" y="242"/>
      <point x="362" y="209" type="qcurve"/>
      <point x="362" y="189"/>
      <point x="347" y="156"/>
      <point x="321" y="132"/>
      <point x="284" y="119"/>
      <point x="262" y="119" type="qcurve"/>
      <point x="216" y="119"/>
      <point x="167" y="164"/>
      <point x="162" y="211" type="qcurve"/>
    </contour>
  </outline>
</glyph>
<glyph name="scaron" format="2">
  <advance width="438"/>
  <unicode hex="0161"/>
  <outline>
    <contour>
      <point x="20" y="768" type="line"/>
      <point x="167" y="630" type="line"/>
      <point x="274" y="630" type="line"/>
      <point x="419" y="768" type="line"/>
      <point x="274" y="768" type="line"/>
      <point x="221" y="704" type="line"/>
      <point x="167" y="768" type="line"/>
    </contour>
    <contour>
      <point x="15" y="176" type="line"/>
      <point x="24" y="86"/>
      <point x="130" y="-13"/>
      <point x="218" y="-13" type="qcurve"/>
      <point x="260" y="-13"/>
      <point x="332" y="16"/>
      <point x="385" y="67"/>
      <point x="416" y="136"/>
      <point x="416" y="176" type="qcurve"/>
      <point x="416" y="238"/>
      <point x="347" y="311"/>
      <point x="262" y="338" type="qcurve"/>
      <point x="251" y="341"/>
      <point x="219" y="350"/>
      <point x="189" y="363"/>
      <point x="168" y="383"/>
      <point x="168" y="398" type="qcurve"/>
      <point x="168" y="418"/>
      <point x="197" y="445"/>
      <point x="219" y="445" type="qcurve"/>
      <point x="240" y="445"/>
      <point x="266" y="423"/>
      <point x="271" y="401" type="qcurve"/>
      <point x="401" y="401" type="line"/>
      <point x="399" y="438"/>
      <point x="371" y="499"/>
      <point x="323" y="543"/>
      <point x="258" y="567"/>
      <point x="219" y="567" type="qcurve"/>
      <point x="180" y="567"/>
      <point x="113" y="541"/>
      <point x="63" y="495"/>
      <point x="35" y="434"/>
      <point x="35" y="398" type="qcurve"/>
      <point x="35" y="368"/>
      <point x="52" y="320"/>
      <point x="89" y="280"/>
      <point x="147" y="248"/>
      <point x="189" y="234" type="qcurve"/>
      <point x="202" y="230"/>
      <point x="234" y="219"/>
      <point x="263" y="204"/>
      <point x="283" y="180"/>
      <point x="283" y="163" type="qcurve"/>
      <point x="283" y="139"/>
      <point x="249" y="109"/>
      <point x="223" y="109" type="qcurve"/>
      <point x="194" y="109"/>
      <point x="159" y="140"/>
      <point x="149" y="176" type="qcurve"/>
    </contour>
  </outline>
</glyph>
<glyph name="Ydieresis" format="2">
  <advance width="637"/>
  <unicode hex="0178"/>
  <outline>
    <contour>
      <point x="250" y="0" type="line"/>
      <point x="387" y="0" type="line"/>
      <point x="387" y="273" type="line"/>
      <point x="630" y="739" type="line"/>
      <point x="482" y="739" type="line"/>
      <point x="319" y="399" type="line"/>
      <point x="155" y="739" type="line"/>
      <point x="7" y="739" type="line"/>
      <point x="250" y="273" type="line"/>
    </contour>
    <contour>
      <point x="147" y="805" type="line"/>
      <point x="280" y="805" type="line"/>
      <point x="280" y="938" type="line"/>
      <point x="147" y="938" type="line"/>
    </contour>
    <contour>
      <point x="357" y="805" type="line"/>
      <point x="490" y="805" type="line"/>
      <point x="490" y="938" type="line"/>
      <point x="357" y="938" type="line"/>
    </contour>
  </outline>
</glyph>
<glyph name="Zcaron" format="2">
  <advance width="522"/>
  <unicode hex="017D"/>
  <outline>
    <contour>
      <point x="30" y="0" type="line"/>
      <point x="492" y="0" type="line"/>
      <point x="492" y="131" type="line"/>
      <point x="195" y="131" type="line"/>
      <point x="473" y="616" type="line"/>
      <point x="473" y="739" type="line"/>
      <point x="45" y="739" type="line"/>
      <point x="45" y="608" type="line"/>
      <point x="310" y="608" type="line"/>
      <point x="30" y="116" type="line"/>
    </contour>
    <contour>
      <point x="62" y="943" type="line"/>
      <point x="209" y="805" type="line"/>
      <point x="316" y="805" type="line"/>
      <point x="461" y="943" type="line"/>
      <point x="316" y="943" type="line"/>
      <point x="263" y="879" type="line"/>
      <point x="209" y="943" type="line"/>
    </contour>
  </outline>
</glyph>
<glyph name="zcaron" format="2">
  <advance width="482"/>
  <unicode hex="017E"/>
  <outline>
    <contour>
      <point x="30" y="0" type="line"/>
      <point x="452" y="0" type="line"/>
      <point x="452" y="119" type="line"/>
      <point x="189" y="119" type="line"/>
      <point x="433" y="435" type="line"/>
      <point x="433" y="554" type="line"/>
      <point x="58" y="554" type="line"/>
      <point x="58" y="435" type="line"/>
      <point x="274" y="435" type="line"/>
      <point x="30" y="119" type="line"/>
    </contour>
    <contour>
      <point x="48" y="768" type="line"/>
      <point x="195" y="630" type="line"/>
      <point x="302" y="630" type="line"/>
      <point x="447" y="768" type="line"/>
      <point x="302" y="768" type="line"/>
      <point x="249" y="704" type="line"/>
      <point x="195" y="768" type="line"/>
    </contour>
  </outline>
</glyph>
<glyph name="fhook" format="2">
  <advance width="560"/>
  <unicode hex="0192"/>
  <outline>
    <contour>
      <point x="3" y="-142" type="line"/>
      <point x="20" y="-146"/>
      <point x="45" y="-149"/>
      <point x="62" y="-149" type="qcurve"/>
      <point x="115" y="-149"/>
      <point x="195" y="-121"/>
      <point x="252" y="-60"/>
      <point x="290" y="37"/>
      <point x="302" y="106" type="qcurve"/>
      <point x="364" y="470" type="line"/>
      <point x="457" y="470" type="line"/>
      <point x="476" y="585" type="line"/>
      <point x="384" y="585" type="line"/>
      <point x="387" y="599" type="line"/>
      <point x="398" y="656"/>
      <point x="441" y="705"/>
      <point x="481" y="705" type="qcurve"/>
      <point x="485" y="705"/>
      <point x="492" y="704"/>
      <point x="494" y="703" type="qcurve"/>
      <point x="514" y="820" type="line"/>
      <point x="504" y="822"/>
      <point x="493" y="823"/>
      <point x="485" y="823" type="qcurve"/>
      <point x="392" y="823"/>
      <point x="283" y="719"/>
      <point x="262" y="611" type="qcurve"/>
      <point x="257" y="585" type="line"/>
      <point x="163" y="585" type="line"/>
      <point x="144" y="470" type="line"/>
      <point x="238" y="470" type="line"/>
      <point x="178" y="128" type="line"/>
      <point x="171" y="85"/>
      <point x="150" y="25"/>
      <point x="120" y="-13"/>
      <point x="81" y="-30"/>
      <point x="56" y="-30" type="qcurve"/>
      <point x="48" y="-30"/>
      <point x="34" y="-28"/>
      <point x="23" y="-26" type="qcurve"/>
    </contour>
  </outline>
</glyph>
<glyph name="circumflexmod" format="2">
  <advance width="527"/>
  <unicode hex="02C6"/>
  <outline>
    <contour>
      <point x="64" y="630" type="line"/>
      <point x="211" y="630" type="line"/>
      <point x="265" y="694" type="line"/>
      <point x="318" y="630" type="line"/>
      <point x="463" y="630" type="line"/>
      <point x="318" y="768" type="line"/>
      <point x="211" y="768" type="line"/>
    </contour>
  </outline>
</glyph>
<glyph name="caronmod" format="2">
  <advance width="527"/>
  <unicode hex="02C7"/>
  <outline>
    <contour>
      <point x="64" y="768" type="line"/>
      <point x="211" y="630" type="line"/>
      <point x="318" y="630" type="line"/>
      <point x="463" y="768" type="line"/>
      <point x="318" y="768" type="line"/>
      <point x="265" y="704" type="line"/>
      <point x="211" y="768" type="line"/>
    </contour>
  </outline>
</glyph>
<glyph name="brevemod" format="2">
  <advance width="458"/>
  <unicode hex="02D8"/>
  <outline>
    <contour>
      <point x="64" y="769" type="line"/>
      <point x="69" y="703"/>
      <point x="155" y="630"/>
      <point x="230" y="630" type="qcurve"/>
      <point x="302" y="630"/>
      <point x="392" y="706"/>
      <point x="394" y="769" type="qcurve"/>
      <point x="292" y="769" type="line"/>
      <point x="288" y="748"/>
      <point x="257" y="726"/>
      <point x="230" y="726" type="qcurve"/>
      <point x="204" y="726"/>
      <point x="171" y="747"/>
      <point x="162" y="769" type="qcurve"/>
    </contour>
  </outline>
</glyph>
<glyph name="dotaccentmod" format="2">
  <advance width="261"/>
  <unicode hex="02D9"/>
  <outline>
    <contour>
      <point x="64" y="630" type="line"/>
      <point x="197" y="630" type="line"/>
      <point x="197" y="763" type="line"/>
      <point x="64" y="763" type="line"/>
    </contour>
  </outline>
</glyph>
<glyph name="ringmod" format="2">
  <advance width="334"/>
  <unicode hex="02DA"/>
  <outline>
    <contour>
      <point x="167" y="610" type="qcurve"/>
      <point x="188" y="610"/>
      <point x="226" y="626"/>
      <point x="254" y="654"/>
      <point x="270" y="692"/>
      <point x="270" y="713" type="qcurve"/>
      <point x="270" y="734"/>
      <point x="254" y="772"/>
      <point x="226" y="800"/>
      <point x="189" y="816"/>
      <point x="168" y="816" type="qcurve"/>
      <point x="146" y="816"/>
      <point x="108" y="800"/>
      <point x="80" y="772"/>
      <point x="64" y="734"/>
      <point x="64" y="713" type="qcurve"/>
      <point x="64" y="692"/>
      <point x="80" y="654"/>
      <point x="108" y="626"/>
      <point x="146" y="610"/>
    </contour>
    <contour>
      <point x="131" y="713" type="qcurve"/>
      <point x="131" y="728"/>
      <point x="151" y="749"/>
      <point x="166" y="749" type="qcurve"/>
      <point x="182" y="749"/>
      <point x="203" y="728"/>
      <point x="203" y="713" type="qcurve"/>
      <point x="203" y="698"/>
      <point x="182" y="677"/>
      <point x="167" y="677" type="qcurve"/>
      <point x="152" y="677"/>
      <point x="131" y="698"/>
    </contour>
  </outline>
</glyph>
<glyph name="ogonekmod" format="2">
  <advance width="310"/>
  <unicode hex="02DB"/>
  <outline>
    <contour>
      <point x="246" y="-113" type="line"/>
      <point x="233" y="-119"/>
      <point x="215" y="-123"/>
      <point x="205" y="-123" type="qcurve"/>
      <point x="183" y="-123"/>
      <point x="155" y="-99"/>
      <point x="155" y="-81" type="qcurve"/>
      <point x="155" y="-60"/>
      <point x="182" y="-27"/>
      <point x="220" y="0" type="qcurve"/>
      <point x="150" y="0" type="line"/>
      <point x="107" y="-20"/>
      <point x="64" y="-73"/>
      <point x="64" y="-105" type="qcurve"/>
      <point x="64" y="-149"/>
      <point x="128" y="-204"/>
      <point x="180" y="-204" type="qcurve"/>
      <point x="197" y="-204"/>
      <point x="229" y="-197"/>
      <point x="246" y="-190" type="qcurve"/>
    </contour>
  </outline>
</glyph>
<glyph name="tildemod" format="2">
  <advance width="459"/>
  <unicode hex="02DC"/>
  <outline>
    <contour>
      <point x="118" y="636" type="line"/>
      <point x="132" y="645"/>
      <point x="150" y="655"/>
      <point x="164" y="660"/>
      <point x="178" y="661"/>
      <point x="188" y="661" type="qcurve"/>
      <point x="200" y="661"/>
      <point x="220" y="657"/>
      <point x="242" y="649" type="qcurve"/>
      <point x="262" y="642"/>
      <point x="290" y="636"/>
      <point x="301" y="636" type="qcurve"/>
      <point x="327" y="636"/>
      <point x="371" y="661"/>
      <point x="395" y="691" type="qcurve"/>
      <point x="341" y="772" type="line"/>
      <point x="325" y="754"/>
      <point x="294" y="738"/>
      <point x="274" y="738" type="qcurve"/>
      <point x="263" y="738"/>
      <point x="241" y="743"/>
      <point x="227" y="749" type="qcurve"/>
      <point x="205" y="758"/>
      <point x="184" y="763"/>
      <point x="167" y="763" type="qcurve"/>
      <point x="135" y="763"/>
      <point x="91" y="743"/>
      <point x="64" y="716" type="qcurve"/>
    </contour>
  </outline>
</glyph>
<glyph name="gravecomb" format="2">
  <advance width="0"/>
  <unicode hex="0300"/>
  <outline>
    <contour>
      <point x="-495" y="737" type="line"/>
      <point x="-269" y="613" type="line"/>
      <point x="-216" y="692" type="line"/>
      <point x="-438" y="825" type="line"/>
    </contour>
  </outline>
</glyph>
<glyph name="acutecomb" format="2">
  <advance width="0"/>
  <unicode hex="0301"/>
  <outline>
    <contour>
      <point x="-377" y="613" type="line"/>
      <point x="-150" y="733" type="line"/>
      <point x="-204" y="825" type="line"/>
      <point x="-428" y="691" type="line"/>
    </contour>
  </outline>
</glyph>
<glyph name="circumflexcomb" format="2">
  <advance width="0"/>
  <unicode hex="0302"/>
  <outline>
    <contour>
      <point x="-522" y="630" type="line"/>
      <point x="-375" y="630" type="line"/>
      <point x="-321" y="694" type="line"/>
      <point x="-268" y="630" type="line"/>
      <point x="-123" y="630" type="line"/>
      <point x="-268" y="768" type="line"/>
      <point x="-375" y="768" type="line"/>
    </contour>
  </outline>
</glyph>
